Monda-Regular.ufo
<glyph name="exclam" format="1">
  <advance width="768"/>
  <unicode hex="0021"/>
  <outline>
    <contour>
      <point x="280" y="0" type="line"/>
      <point x="280" y="206" type="line"/>
      <point x="484" y="206" type="line"/>
      <point x="484" y="0" type="line"/>
    </contour>
    <contour>
      <point x="353" y="371" type="line"/>
      <point x="353" y="371"/>
      <point x="286" y="1060"/>
      <point x="286" y="1446" type="curve"/>
      <point x="488" y="1446" type="line"/>
      <point x="488" y="1060"/>
      <point x="409" y="371"/>
      <point x="409" y="371" type="curve"/>
    </contour>
  </outline>
</glyph>
<glyph name="quotedbl" format="1">
  <advance width="890"/>
  <unicode hex="0022"/>
  <outline>
    <contour>
      <point x="220" y="930" type="line"/>
      <point x="176" y="1506" type="line"/>
      <point x="381" y="1506" type="line"/>
      <point x="332" y="930" type="line"/>
    </contour>
    <contour>
      <point x="553" y="930" type="line"/>
      <point x="509" y="1506" type="line"/>
      <point x="714" y="1506" type="line"/>
      <point x="665" y="930" type="line"/>
    </contour>
  </outline>
</glyph>
<glyph name="numbersign" format="1">
  <advance width="1284"/>
  <unicode hex="0023"/>
  <outline>
    <contour>
      <point x="180" y="0" type="line"/>
      <point x="267" y="475" type="line"/>
      <point x="86" y="475" type="line"/>
      <point x="86" y="594" type="line"/>
      <point x="289" y="594" type="line"/>
      <point x="346" y="910" type="line"/>
      <point x="110" y="910" type="line"/>
      <point x="110" y="1029" type="line"/>
      <point x="368" y="1029" type="line"/>
      <point x="444" y="1446" type="line"/>
      <point x="614" y="1446" type="line"/>
      <point x="540" y="1029" type="line"/>
      <point x="841" y="1029" type="line"/>
      <point x="917" y="1446" type="line"/>
      <point x="1087" y="1446" type="line"/>
      <point x="1013" y="1029" type="line"/>
      <point x="1198" y="1029" type="line"/>
      <point x="1198" y="910" type="line"/>
      <point x="992" y="910" type="line"/>
      <point x="936" y="594" type="line"/>
      <point x="1174" y="594" type="line"/>
      <point x="1174" y="475" type="line"/>
      <point x="915" y="475" type="line"/>
      <point x="831" y="0" type="line"/>
      <point x="653" y="0" type="line"/>
      <point x="740" y="475" type="line"/>
      <point x="442" y="475" type="line"/>
      <point x="358" y="0" type="line"/>
    </contour>
    <contour>
      <point x="463" y="594" type="line"/>
      <point x="762" y="594" type="line"/>
      <point x="819" y="910" type="line"/>
      <point x="519" y="910" type="line"/>
    </contour>
  </outline>
</glyph>
<glyph name="dollar" format="1">
  <advance width="1303"/>
  <unicode hex="0024"/>
  <outline>
    <contour>
      <point x="620" y="-242" type="line"/>
      <point x="620" y="1638" type="line"/>
      <point x="730" y="1638" type="line"/>
      <point x="730" y="-242" type="line"/>
    </contour>
    <component base="S"/>
  </outline>
</glyph>
<glyph name="percent" format="1">
  <advance width="2048"/>
  <unicode hex="0025"/>
  <outline>
    <contour>
      <point x="315" y="899"/>
      <point x="332" y="794"/>
      <point x="470" y="794" type="curve" smooth="yes"/>
      <point x="608" y="794"/>
      <point x="627" y="899"/>
      <point x="627" y="1040" type="curve" smooth="yes"/>
      <point x="627" y="1133" type="line" smooth="yes"/>
      <point x="627" y="1271"/>
      <point x="614" y="1365"/>
      <point x="470" y="1365" type="curve" smooth="yes"/>
      <point x="327" y="1365"/>
      <point x="315" y="1271"/>
      <point x="315" y="1135" type="curve" smooth="yes"/>
      <point x="315" y="1040" type="line" smooth="yes"/>
    </contour>
    <contour>
      <point x="772" y="828"/>
      <point x="700" y="678"/>
      <point x="470" y="678" type="curve" smooth="yes"/>
      <point x="240" y="678"/>
      <point x="172" y="829"/>
      <point x="172" y="1057" type="curve" smooth="yes"/>
      <point x="172" y="1110" type="line" smooth="yes"/>
      <point x="172" y="1343"/>
      <point x="239" y="1481"/>
      <point x="470" y="1481" type="curve" smooth="yes"/>
      <point x="700" y="1481"/>
      <point x="770" y="1344"/>
      <point x="772" y="1111" type="curve"/>
      <point x="772" y="1057" type="line" smooth="yes"/>
    </contour>
    <contour>
      <point x="1419" y="202"/>
      <point x="1436" y="97"/>
      <point x="1574" y="97" type="curve" smooth="yes"/>
      <point x="1712" y="97"/>
      <point x="1731" y="202"/>
      <point x="1731" y="343" type="curve" smooth="yes"/>
      <point x="1731" y="436" type="line" smooth="yes"/>
      <point x="1731" y="574"/>
      <point x="1718" y="668"/>
      <point x="1574" y="668" type="curve" smooth="yes"/>
      <point x="1431" y="668"/>
      <point x="1419" y="574"/>
      <point x="1419" y="438" type="curve" smooth="yes"/>
      <point x="1419" y="343" type="line" smooth="yes"/>
    </contour>
    <contour>
      <point x="1876" y="131"/>
      <point x="1804" y="-19"/>
      <point x="1574" y="-19" type="curve" smooth="yes"/>
      <point x="1344" y="-19"/>
      <point x="1276" y="132"/>
      <point x="1276" y="360" type="curve" smooth="yes"/>
      <point x="1276" y="413" type="line" smooth="yes"/>
      <point x="1276" y="646"/>
      <point x="1343" y="784"/>
      <point x="1574" y="784" type="curve" smooth="yes"/>
      <point x="1804" y="784"/>
      <point x="1874" y="647"/>
      <point x="1876" y="414" type="curve"/>
      <point x="1876" y="360" type="line" smooth="yes"/>
    </contour>
    <contour>
      <point x="668" y="0" type="line"/>
      <point x="1211" y="1446" type="line"/>
      <point x="1360" y="1446" type="line"/>
      <point x="822" y="0" type="line"/>
    </contour>
  </outline>
</glyph>
<glyph name="ampersand" format="1">
  <advance width="1500"/>
  <unicode hex="0026"/>
  <outline>
    <contour>
      <point x="1111" y="28"/>
      <point x="973" y="-24"/>
      <point x="720" y="-24" type="curve" smooth="yes"/>
      <point x="277" y="-24"/>
      <point x="176" y="198"/>
      <point x="176" y="439" type="curve" smooth="yes"/>
      <point x="176" y="640"/>
      <point x="245" y="759"/>
      <point x="439" y="816" type="curve"/>
      <point x="334" y="913"/>
      <point x="264" y="988"/>
      <point x="264" y="1142" type="curve" smooth="yes"/>
      <point x="264" y="1323"/>
      <point x="355" y="1483"/>
      <point x="689" y="1483" type="curve" smooth="yes"/>
      <point x="976" y="1483"/>
      <point x="1124" y="1441"/>
      <point x="1124" y="1205" type="curve" smooth="yes"/>
      <point x="1124" y="1104" type="line"/>
      <point x="958" y="1104" type="line"/>
      <point x="958" y="1164" type="line" smooth="yes"/>
      <point x="958" y="1302"/>
      <point x="892" y="1331"/>
      <point x="704" y="1331" type="curve" smooth="yes"/>
      <point x="494" y="1331"/>
      <point x="454" y="1242"/>
      <point x="454" y="1126" type="curve" smooth="yes"/>
      <point x="454" y="1048"/>
      <point x="487" y="1002"/>
      <point x="578" y="907" type="curve"/>
      <point x="1100" y="410" type="line"/>
      <point x="1101" y="424"/>
      <point x="1101" y="439"/>
      <point x="1101" y="455" type="curve" smooth="yes"/>
      <point x="1101" y="778" type="line"/>
      <point x="1276" y="778" type="line"/>
      <point x="1276" y="500" type="line" smooth="yes"/>
      <point x="1276" y="413"/>
      <point x="1274" y="332"/>
      <point x="1257" y="261" type="curve"/>
      <point x="1432" y="94" type="line"/>
      <point x="1328" y="-19" type="line"/>
      <point x="1186" y="114" type="line"/>
    </contour>
    <contour>
      <point x="378" y="239"/>
      <point x="464" y="126"/>
      <point x="720" y="126" type="curve" smooth="yes"/>
      <point x="906" y="126"/>
      <point x="1012" y="136"/>
      <point x="1063" y="230" type="curve"/>
      <point x="538" y="723" type="line"/>
      <point x="388" y="680"/>
      <point x="378" y="567"/>
      <point x="378" y="445" type="curve" smooth="yes"/>
    </contour>
  </outline>
</glyph>
<glyph name="quotesingle" format="1">
  <advance width="896"/>
  <unicode hex="0027"/>
  <outline>
    <contour>
      <point x="223" y="930" type="line"/>
      <point x="179" y="1506" type="line"/>
      <point x="384" y="1506" type="line"/>
      <point x="335" y="930" type="line"/>
    </contour>
  </outline>
</glyph>
<glyph name="parenleft" format="1">
  <advance width="768"/>
  <unicode hex="0028"/>
  <outline>
    <contour>
      <point x="644" y="-150" type="line"/>
      <point x="174" y="-150"/>
      <point x="172" y="139"/>
      <point x="172" y="440" type="curve" smooth="yes"/>
      <point x="172" y="959" type="line" smooth="yes"/>
      <point x="172" y="1265"/>
      <point x="174" y="1567"/>
      <point x="644" y="1567" type="curve"/>
      <point x="644" y="1416" type="line"/>
      <point x="366" y="1416"/>
      <point x="364" y="1253"/>
      <point x="364" y="996" type="curve" smooth="yes"/>
      <point x="364" y="409" type="line" smooth="yes"/>
      <point x="364" y="153"/>
      <point x="366" y="0"/>
      <point x="644" y="0" type="curve"/>
    </contour>
  </outline>
</glyph>
<glyph name="parenright" format="1">
  <advance width="768"/>
  <unicode hex="0029"/>
  <outline>
    <contour>
      <point x="596" y="152"/>
      <point x="594" y="-150"/>
      <point x="124" y="-150" type="curve"/>
      <point x="124" y="1" type="line"/>
      <point x="402" y="1"/>
      <point x="404" y="164"/>
      <point x="404" y="421" type="curve" smooth="yes"/>
      <point x="404" y="1008" type="line" smooth="yes"/>
      <point x="404" y="1264"/>
      <point x="402" y="1417"/>
      <point x="124" y="1417" type="curve"/>
      <point x="124" y="1567" type="line"/>
      <point x="594" y="1567"/>
      <point x="596" y="1278"/>
      <point x="596" y="977" type="curve" smooth="yes"/>
      <point x="596" y="458" type="line" smooth="yes"/>
    </contour>
  </outline>
</glyph>
<glyph name="asterisk" format="1">
  <advance width="1024"/>
  <unicode hex="002A"/>
  <outline>
    <contour>
      <point x="423" y="599" type="line"/>
      <point x="452" y="924" type="line"/>
      <point x="179" y="750" type="line"/>
      <point x="99" y="911" type="line"/>
      <point x="389" y="1028" type="line"/>
      <point x="109" y="1170" type="line"/>
      <point x="204" y="1323" type="line"/>
      <point x="451" y="1133" type="line"/>
      <point x="423" y="1446" type="line"/>
      <point x="601" y="1446" type="line"/>
      <point x="571" y="1121" type="line"/>
      <point x="844" y="1295" type="line"/>
      <point x="925" y="1134" type="line"/>
      <point x="634" y="1017" type="line"/>
      <point x="914" y="875" type="line"/>
      <point x="819" y="722" type="line"/>
      <point x="572" y="912" type="line"/>
      <point x="601" y="599" type="line"/>
    </contour>
  </outline>
</glyph>
<glyph name="plus" format="1">
  <advance width="1024"/>
  <unicode hex="002B"/>
  <outline>
    <contour>
      <point x="437" y="156" type="line"/>
      <point x="437" y="494" type="line"/>
      <point x="162" y="494" type="line"/>
      <point x="162" y="642" type="line"/>
      <point x="437" y="642" type="line"/>
      <point x="437" y="968" type="line"/>
      <point x="588" y="968" type="line"/>
      <point x="588" y="642" type="line"/>
      <point x="862" y="642" type="line"/>
      <point x="862" y="494" type="line"/>
      <point x="588" y="494" type="line"/>
      <point x="588" y="156" type="line"/>
    </contour>
  </outline>
</glyph>
<glyph name="comma" format="1">
  <advance width="641"/>
  <unicode hex="002C"/>
  <outline>
    <contour>
      <point x="449" y="-141"/>
      <point x="335" y="-284"/>
      <point x="277" y="-338" type="curve"/>
      <point x="196" y="-294" type="line"/>
      <point x="243" y="-239"/>
      <point x="333" y="-132"/>
      <point x="333" y="0" type="curve"/>
      <point x="192" y="0" type="line"/>
      <point x="192" y="233" type="line"/>
      <point x="449" y="233" type="line"/>
      <point x="449" y="50" type="line" smooth="yes"/>
    </contour>
  </outline>
</glyph>
<glyph name="hyphen" format="1">
  <advance width="1024"/>
  <unicode hex="002D"/>
  <outline>
    <contour>
      <point x="162" y="494" type="line"/>
      <point x="162" y="642" type="line"/>
      <point x="862" y="642" type="line"/>
      <point x="862" y="494" type="line"/>
    </contour>
  </outline>
</glyph>
<glyph name="period" format="1">
  <advance width="628"/>
  <unicode hex="002E"/>
  <outline>
    <contour>
      <point x="186" y="0" type="line"/>
      <point x="186" y="242" type="line"/>
      <point x="442" y="242" type="line"/>
      <point x="442" y="0" type="line"/>
    </contour>
  </outline>
</glyph>
<glyph name="slash" format="1">
  <advance width="768"/>
  <unicode hex="002F"/>
  <outline>
    <contour>
      <point x="521" y="1506" type="line"/>
      <point x="704" y="1506" type="line"/>
      <point x="251" y="0" type="line"/>
      <point x="64" y="0" type="line"/>
    </contour>
  </outline>
</glyph>
<glyph name="zero" format="1">
  <advance width="1250"/>
  <unicode hex="0030"/>
  <outline>
    <contour>
      <point x="334" y="363"/>
      <point x="348" y="140"/>
      <point x="634" y="140" type="curve" smooth="yes"/>
      <point x="912.336" y="140"/>
      <point x="917.006" y="348.285"/>
      <point x="917.006" y="593.347" type="curve" smooth="yes"/>
      <point x="917.006" y="601.856"/>
      <point x="917" y="610.409"/>
      <point x="917" y="619" type="curve" smooth="yes"/>
      <point x="917" y="816" type="line" smooth="yes"/>
      <point x="917" y="821.281"/>
      <point x="917.001" y="826.552"/>
      <point x="917.001" y="831.81" type="curve" smooth="yes"/>
      <point x="917.001" y="1082.48"/>
      <point x="914.123" y="1306"/>
      <point x="634" y="1306" type="curve" smooth="yes"/>
      <point x="350" y="1306"/>
      <point x="334" y="1073"/>
      <point x="334" y="816" type="curve" smooth="yes"/>
      <point x="334" y="619" type="line" smooth="yes"/>
    </contour>
    <contour>
      <point x="1118" y="353"/>
      <point x="1099" y="-22"/>
      <point x="634" y="-22" type="curve" smooth="yes"/>
      <point x="151" y="-22"/>
      <point x="132" y="335"/>
      <point x="132" y="636" type="curve" smooth="yes"/>
      <point x="132" y="790" type="line" smooth="yes"/>
      <point x="132" y="1096"/>
      <point x="149" y="1468"/>
      <point x="634" y="1468" type="curve" smooth="yes"/>
      <point x="1101" y="1468"/>
      <point x="1118" y="1083"/>
      <point x="1118" y="777" type="curve" smooth="yes"/>
      <point x="1118" y="650" type="line" smooth="yes"/>
    </contour>
  </outline>
</glyph>
<glyph name="one" format="1">
  <advance width="1250"/>
  <unicode hex="0031"/>
  <outline>
    <contour>
      <point x="206" y="0" type="line"/>
      <point x="206" y="155" type="line"/>
      <point x="607" y="155" type="line"/>
      <point x="607" y="1277" type="line"/>
      <point x="233" y="1237" type="line"/>
      <point x="215" y="1396" type="line"/>
      <point x="644" y="1446" type="line"/>
      <point x="808" y="1446" type="line"/>
      <point x="808" y="155" type="line"/>
      <point x="1162" y="155" type="line"/>
      <point x="1162" y="0" type="line"/>
    </contour>
  </outline>
</glyph>
<glyph name="two" format="1">
  <advance width="1250"/>
  <unicode hex="0032"/>
  <outline>
    <contour>
      <point x="231" y="0" type="line"/>
      <point x="212" y="158" type="line"/>
      <point x="700" y="689" type="line" smooth="yes"/>
      <point x="845.622" y="846.842"/>
      <point x="905.04" y="911.579"/>
      <point x="905.04" y="1056.55" type="curve" smooth="yes"/>
      <point x="905.04" y="1241.74"/>
      <point x="831.607" y="1306"/>
      <point x="654" y="1306" type="curve" smooth="yes"/>
      <point x="443" y="1306"/>
      <point x="365" y="1259"/>
      <point x="365" y="1024" type="curve"/>
      <point x="164" y="1024" type="line"/>
      <point x="164" y="1342"/>
      <point x="347" y="1468"/>
      <point x="639" y="1468" type="curve" smooth="yes"/>
      <point x="950" y="1468"/>
      <point x="1095" y="1289"/>
      <point x="1095" y="1059" type="curve" smooth="yes"/>
      <point x="1095" y="834"/>
      <point x="988" y="735"/>
      <point x="842" y="581" type="curve" smooth="yes"/>
      <point x="441" y="156" type="line"/>
      <point x="1087" y="156" type="line"/>
      <point x="1087" y="0" type="line"/>
    </contour>
  </outline>
</glyph>
<glyph name="three" format="1">
  <advance width="1250"/>
  <unicode hex="0033"/>
  <outline>
    <contour>
      <point x="1126" y="122"/>
      <point x="963" y="-22"/>
      <point x="679" y="-22" type="curve" smooth="yes"/>
      <point x="357" y="-22"/>
      <point x="242" y="91"/>
      <point x="208" y="431" type="curve"/>
      <point x="400" y="431" type="line"/>
      <point x="416" y="189"/>
      <point x="491" y="140"/>
      <point x="690" y="140" type="curve" smooth="yes"/>
      <point x="863" y="140"/>
      <point x="935" y="230"/>
      <point x="935" y="399" type="curve" smooth="yes"/>
      <point x="935" y="622"/>
      <point x="887" y="691"/>
      <point x="587" y="691" type="curve"/>
      <point x="587" y="840" type="line"/>
      <point x="896" y="840"/>
      <point x="909" y="924"/>
      <point x="909" y="1088" type="curve" smooth="yes"/>
      <point x="909" y="1224"/>
      <point x="848" y="1306"/>
      <point x="676" y="1306" type="curve" smooth="yes"/>
      <point x="498" y="1306"/>
      <point x="410" y="1273"/>
      <point x="410" y="1025" type="curve"/>
      <point x="218" y="1025" type="line"/>
      <point x="218" y="1393"/>
      <point x="418" y="1468"/>
      <point x="675" y="1468" type="curve" smooth="yes"/>
      <point x="924" y="1468"/>
      <point x="1097" y="1354"/>
      <point x="1097" y="1091" type="curve" smooth="yes"/>
      <point x="1097" y="901"/>
      <point x="1033" y="795"/>
      <point x="865" y="768" type="curve"/>
      <point x="1030" y="734"/>
      <point x="1126" y="642"/>
      <point x="1126" y="398" type="curve" smooth="yes"/>
    </contour>
  </outline>
</glyph>
<glyph name="four" format="1">
  <advance width="1250"/>
  <unicode hex="0034"/>
  <outline>
    <contour>
      <point x="783" y="0" type="line"/>
      <point x="783" y="351" type="line"/>
      <point x="143" y="351" type="line"/>
      <point x="143" y="508" type="line"/>
      <point x="672" y="1446" type="line"/>
      <point x="881" y="1446" type="line"/>
      <point x="367" y="506" type="line"/>
      <point x="783" y="506" type="line"/>
      <point x="783" y="837" type="line"/>
      <point x="950" y="837" type="line"/>
      <point x="950" y="506" type="line"/>
      <point x="1162" y="506" type="line"/>
      <point x="1162" y="351" type="line"/>
      <point x="950" y="351" type="line"/>
      <point x="950" y="0" type="line"/>
    </contour>
  </outline>
</glyph>
<glyph name="five" format="1">
  <advance width="1250"/>
  <unicode hex="0035"/>
  <outline>
    <contour>
      <point x="812.79" y="140"/>
      <point x="928.1" y="246.353"/>
      <point x="928.1" y="439.094" type="curve" smooth="yes"/>
      <point x="928.1" y="633.091"/>
      <point x="845.266" y="762"/>
      <point x="645" y="762" type="curve" smooth="yes"/>
      <point x="546" y="762"/>
      <point x="485" y="727"/>
      <point x="382" y="652" type="curve"/>
      <point x="236" y="712" type="line"/>
      <point x="287" y="1446" type="line"/>
      <point x="1024" y="1446" type="line"/>
      <point x="1024" y="1281" type="line"/>
      <point x="448" y="1281" type="line"/>
      <point x="406" y="819" type="line"/>
      <point x="469" y="877"/>
      <point x="568" y="911"/>
      <point x="669" y="911" type="curve" smooth="yes"/>
      <point x="968" y="911"/>
      <point x="1117" y="734"/>
      <point x="1117" y="449" type="curve" smooth="yes"/>
      <point x="1117" y="169"/>
      <point x="924" y="-22"/>
      <point x="632" y="-22" type="curve" smooth="yes"/>
      <point x="408" y="-22"/>
      <point x="277" y="46"/>
      <point x="173" y="107" type="curve"/>
      <point x="226" y="260" type="line"/>
      <point x="330" y="191"/>
      <point x="420" y="140"/>
      <point x="624" y="140" type="curve" smooth="yes"/>
    </contour>
  </outline>
</glyph>
<glyph name="six" format="1">
  <advance width="1250"/>
  <unicode hex="0036"/>
  <outline>
    <contour>
      <point x="833" y="1446" type="line"/>
      <point x="476" y="841" type="line"/>
      <point x="519" y="860"/>
      <point x="594" y="878"/>
      <point x="654" y="878" type="curve" smooth="yes"/>
      <point x="950" y="878"/>
      <point x="1132" y="752"/>
      <point x="1132" y="422" type="curve" smooth="yes"/>
      <point x="1132" y="104"/>
      <point x="923" y="-22"/>
      <point x="647" y="-22" type="curve" smooth="yes"/>
      <point x="371" y="-22"/>
      <point x="178" y="106"/>
      <point x="178" y="426" type="curve" smooth="yes"/>
      <point x="178" y="568"/>
      <point x="225" y="728"/>
      <point x="319" y="897" type="curve"/>
      <point x="633" y="1446" type="line"/>
    </contour>
    <contour>
      <point x="945" y="668"/>
      <point x="829" y="715"/>
      <point x="650" y="715" type="curve" smooth="yes"/>
      <point x="469" y="715"/>
      <point x="365" y="646"/>
      <point x="365" y="425" type="curve" smooth="yes"/>
      <point x="365" y="197"/>
      <point x="469" y="140"/>
      <point x="650" y="140" type="curve" smooth="yes"/>
      <point x="830" y="140"/>
      <point x="945" y="197"/>
      <point x="945" y="422" type="curve" smooth="yes"/>
    </contour>
  </outline>
</glyph>
<glyph name="seven" format="1">
  <advance width="1250"/>
  <unicode hex="0037"/>
  <outline>
    <contour>
      <point x="369" y="0" type="line"/>
      <point x="869" y="1291" type="line"/>
      <point x="189" y="1291" type="line"/>
      <point x="189" y="1446" type="line"/>
      <point x="1070" y="1446" type="line"/>
      <point x="1070" y="1289" type="line"/>
      <point x="580" y="0" type="line"/>
    </contour>
  </outline>
</glyph>
<glyph name="eight" format="1">
  <advance width="1250"/>
  <unicode hex="0038"/>
  <outline>
    <contour>
      <point x="1118" y="103"/>
      <point x="921" y="-22"/>
      <point x="621" y="-22" type="curve" smooth="yes"/>
      <point x="327" y="-22"/>
      <point x="132" y="103"/>
      <point x="132" y="367" type="curve" smooth="yes"/>
      <point x="132" y="580"/>
      <point x="280" y="703"/>
      <point x="438" y="773" type="curve"/>
      <point x="287" y="842"/>
      <point x="160" y="922"/>
      <point x="160" y="1108" type="curve" smooth="yes"/>
      <point x="160" y="1375"/>
      <point x="371" y="1468"/>
      <point x="626" y="1468" type="curve" smooth="yes"/>
      <point x="878" y="1468"/>
      <point x="1090" y="1375"/>
      <point x="1090" y="1108" type="curve" smooth="yes"/>
      <point x="1090" y="922"/>
      <point x="962" y="842"/>
      <point x="811" y="773" type="curve"/>
      <point x="969" y="703"/>
      <point x="1118" y="580"/>
      <point x="1118" y="367" type="curve" smooth="yes"/>
    </contour>
    <contour>
      <point x="323" y="199"/>
      <point x="435" y="140"/>
      <point x="626" y="140" type="curve" smooth="yes"/>
      <point x="814" y="140"/>
      <point x="927" y="199"/>
      <point x="927" y="372" type="curve" smooth="yes"/>
      <point x="927" y="529"/>
      <point x="787" y="610"/>
      <point x="625" y="689" type="curve"/>
      <point x="462" y="610"/>
      <point x="323" y="529"/>
      <point x="323" y="372" type="curve" smooth="yes"/>
    </contour>
    <contour>
      <point x="355" y="977"/>
      <point x="479" y="916"/>
      <point x="625" y="846" type="curve"/>
      <point x="771" y="917"/>
      <point x="895" y="977"/>
      <point x="895" y="1107" type="curve" smooth="yes"/>
      <point x="895" y="1230"/>
      <point x="825" y="1306"/>
      <point x="626" y="1306" type="curve" smooth="yes"/>
      <point x="425" y="1306"/>
      <point x="355" y="1230"/>
      <point x="355" y="1107" type="curve" smooth="yes"/>
    </contour>
  </outline>
</glyph>
<glyph name="nine" format="1">
  <advance width="1250"/>
  <unicode hex="0039"/>
  <outline>
    <contour>
      <point x="451" y="0" type="line"/>
      <point x="808" y="605" type="line"/>
      <point x="765" y="586"/>
      <point x="690" y="568"/>
      <point x="630" y="568" type="curve" smooth="yes"/>
      <point x="334" y="568"/>
      <point x="151" y="694"/>
      <point x="151" y="1024" type="curve" smooth="yes"/>
      <point x="151" y="1342"/>
      <point x="361" y="1468"/>
      <point x="637" y="1468" type="curve" smooth="yes"/>
      <point x="913" y="1468"/>
      <point x="1106" y="1340"/>
      <point x="1106" y="1020" type="curve" smooth="yes"/>
      <point x="1106" y="878"/>
      <point x="1059" y="718"/>
      <point x="965" y="549" type="curve"/>
      <point x="651" y="0" type="line"/>
    </contour>
    <contour>
      <point x="338" y="778"/>
      <point x="455" y="731"/>
      <point x="634" y="731" type="curve" smooth="yes"/>
      <point x="815" y="731"/>
      <point x="919" y="800"/>
      <point x="919" y="1021" type="curve" smooth="yes"/>
      <point x="919" y="1249"/>
      <point x="815" y="1306"/>
      <point x="634" y="1306" type="curve" smooth="yes"/>
      <point x="454" y="1306"/>
      <point x="338" y="1249"/>
      <point x="338" y="1024" type="curve" smooth="yes"/>
    </contour>
  </outline>
</glyph>
<glyph name="less" format="1">
  <advance width="1250"/>
  <unicode hex="003C"/>
  <outline>
    <contour>
      <point x="1042" y="0" type="line"/>
      <point x="156" y="471" type="line"/>
      <point x="156" y="672" type="line"/>
      <point x="1042" y="1144" type="line"/>
      <point x="1042" y="941" type="line"/>
      <point x="311" y="573" type="line"/>
      <point x="1042" y="209" type="line"/>
    </contour>
  </outline>
</glyph>
<glyph name="equal" format="1">
  <advance width="1250"/>
  <unicode hex="003D"/>
  <outline>
    <contour>
      <point x="224" y="467" type="line"/>
      <point x="224" y="615" type="line"/>
      <point x="1026" y="615" type="line"/>
      <point x="1026" y="467" type="line"/>
    </contour>
    <contour>
      <point x="224" y="805" type="line"/>
      <point x="224" y="953" type="line"/>
      <point x="1026" y="953" type="line"/>
      <point x="1026" y="805" type="line"/>
    </contour>
  </outline>
</glyph>
<glyph name="greater" format="1">
  <advance width="1250"/>
  <unicode hex="003E"/>
  <outline>
    <contour>
      <point x="208" y="0" type="line"/>
      <point x="208" y="203" type="line"/>
      <point x="939" y="571" type="line"/>
      <point x="208" y="935" type="line"/>
      <point x="208" y="1144" type="line"/>
      <point x="1094" y="673" type="line"/>
      <point x="1094" y="472" type="line"/>
    </contour>
  </outline>
</glyph>
<glyph name="question" format="1">
  <advance width="1240"/>
  <unicode hex="003F"/>
  <outline>
    <contour>
      <point x="466" y="431" type="line"/>
      <point x="740" y="795" type="line" smooth="yes"/>
      <point x="825" y="909"/>
      <point x="883" y="986"/>
      <point x="883" y="1103" type="curve" smooth="yes"/>
      <point x="883" y="1222"/>
      <point x="836" y="1306"/>
      <point x="657" y="1306" type="curve" smooth="yes"/>
      <point x="441" y="1306"/>
      <point x="376" y="1225"/>
      <point x="376" y="1092" type="curve" smooth="yes"/>
      <point x="376" y="1039" type="line"/>
      <point x="179" y="1039" type="line"/>
      <point x="179" y="1071" type="line" smooth="yes"/>
      <point x="179" y="1374"/>
      <point x="316" y="1468"/>
      <point x="657" y="1468" type="curve" smooth="yes"/>
      <point x="1005" y="1468"/>
      <point x="1096" y="1277"/>
      <point x="1096" y="1114" type="curve" smooth="yes"/>
      <point x="1096" y="931"/>
      <point x="989" y="814"/>
      <point x="834" y="650" type="curve" smooth="yes"/>
      <point x="626" y="431" type="line"/>
    </contour>
    <contour>
      <point x="440" y="0" type="line"/>
      <point x="440" y="206" type="line"/>
      <point x="644" y="206" type="line"/>
      <point x="644" y="0" type="line"/>
    </contour>
  </outline>
</glyph>
<glyph name="at" format="1">
  <advance width="2048"/>
  <unicode hex="0040"/>
  <outline>
    <contour>
      <point x="1556" y="-207"/>
      <point x="1327" y="-258"/>
      <point x="1104" y="-258" type="curve" smooth="yes"/>
      <point x="566" y="-258"/>
      <point x="362" y="-3"/>
      <point x="362" y="332" type="curve" smooth="yes"/>
      <point x="362" y="895" type="line" smooth="yes"/>
      <point x="362" y="1236"/>
      <point x="521" y="1483"/>
      <point x="1062" y="1483" type="curve" smooth="yes"/>
      <point x="1671.16" y="1483"/>
      <point x="1676" y="1163.41"/>
      <point x="1676" y="972.166" type="curve" smooth="yes"/>
      <point x="1676" y="963" type="line"/>
      <point x="1676" y="516" type="line" smooth="yes"/>
      <point x="1676" y="502.857"/>
      <point x="1675.9" y="490.681"/>
      <point x="1675.9" y="479.422" type="curve" smooth="yes"/>
      <point x="1675.9" y="392.164"/>
      <point x="1682.17" y="360"/>
      <point x="1792" y="360" type="curve"/>
      <point x="1772" y="212" type="line"/>
      <point x="1732" y="212" type="line" smooth="yes"/>
      <point x="1575" y="212"/>
      <point x="1546" y="294"/>
      <point x="1521" y="376" type="curve"/>
      <point x="1468" y="296"/>
      <point x="1338" y="195"/>
      <point x="1121" y="195" type="curve" smooth="yes"/>
      <point x="870" y="195"/>
      <point x="744" y="351"/>
      <point x="744" y="533" type="curve" smooth="yes"/>
      <point x="744" y="689"/>
      <point x="811" y="790"/>
      <point x="1197" y="883" type="curve" smooth="yes"/>
      <point x="1330" y="915"/>
      <point x="1496" y="955"/>
      <point x="1497" y="955" type="curve"/>
      <point x="1497" y="1180"/>
      <point x="1461" y="1331"/>
      <point x="1062" y="1331" type="curve" smooth="yes"/>
      <point x="729" y="1331"/>
      <point x="552" y="1222"/>
      <point x="552" y="936" type="curve" smooth="yes"/>
      <point x="552" y="298" type="line" smooth="yes"/>
      <point x="552" y="13"/>
      <point x="769" y="-111"/>
      <point x="1104" y="-111" type="curve" smooth="yes"/>
      <point x="1319" y="-111"/>
      <point x="1520" y="-61"/>
      <point x="1621" y="-17" type="curve"/>
      <point x="1671" y="-158" type="line"/>
    </contour>
    <contour>
      <point x="991.138" y="691.686"/>
      <point x="946.17" y="636.081"/>
      <point x="946.17" y="538.736" type="curve" smooth="yes"/>
      <point x="946.17" y="403.596"/>
      <point x="1027.77" y="343"/>
      <point x="1153" y="343" type="curve" smooth="yes"/>
      <point x="1279" y="343"/>
      <point x="1464" y="412"/>
      <point x="1497" y="522" type="curve"/>
      <point x="1497" y="825" type="line"/>
      <point x="1479" y="816"/>
      <point x="1365" y="788"/>
      <point x="1213" y="749" type="curve" smooth="yes"/>
    </contour>
  </outline>
</glyph>
<glyph name="A" format="1">
  <advance width="1428"/>
  <unicode hex="0041"/>
  <outline>
    <contour>
      <point x="86" y="0" type="line"/>
      <point x="625" y="1446" type="line"/>
      <point x="802" y="1446" type="line"/>
      <point x="1342" y="0" type="line"/>
      <point x="1137" y="0" type="line"/>
      <point x="1039" y="282" type="line"/>
      <point x="394" y="282" type="line"/>
      <point x="295" y="0" type="line"/>
    </contour>
    <contour>
      <point x="442" y="425" type="line"/>
      <point x="993" y="425" type="line"/>
      <point x="719" y="1216" type="line"/>
    </contour>
    <contour>
      <point x="714" y="0" type="move" name="top"/>
    </contour>
    <contour>
      <point x="1285" y="10" type="move" name="ogonek"/>
    </contour>
  </outline>
</glyph>
<glyph name="B" format="1">
  <advance width="1420"/>
  <unicode hex="0042"/>
  <outline>
    <contour>
      <point x="218" y="0" type="line"/>
      <point x="218" y="1446" type="line"/>
      <point x="742" y="1446" type="line" smooth="yes"/>
      <point x="1143" y="1446"/>
      <point x="1222" y="1301"/>
      <point x="1222" y="1049" type="curve"/>
      <point x="1219" y="922"/>
      <point x="1174" y="819"/>
      <point x="1040" y="773" type="curve"/>
      <point x="1209" y="735"/>
      <point x="1292" y="595"/>
      <point x="1292" y="411" type="curve" smooth="yes"/>
      <point x="1292" y="124"/>
      <point x="1138" y="0"/>
      <point x="786" y="0" type="curve" smooth="yes"/>
    </contour>
    <contour>
      <point x="420" y="149" type="line"/>
      <point x="771" y="149" type="line" smooth="yes"/>
      <point x="995" y="149"/>
      <point x="1094" y="197"/>
      <point x="1094" y="433" type="curve" smooth="yes"/>
      <point x="1094" y="565"/>
      <point x="1041" y="696"/>
      <point x="820" y="696" type="curve" smooth="yes"/>
      <point x="420" y="696" type="line"/>
    </contour>
    <contour>
      <point x="420" y="833" type="line"/>
      <point x="791" y="833" type="line" smooth="yes"/>
      <point x="973" y="833"/>
      <point x="1021" y="917"/>
      <point x="1021" y="1047" type="curve" smooth="yes"/>
      <point x="1021" y="1256"/>
      <point x="955" y="1295"/>
      <point x="711" y="1295" type="curve" smooth="yes"/>
      <point x="420" y="1295" type="line"/>
    </contour>
  </outline>
</glyph>
<glyph name="C" format="1">
  <advance width="1456"/>
  <unicode hex="0043"/>
  <outline>
    <contour>
      <point x="1300" y="151"/>
      <point x="1226" y="-22"/>
      <point x="761" y="-22" type="curve" smooth="yes"/>
      <point x="278" y="-22"/>
      <point x="182" y="185"/>
      <point x="182" y="486" type="curve" smooth="yes"/>
      <point x="182" y="940" type="line" smooth="yes"/>
      <point x="182" y="1246"/>
      <point x="274" y="1468"/>
      <point x="759" y="1468" type="curve" smooth="yes"/>
      <point x="1203" y="1468"/>
      <point x="1300" y="1303"/>
      <point x="1300" y="997" type="curve"/>
      <point x="1109" y="980" type="line"/>
      <point x="1109" y="1267"/>
      <point x="1025" y="1306"/>
      <point x="759" y="1306" type="curve" smooth="yes"/>
      <point x="505" y="1306"/>
      <point x="384" y="1234"/>
      <point x="384" y="977" type="curve" smooth="yes"/>
      <point x="384" y="455" type="line" smooth="yes"/>
      <point x="384" y="199"/>
      <point x="509" y="140"/>
      <point x="765" y="140" type="curve" smooth="yes"/>
      <point x="1023" y="140"/>
      <point x="1109" y="167"/>
      <point x="1109" y="448" type="curve"/>
      <point x="1300" y="448" type="line"/>
    </contour>
    <contour>
      <point x="728" y="0" type="move" name="top"/>
    </contour>
    <contour>
      <point x="728" y="0" type="move" name="bottom"/>
    </contour>
  </outline>
</glyph>
<glyph name="D" format="1">
  <advance width="1522"/>
  <unicode hex="0044"/>
  <outline>
    <contour>
      <point x="420" y="150" type="line"/>
      <point x="774" y="150" type="line" smooth="yes"/>
      <point x="982" y="150"/>
      <point x="1139" y="196"/>
      <point x="1139" y="462" type="curve" smooth="yes"/>
      <point x="1139" y="971" type="line" smooth="yes"/>
      <point x="1139" y="1238"/>
      <point x="980" y="1295"/>
      <point x="774" y="1295" type="curve" smooth="yes"/>
      <point x="420" y="1295" type="line"/>
    </contour>
    <contour>
      <point x="218" y="0" type="line"/>
      <point x="218" y="1446" type="line"/>
      <point x="792" y="1446" type="line" smooth="yes"/>
      <point x="1193" y="1446"/>
      <point x="1340" y="1235"/>
      <point x="1340" y="959" type="curve" smooth="yes"/>
      <point x="1340" y="482" type="line" smooth="yes"/>
      <point x="1340" y="169"/>
      <point x="1161" y="0"/>
      <point x="794" y="0" type="curve" smooth="yes"/>
    </contour>
    <contour>
      <point x="761" y="0" type="move" name="top"/>
    </contour>
    <contour>
      <point x="761" y="0" type="move" name="center"/>
    </contour>
  </outline>
</glyph>
<glyph name="E" format="1">
  <advance width="1255"/>
  <unicode hex="0045"/>
  <outline>
    <contour>
      <point x="218" y="0" type="line"/>
      <point x="218" y="1446" type="line"/>
      <point x="1121" y="1446" type="line"/>
      <point x="1121" y="1296" type="line"/>
      <point x="419" y="1296" type="line"/>
      <point x="419" y="820" type="line"/>
      <point x="1039" y="820" type="line"/>
      <point x="1039" y="670" type="line"/>
      <point x="419" y="670" type="line"/>
      <point x="419" y="150" type="line"/>
      <point x="1133" y="150" type="line"/>
      <point x="1133" y="0" type="line"/>
    </contour>
    <contour>
      <point x="628" y="0" type="move" name="top"/>
    </contour>
    <contour>
      <point x="628" y="0" type="move" name="bottom"/>
    </contour>
    <contour>
      <point x="1129" y="10" type="move" name="ogonek"/>
    </contour>
  </outline>
</glyph>
<glyph name="F" format="1">
  <advance width="1159"/>
  <unicode hex="0046"/>
  <outline>
    <contour>
      <point x="218" y="0" type="line"/>
      <point x="218" y="1446" type="line"/>
      <point x="1039" y="1446" type="line"/>
      <point x="1039" y="1296" type="line"/>
      <point x="419" y="1296" type="line"/>
      <point x="419" y="814" type="line"/>
      <point x="1003" y="814" type="line"/>
      <point x="1003" y="664" type="line"/>
      <point x="419" y="664" type="line"/>
      <point x="419" y="0" type="line"/>
    </contour>
  </outline>
</glyph>
<glyph name="G" format="1">
  <advance width="1556"/>
  <unicode hex="0047"/>
  <outline>
    <contour>
      <point x="1201" y="89"/>
      <point x="1074" y="-22"/>
      <point x="788" y="-22" type="curve" smooth="yes"/>
      <point x="305" y="-22"/>
      <point x="186" y="185"/>
      <point x="186" y="486" type="curve" smooth="yes"/>
      <point x="186" y="940" type="line" smooth="yes"/>
      <point x="186" y="1246"/>
      <point x="303" y="1468"/>
      <point x="788" y="1468" type="curve" smooth="yes"/>
      <point x="1265" y="1468"/>
      <point x="1344" y="1285.57"/>
      <point x="1344" y="1016" type="curve"/>
      <point x="1160" y="1001" type="line"/>
      <point x="1160" y="1276.1"/>
      <point x="1068.24" y="1306"/>
      <point x="788" y="1306" type="curve" smooth="yes"/>
      <point x="534" y="1306"/>
      <point x="388" y="1234"/>
      <point x="388" y="977" type="curve" smooth="yes"/>
      <point x="388" y="455" type="line" smooth="yes"/>
      <point x="388" y="199"/>
      <point x="532" y="140"/>
      <point x="788" y="140" type="curve" smooth="yes"/>
      <point x="1046" y="140"/>
      <point x="1158" y="199"/>
      <point x="1158" y="455" type="curve" smooth="yes"/>
      <point x="1158" y="588" type="line"/>
      <point x="815" y="588" type="line"/>
      <point x="815" y="735" type="line"/>
      <point x="1360" y="735" type="line"/>
      <point x="1360" y="0" type="line"/>
      <point x="1250" y="0" type="line"/>
      <point x="1225" y="246" type="line"/>
    </contour>
    <contour>
      <point x="778" y="0" type="move" name="top"/>
    </contour>
    <contour>
      <point x="778" y="0" type="move" name="bottom"/>
    </contour>
  </outline>
</glyph>
<glyph name="H" format="1">
  <advance width="1528"/>
  <unicode hex="0048"/>
  <outline>
    <contour>
      <point x="212" y="0" type="line"/>
      <point x="212" y="1446" type="line"/>
      <point x="413" y="1446" type="line"/>
      <point x="413" y="807" type="line"/>
      <point x="1115" y="807" type="line"/>
      <point x="1115" y="1446" type="line"/>
      <point x="1316" y="1446" type="line"/>
      <point x="1316" y="0" type="line"/>
      <point x="1115" y="0" type="line"/>
      <point x="1115" y="659" type="line"/>
      <point x="413" y="659" type="line"/>
      <point x="413" y="0" type="line"/>
    </contour>
    <contour>
      <point x="764" y="0" type="move" name="top"/>
    </contour>
    <contour>
      <point x="764" y="0" type="move" name="center"/>
    </contour>
  </outline>
</glyph>
<glyph name="I" format="1">
  <advance width="1132"/>
  <unicode hex="0049"/>
  <outline>
    <contour>
      <point x="190" y="0" type="line"/>
      <point x="190" y="150" type="line"/>
      <point x="466" y="150" type="line"/>
      <point x="466" y="1297" type="line"/>
      <point x="190" y="1297" type="line"/>
      <point x="190" y="1446" type="line"/>
      <point x="942" y="1446" type="line"/>
      <point x="942" y="1297" type="line"/>
      <point x="667" y="1297" type="line"/>
      <point x="667" y="150" type="line"/>
      <point x="942" y="150" type="line"/>
      <point x="942" y="0" type="line"/>
    </contour>
    <contour>
      <point x="566" y="0" type="move" name="top"/>
    </contour>
    <contour>
      <point x="1019" y="10" type="move" name="ogonek"/>
    </contour>
  </outline>
</glyph>
<glyph name="J" format="1">
  <advance width="1206"/>
  <unicode hex="004A"/>
  <outline>
    <contour>
      <point x="988" y="157"/>
      <point x="847" y="-17"/>
      <point x="522" y="-17" type="curve" smooth="yes"/>
      <point x="354" y="-17"/>
      <point x="167" y="36"/>
      <point x="102" y="70" type="curve"/>
      <point x="157" y="225" type="line"/>
      <point x="204" y="203"/>
      <point x="370" y="148"/>
      <point x="516" y="148" type="curve" smooth="yes"/>
      <point x="707" y="148"/>
      <point x="787" y="248"/>
      <point x="787" y="435" type="curve" smooth="yes"/>
      <point x="787" y="1281" type="line"/>
      <point x="234" y="1281" type="line"/>
      <point x="234" y="1446" type="line"/>
      <point x="988" y="1446" type="line"/>
      <point x="988" y="431" type="line" smooth="yes"/>
    </contour>
    <contour>
      <point x="603" y="0" type="move" name="top"/>
    </contour>
  </outline>
</glyph>
<glyph name="K" format="1">
  <advance width="1418"/>
  <unicode hex="004B"/>
  <outline>
    <contour>
      <point x="218" y="0" type="line"/>
      <point x="218" y="1446" type="line"/>
      <point x="419" y="1446" type="line"/>
      <point x="419" y="657" type="line"/>
      <point x="641" y="927"/>
      <point x="875" y="1183"/>
      <point x="1103" y="1446" type="curve"/>
      <point x="1321" y="1446" type="line"/>
      <point x="778" y="798" type="line"/>
      <point x="1350" y="0" type="line"/>
      <point x="1127" y="0" type="line"/>
      <point x="637" y="690" type="line"/>
      <point x="419" y="468" type="line"/>
      <point x="419" y="0" type="line"/>
    </contour>
    <contour>
      <point x="709" y="0" type="move" name="top"/>
    </contour>
    <contour>
      <point x="709" y="0" type="move" name="bottom"/>
    </contour>
  </outline>
</glyph>
<glyph name="L" format="1">
  <advance width="1145"/>
  <unicode hex="004C"/>
  <outline>
    <contour>
      <point x="218" y="0" type="line"/>
      <point x="218" y="1446" type="line"/>
      <point x="419" y="1446" type="line"/>
      <point x="419" y="155" type="line"/>
      <point x="1068" y="155" type="line"/>
      <point x="1068" y="0" type="line"/>
    </contour>
    <contour>
      <point x="573" y="0" type="move" name="top"/>
    </contour>
    <contour>
      <point x="573" y="0" type="move" name="bottom"/>
    </contour>
  </outline>
</glyph>
<glyph name="M" format="1">
  <advance width="1778"/>
  <unicode hex="004D"/>
  <outline>
    <contour>
      <point x="218" y="0" type="line"/>
      <point x="218" y="1446" type="line"/>
      <point x="403" y="1446" type="line"/>
      <point x="890" y="638" type="line"/>
      <point x="1382" y="1446" type="line"/>
      <point x="1560" y="1446" type="line"/>
      <point x="1560" y="0" type="line"/>
      <point x="1370" y="0" type="line"/>
      <point x="1370" y="1121" type="line"/>
      <point x="965" y="458" type="line"/>
      <point x="816" y="458" type="line"/>
      <point x="410" y="1117" type="line"/>
      <point x="410" y="0" type="line"/>
    </contour>
  </outline>
</glyph>
<glyph name="N" format="1">
  <advance width="1594"/>
  <unicode hex="004E"/>
  <outline>
    <contour>
      <point x="218" y="0" type="line"/>
      <point x="218" y="1446" type="line"/>
      <point x="371" y="1446" type="line"/>
      <point x="1199" y="290" type="line"/>
      <point x="1199" y="1446" type="line"/>
      <point x="1376" y="1446" type="line"/>
      <point x="1376" y="0" type="line"/>
      <point x="1197" y="0" type="line"/>
      <point x="395" y="1104" type="line"/>
      <point x="395" y="0" type="line"/>
    </contour>
    <contour>
      <point x="797" y="0" type="move" name="top"/>
    </contour>
    <contour>
      <point x="797" y="0" type="move" name="bottom"/>
    </contour>
  </outline>
</glyph>
<glyph name="O" format="1">
  <advance width="1546"/>
  <unicode hex="004F"/>
  <outline>
    <contour>
      <point x="388" y="199"/>
      <point x="526" y="140"/>
      <point x="782" y="140" type="curve" smooth="yes"/>
      <point x="1040" y="140"/>
      <point x="1159" y="199"/>
      <point x="1159" y="455" type="curve" smooth="yes"/>
      <point x="1159" y="978" type="line" smooth="yes"/>
      <point x="1159" y="1235"/>
      <point x="1038" y="1306"/>
      <point x="782" y="1306" type="curve" smooth="yes"/>
      <point x="528" y="1306"/>
      <point x="388" y="1235"/>
      <point x="388" y="978" type="curve" smooth="yes"/>
      <point x="388" y="455" type="line" smooth="yes"/>
    </contour>
    <contour>
      <point x="1360" y="203"/>
      <point x="1247" y="-22"/>
      <point x="782" y="-22" type="curve" smooth="yes"/>
      <point x="299" y="-22"/>
      <point x="186" y="185"/>
      <point x="186" y="486" type="curve" smooth="yes"/>
      <point x="186" y="941" type="line" smooth="yes"/>
      <point x="186" y="1247"/>
      <point x="297" y="1468"/>
      <point x="782" y="1468" type="curve" smooth="yes"/>
      <point x="1249" y="1468"/>
      <point x="1360" y="1234"/>
      <point x="1360" y="928" type="curve" smooth="yes"/>
      <point x="1360" y="500" type="line" smooth="yes"/>
    </contour>
    <contour>
      <point x="773" y="0" type="move" name="top"/>
    </contour>
  </outline>
</glyph>
<glyph name="P" format="1">
  <advance width="1326"/>
  <unicode hex="0050"/>
  <outline>
    <contour>
      <point x="218" y="0" type="line"/>
      <point x="218" y="1446" type="line"/>
      <point x="796" y="1446" type="line" smooth="yes"/>
      <point x="1039" y="1446"/>
      <point x="1198" y="1320"/>
      <point x="1198" y="991" type="curve" smooth="yes"/>
      <point x="1198" y="645"/>
      <point x="1039" y="529"/>
      <point x="793" y="529" type="curve" smooth="yes"/>
      <point x="420" y="529" type="line"/>
      <point x="420" y="0" type="line"/>
    </contour>
    <contour>
      <point x="420" y="682" type="line"/>
      <point x="797" y="682" type="line" smooth="yes"/>
      <point x="972" y="682"/>
      <point x="996" y="828"/>
      <point x="996" y="977" type="curve" smooth="yes"/>
      <point x="996" y="1118"/>
      <point x="983" y="1293"/>
      <point x="802" y="1293" type="curve" smooth="yes"/>
      <point x="420" y="1293" type="line"/>
    </contour>
  </outline>
</glyph>
<glyph name="Q" format="1">
  <advance width="1542"/>
  <unicode hex="0051"/>
  <outline>
    <contour>
      <point x="944" y="-384" type="line"/>
      <point x="703" y="-3" type="line"/>
      <point x="883" y="2" type="line"/>
      <point x="1085" y="-308" type="line"/>
    </contour>
    <component base="O"/>
  </outline>
</glyph>
<glyph name="R" format="1">
  <advance width="1464"/>
  <unicode hex="0052"/>
  <outline>
    <contour>
      <point x="218" y="0" type="line"/>
      <point x="218" y="1446" type="line"/>
      <point x="863" y="1446" type="line" smooth="yes"/>
      <point x="1106" y="1446"/>
      <point x="1267" y="1341"/>
      <point x="1267" y="1018" type="curve" smooth="yes"/>
      <point x="1267" y="784"/>
      <point x="1184" y="687"/>
      <point x="1063" y="636" type="curve"/>
      <point x="1370" y="0" type="line"/>
      <point x="1163" y="0" type="line"/>
      <point x="876" y="600" type="line"/>
      <point x="865" y="600"/>
      <point x="420" y="599"/>
      <point x="420" y="599" type="curve"/>
      <point x="420" y="0" type="line"/>
    </contour>
    <contour>
      <point x="420" y="752" type="line"/>
      <point x="846" y="752" type="line" smooth="yes"/>
      <point x="1021" y="752"/>
      <point x="1065" y="861"/>
      <point x="1065" y="1000" type="curve" smooth="yes"/>
      <point x="1065" y="1139"/>
      <point x="1050" y="1293"/>
      <point x="869" y="1293" type="curve" smooth="yes"/>
      <point x="420" y="1293" type="line"/>
    </contour>
    <contour>
      <point x="732" y="0" type="move" name="top"/>
    </contour>
    <contour>
      <point x="732" y="0" type="move" name="bottom"/>
    </contour>
  </outline>
</glyph>
<glyph name="S" format="1">
  <advance width="1304"/>
  <unicode hex="0053"/>
  <outline>
    <contour>
      <point x="1075.51" y="717.532"/>
      <point x="1164.39" y="625.081"/>
      <point x="1164.39" y="405.635" type="curve" smooth="yes"/>
      <point x="1164.39" y="138.537"/>
      <point x="1027.25" y="-22"/>
      <point x="691" y="-22" type="curve" smooth="yes"/>
      <point x="476" y="-22"/>
      <point x="296" y="25"/>
      <point x="144" y="113" type="curve"/>
      <point x="215" y="267" type="line"/>
      <point x="325" y="202"/>
      <point x="510" y="140"/>
      <point x="687" y="140" type="curve" smooth="yes"/>
      <point x="922.263" y="140"/>
      <point x="978.077" y="228.745"/>
      <point x="978.077" y="437.363" type="curve" smooth="yes"/>
      <point x="978.077" y="518.308"/>
      <point x="948.604" y="572.904"/>
      <point x="802" y="620" type="curve"/>
      <point x="453" y="736" type="line" smooth="yes"/>
      <point x="253.401" y="801.896"/>
      <point x="171.458" y="891.506"/>
      <point x="171.458" y="1089.32" type="curve" smooth="yes"/>
      <point x="171.458" y="1366.33"/>
      <point x="378.94" y="1468"/>
      <point x="656" y="1468" type="curve" smooth="yes"/>
      <point x="903" y="1468"/>
      <point x="1048" y="1425"/>
      <point x="1141" y="1367" type="curve"/>
      <point x="1092" y="1210" type="line"/>
      <point x="1005" y="1257"/>
      <point x="879" y="1306"/>
      <point x="691" y="1306" type="curve" smooth="yes"/>
      <point x="492" y="1306"/>
      <point x="376" y="1260"/>
      <point x="368" y="1137" type="curve" smooth="yes"/>
      <point x="366.855" y="1119.11"/>
      <point x="366.12" y="1102.61"/>
      <point x="366.12" y="1087.33" type="curve" smooth="yes"/>
      <point x="366.12" y="995.866"/>
      <point x="392.469" y="948.129"/>
      <point x="515" y="907" type="curve" smooth="yes"/>
      <point x="879" y="784" type="line" smooth="yes"/>
    </contour>
    <contour>
      <point x="652" y="0" type="move" name="top"/>
    </contour>
    <contour>
      <point x="652" y="0" type="move" name="bottom"/>
    </contour>
  </outline>
</glyph>
<glyph name="T" format="1">
  <advance width="1204"/>
  <unicode hex="0054"/>
  <outline>
    <contour>
      <point x="501" y="0" type="line"/>
      <point x="501" y="1281" type="line"/>
      <point x="84" y="1281" type="line"/>
      <point x="84" y="1446" type="line"/>
      <point x="1120" y="1446" type="line"/>
      <point x="1120" y="1281" type="line"/>
      <point x="702" y="1281" type="line"/>
      <point x="702" y="0" type="line"/>
    </contour>
    <contour>
      <point x="602" y="0" type="move" name="top"/>
    </contour>
    <contour>
      <point x="602" y="0" type="move" name="bottom"/>
    </contour>
    <contour>
      <point x="602" y="0" type="move" name="center"/>
    </contour>
  </outline>
</glyph>
<glyph name="U" format="1">
  <advance width="1538"/>
  <unicode hex="0055"/>
  <outline>
    <contour>
      <point x="1338" y="205"/>
      <point x="1232" y="-22"/>
      <point x="779" y="-22" type="curve" smooth="yes"/>
      <point x="306" y="-22"/>
      <point x="200" y="202"/>
      <point x="200" y="473" type="curve" smooth="yes"/>
      <point x="200" y="1446" type="line"/>
      <point x="402" y="1446" type="line"/>
      <point x="402" y="452" type="line" smooth="yes"/>
      <point x="402" y="186"/>
      <point x="578" y="140"/>
      <point x="779" y="140" type="curve" smooth="yes"/>
      <point x="982" y="140"/>
      <point x="1136" y="186"/>
      <point x="1136" y="452" type="curve" smooth="yes"/>
      <point x="1136" y="1446" type="line"/>
      <point x="1338" y="1446" type="line"/>
      <point x="1338" y="473" type="line" smooth="yes"/>
    </contour>
    <contour>
      <point x="769" y="0" type="move" name="top"/>
    </contour>
    <contour>
      <point x="1384" y="10" type="move" name="ogonek"/>
    </contour>
  </outline>
</glyph>
<glyph name="V" format="1">
  <advance width="1386"/>
  <unicode hex="0056"/>
  <outline>
    <contour>
      <point x="602" y="0" type="line"/>
      <point x="86" y="1446" type="line"/>
      <point x="293" y="1446" type="line"/>
      <point x="692" y="294" type="line"/>
      <point x="1091" y="1446" type="line"/>
      <point x="1300" y="1446" type="line"/>
      <point x="779" y="0" type="line"/>
    </contour>
  </outline>
</glyph>
<glyph name="W" format="1">
  <advance width="2048"/>
  <unicode hex="0057"/>
  <outline>
    <contour>
      <point x="522" y="0" type="line"/>
      <point x="112" y="1446" type="line"/>
      <point x="296" y="1446" type="line"/>
      <point x="603" y="346" type="line"/>
      <point x="918" y="1446" type="line"/>
      <point x="1133" y="1446" type="line"/>
      <point x="1462" y="346" type="line"/>
      <point x="1753" y="1446" type="line"/>
      <point x="1936" y="1446" type="line"/>
      <point x="1542" y="0" type="line"/>
      <point x="1390" y="0" type="line"/>
      <point x="1037" y="1232" type="line"/>
      <point x="674" y="0" type="line"/>
    </contour>
    <contour>
      <point x="1024" y="0" type="move" name="top"/>
    </contour>
  </outline>
</glyph>
<glyph name="X" format="1">
  <advance width="1336"/>
  <unicode hex="0058"/>
  <outline>
    <contour>
      <point x="94" y="0" type="line"/>
      <point x="565" y="731" type="line"/>
      <point x="116" y="1446" type="line"/>
      <point x="319" y="1446" type="line"/>
      <point x="669" y="898" type="line"/>
      <point x="1010" y="1446" type="line"/>
      <point x="1227" y="1446" type="line"/>
      <point x="773" y="734" type="line"/>
      <point x="1242" y="0" type="line"/>
      <point x="1024" y="0" type="line"/>
      <point x="667" y="568" type="line"/>
      <point x="306" y="0" type="line"/>
    </contour>
  </outline>
</glyph>
<glyph name="Y" format="1">
  <advance width="1318"/>
  <unicode hex="0059"/>
  <outline>
    <contour>
      <point x="560" y="0" type="line"/>
      <point x="560" y="568" type="line"/>
      <point x="48" y="1446" type="line"/>
      <point x="261" y="1446" type="line"/>
      <point x="661" y="744" type="line"/>
      <point x="1063" y="1446" type="line"/>
      <point x="1270" y="1446" type="line"/>
      <point x="761" y="568" type="line"/>
      <point x="761" y="0" type="line"/>
    </contour>
    <contour>
      <point x="659" y="0" type="move" name="top"/>
    </contour>
  </outline>
</glyph>
<glyph name="Z" format="1">
  <advance width="1242"/>
  <unicode hex="005A"/>
  <outline>
    <contour>
      <point x="180" y="0" type="line"/>
      <point x="180" y="150" type="line"/>
      <point x="862" y="1281" type="line"/>
      <point x="211" y="1281" type="line"/>
      <point x="211" y="1446" type="line"/>
      <point x="1083" y="1446" type="line"/>
      <point x="1083" y="1295" type="line"/>
      <point x="402" y="165" type="line"/>
      <point x="1096" y="165" type="line"/>
      <point x="1096" y="0" type="line"/>
    </contour>
    <contour>
      <point x="621" y="0" type="move" name="top"/>
    </contour>
  </outline>
</glyph>
<glyph name="bracketleft" format="1">
  <advance width="768"/>
  <unicode hex="005B"/>
  <outline>
    <contour>
      <point x="256" y="-76" type="line"/>
      <point x="256" y="1529" type="line"/>
      <point x="634" y="1529" type="line"/>
      <point x="634" y="1396" type="line"/>
      <point x="444" y="1396" type="line"/>
      <point x="444" y="58" type="line"/>
      <point x="634" y="58" type="line"/>
      <point x="634" y="-76" type="line"/>
    </contour>
  </outline>
</glyph>
<glyph name="backslash" format="1">
  <advance width="768"/>
  <unicode hex="005C"/>
  <outline>
    <contour>
      <point x="521" y="0" type="line"/>
      <point x="64" y="1506" type="line"/>
      <point x="251" y="1506" type="line"/>
      <point x="704" y="0" type="line"/>
    </contour>
  </outline>
</glyph>
<glyph name="bracketright" format="1">
  <advance width="768"/>
  <unicode hex="005D"/>
  <outline>
    <contour>
      <point x="195" y="-76" type="line"/>
      <point x="195" y="57" type="line"/>
      <point x="385" y="57" type="line"/>
      <point x="385" y="1395" type="line"/>
      <point x="195" y="1395" type="line"/>
      <point x="195" y="1529" type="line"/>
      <point x="573" y="1529" type="line"/>
      <point x="573" y="-76" type="line"/>
    </contour>
  </outline>
</glyph>
<glyph name="asciicircum" format="1">
  <advance width="1257"/>
  <unicode hex="005E"/>
  <outline>
    <contour>
      <point x="154" y="626" type="line"/>
      <point x="513" y="1283" type="line"/>
      <point x="735" y="1283" type="line"/>
      <point x="1103" y="626" type="line"/>
      <point x="910" y="626" type="line"/>
      <point x="628" y="1161" type="line"/>
      <point x="348" y="626" type="line"/>
    </contour>
  </outline>
</glyph>
<glyph name="underscore" format="1">
  <advance width="929"/>
  <unicode hex="005F"/>
  <outline>
    <contour>
      <point x="14" y="-104" type="line"/>
      <point x="14" y="46" type="line"/>
      <point x="915" y="46" type="line"/>
      <point x="915" y="-104" type="line"/>
    </contour>
  </outline>
</glyph>
<glyph name="grave" format="1">
  <advance width="616"/>
  <unicode hex="0060"/>
  <outline>
    <contour>
      <point x="372" y="1165" type="line"/>
      <point x="115" y="1506" type="line"/>
      <point x="340" y="1506" type="line"/>
      <point x="478" y="1165" type="line"/>
    </contour>
    <contour>
      <point x="296.5" y="0" type="move" name="_top"/>
    </contour>
  </outline>
</glyph>
<glyph name="a" format="1">
  <advance width="1172"/>
  <unicode hex="0061"/>
  <outline>
    <contour>
      <point x="749" y="78"/>
      <point x="666" y="-22"/>
      <point x="471" y="-22" type="curve" smooth="yes"/>
      <point x="246" y="-22"/>
      <point x="132" y="120"/>
      <point x="132" y="283" type="curve" smooth="yes"/>
      <point x="132" y="423"/>
      <point x="201" y="499"/>
      <point x="539" y="597" type="curve" smooth="yes"/>
      <point x="714.591" y="647.749"/>
      <point x="781.029" y="669.459"/>
      <point x="781.029" y="781.025" type="curve" smooth="yes"/>
      <point x="781.029" y="866.724"/>
      <point x="754.714" y="936"/>
      <point x="586" y="936" type="curve" smooth="yes"/>
      <point x="373" y="936"/>
      <point x="355" y="863"/>
      <point x="355" y="778" type="curve" smooth="yes"/>
      <point x="355" y="731" type="line"/>
      <point x="174" y="731" type="line"/>
      <point x="174" y="779" type="line" smooth="yes"/>
      <point x="174" y="988"/>
      <point x="314" y="1080"/>
      <point x="592" y="1080" type="curve" smooth="yes"/>
      <point x="872" y="1080"/>
      <point x="969" y="938"/>
      <point x="969" y="720" type="curve" smooth="yes"/>
      <point x="969" y="268" type="line" smooth="yes"/>
      <point x="969" y="156"/>
      <point x="989" y="136"/>
      <point x="1080" y="136" type="curve"/>
      <point x="1058" y="-8" type="line"/>
      <point x="1020" y="-8" type="line" smooth="yes"/>
      <point x="879" y="-8"/>
      <point x="828" y="50"/>
      <point x="796" y="150" type="curve"/>
    </contour>
    <contour>
      <point x="388.279" y="416.832"/>
      <point x="313.663" y="371.516"/>
      <point x="313.663" y="277.21" type="curve" smooth="yes"/>
      <point x="313.663" y="162.911"/>
      <point x="394.175" y="120"/>
      <point x="500" y="120" type="curve" smooth="yes"/>
      <point x="613" y="120"/>
      <point x="751" y="179"/>
      <point x="781" y="277" type="curve"/>
      <point x="781" y="583" type="line"/>
      <point x="752" y="554"/>
      <point x="684" y="503"/>
      <point x="550" y="464" type="curve" smooth="yes"/>
    </contour>
    <contour>
      <point x="586" y="0" type="move" name="top"/>
    </contour>
    <contour>
      <point x="1055" y="10" type="move" name="ogonek"/>
    </contour>
  </outline>
</glyph>
<glyph name="b" format="1">
  <advance width="1204"/>
  <unicode hex="0062"/>
  <outline>
    <contour>
      <point x="1056" y="139"/>
      <point x="902" y="-22"/>
      <point x="626" y="-22" type="curve" smooth="yes"/>
      <point x="500" y="-22"/>
      <point x="405" y="36"/>
      <point x="349" y="71" type="curve"/>
      <point x="325" y="0" type="line"/>
      <point x="186" y="0" type="line"/>
      <point x="186" y="1506" type="line"/>
      <point x="374" y="1506" type="line"/>
      <point x="374" y="1010" type="line"/>
      <point x="442" y="1049"/>
      <point x="551" y="1080"/>
      <point x="650" y="1080" type="curve" smooth="yes"/>
      <point x="921" y="1080"/>
      <point x="1056" y="940"/>
      <point x="1056" y="736" type="curve" smooth="yes"/>
      <point x="1056" y="352" type="line" smooth="yes"/>
    </contour>
    <contour>
      <point x="429" y="157"/>
      <point x="509" y="126"/>
      <point x="598" y="126" type="curve" smooth="yes"/>
      <point x="746" y="126"/>
      <point x="868" y="202"/>
      <point x="868" y="332" type="curve" smooth="yes"/>
      <point x="868" y="750" type="line" smooth="yes"/>
      <point x="868" y="877"/>
      <point x="779" y="936"/>
      <point x="641" y="936" type="curve" smooth="yes"/>
      <point x="553" y="936"/>
      <point x="444" y="902"/>
      <point x="374" y="870" type="curve"/>
      <point x="374" y="188" type="line"/>
    </contour>
  </outline>
</glyph>
<glyph name="c" format="1">
  <advance width="1110"/>
  <unicode hex="0063"/>
  <outline>
    <contour>
      <point x="969" y="66"/>
      <point x="867" y="-22"/>
      <point x="579" y="-22" type="curve" smooth="yes"/>
      <point x="263" y="-22"/>
      <point x="148" y="148"/>
      <point x="148" y="344" type="curve" smooth="yes"/>
      <point x="148" y="748" type="line" smooth="yes"/>
      <point x="148" y="948"/>
      <point x="311" y="1080"/>
      <point x="574" y="1080" type="curve" smooth="yes"/>
      <point x="828" y="1080"/>
      <point x="992" y="1009"/>
      <point x="992" y="724" type="curve"/>
      <point x="813" y="707" type="line"/>
      <point x="812" y="901"/>
      <point x="755" y="936"/>
      <point x="579" y="936" type="curve" smooth="yes"/>
      <point x="417" y="936"/>
      <point x="336" y="884"/>
      <point x="336" y="743" type="curve" smooth="yes"/>
      <point x="336" y="328" type="line" smooth="yes"/>
      <point x="336" y="176"/>
      <point x="427" y="122"/>
      <point x="579" y="122" type="curve" smooth="yes"/>
      <point x="765" y="122"/>
      <point x="802" y="150"/>
      <point x="816" y="310" type="curve"/>
      <point x="990" y="310" type="line"/>
    </contour>
    <contour>
      <point x="555" y="0" type="move" name="top"/>
    </contour>
    <contour>
      <point x="555" y="0" type="move" name="bottom"/>
    </contour>
  </outline>
</glyph>
<glyph name="d" format="1">
  <advance width="1200"/>
  <unicode hex="0064"/>
  <outline>
    <contour>
      <point x="793" y="22"/>
      <point x="677" y="-22"/>
      <point x="568" y="-22" type="curve" smooth="yes"/>
      <point x="263" y="-22"/>
      <point x="148" y="131"/>
      <point x="148" y="335" type="curve" smooth="yes"/>
      <point x="148" y="735" type="line" smooth="yes"/>
      <point x="148" y="948"/>
      <point x="283" y="1080"/>
      <point x="591" y="1080" type="curve" smooth="yes"/>
      <point x="658" y="1080"/>
      <point x="760" y="1064"/>
      <point x="826" y="1040" type="curve"/>
      <point x="826" y="1506" type="line"/>
      <point x="1014" y="1506" type="line"/>
      <point x="1014" y="0" type="line"/>
      <point x="886" y="0" type="line"/>
      <point x="855" y="70" type="line"/>
    </contour>
    <contour>
      <point x="336" y="189"/>
      <point x="442" y="126"/>
      <point x="580" y="126" type="curve" smooth="yes"/>
      <point x="687" y="126"/>
      <point x="783" y="163"/>
      <point x="826" y="189" type="curve"/>
      <point x="826" y="892" type="line"/>
      <point x="770" y="919"/>
      <point x="681" y="936"/>
      <point x="593" y="936" type="curve" smooth="yes"/>
      <point x="445" y="936"/>
      <point x="336" y="886"/>
      <point x="336" y="756" type="curve" smooth="yes"/>
      <point x="336" y="321" type="line" smooth="yes"/>
    </contour>
    <contour>
      <point x="600" y="0" type="move" name="center"/>
    </contour>
  </outline>
</glyph>
<glyph name="e" format="1">
  <advance width="1158"/>
  <unicode hex="0065"/>
  <outline>
    <contour>
      <point x="978" y="32"/>
      <point x="883" y="-22"/>
      <point x="589" y="-22" type="curve" smooth="yes"/>
      <point x="273" y="-22"/>
      <point x="148" y="110"/>
      <point x="148" y="374" type="curve" smooth="yes"/>
      <point x="148" y="743" type="line" smooth="yes"/>
      <point x="148" y="943"/>
      <point x="278" y="1080"/>
      <point x="582" y="1080" type="curve" smooth="yes"/>
      <point x="873" y="1080"/>
      <point x="1006" y="959"/>
      <point x="1006" y="758" type="curve" smooth="yes"/>
      <point x="1006" y="506" type="line"/>
      <point x="336" y="506" type="line"/>
      <point x="336" y="357" type="line" smooth="yes"/>
      <point x="336" y="185"/>
      <point x="389" y="122"/>
      <point x="589" y="122" type="curve" smooth="yes"/>
      <point x="766" y="122"/>
      <point x="822" y="122"/>
      <point x="838" y="282" type="curve"/>
      <point x="1004" y="282" type="line"/>
    </contour>
    <contour>
      <point x="336" y="633" type="line"/>
      <point x="824" y="633" type="line"/>
      <point x="824" y="778" type="line" smooth="yes"/>
      <point x="824" y="906"/>
      <point x="727" y="936"/>
      <point x="582" y="936" type="curve" smooth="yes"/>
      <point x="432" y="936"/>
      <point x="336" y="891"/>
      <point x="336" y="760" type="curve" smooth="yes"/>
    </contour>
    <contour>
      <point x="579" y="0" type="move" name="top"/>
    </contour>
    <contour>
      <point x="579" y="0" type="move" name="bottom"/>
    </contour>
    <contour>
      <point x="1042" y="10" type="move" name="ogonek"/>
    </contour>
  </outline>
</glyph>
<glyph name="f" format="1">
  <advance width="790"/>
  <unicode hex="0066"/>
  <outline>
    <contour>
      <point x="287" y="0" type="line"/>
      <point x="287" y="918" type="line"/>
      <point x="110" y="918" type="line"/>
      <point x="110" y="1060" type="line"/>
      <point x="287" y="1060" type="line"/>
      <point x="287" y="1221" type="line" smooth="yes"/>
      <point x="287" y="1419"/>
      <point x="395" y="1505"/>
      <point x="613" y="1505" type="curve" smooth="yes"/>
      <point x="732" y="1505" type="line"/>
      <point x="744" y="1372" type="line"/>
      <point x="628" y="1372" type="line" smooth="yes"/>
      <point x="513" y="1372"/>
      <point x="475" y="1315"/>
      <point x="475" y="1239" type="curve" smooth="yes"/>
      <point x="475" y="1060" type="line"/>
      <point x="732" y="1060" type="line"/>
      <point x="732" y="918" type="line"/>
      <point x="475" y="918" type="line"/>
      <point x="475" y="0" type="line"/>
    </contour>
  </outline>
</glyph>
<glyph name="g" format="1">
  <advance width="1186"/>
  <unicode hex="0067"/>
  <outline>
    <contour>
      <point x="352.626" y="-248.277"/>
      <point x="464.483" y="-264.838"/>
      <point x="564.376" y="-264.838" type="curve" smooth="yes"/>
      <point x="748.874" y="-264.838"/>
      <point x="822" y="-188.411"/>
      <point x="822" y="-31" type="curve" smooth="yes"/>
      <point x="822" y="116" type="line"/>
      <point x="762" y="60"/>
      <point x="623" y="40"/>
      <point x="550" y="40" type="curve" smooth="yes"/>
      <point x="279" y="40"/>
      <point x="148" y="159"/>
      <point x="148" y="379" type="curve" smooth="yes"/>
      <point x="148" y="728" type="line" smooth="yes"/>
      <point x="148" y="941"/>
      <point x="274" y="1080"/>
      <point x="550" y="1080" type="curve" smooth="yes"/>
      <point x="658" y="1080"/>
      <point x="792" y="1025"/>
      <point x="822" y="975" type="curve"/>
      <point x="822" y="1060" type="line"/>
      <point x="1010" y="1060" type="line"/>
      <point x="1010" y="25" type="line" smooth="yes"/>
      <point x="1010" y="-223"/>
      <point x="883" y="-408"/>
      <point x="603" y="-408" type="curve" smooth="yes"/>
      <point x="460" y="-408"/>
      <point x="331" y="-397"/>
      <point x="253" y="-368" type="curve"/>
      <point x="295" y="-227" type="line"/>
    </contour>
    <contour>
      <point x="336" y="223"/>
      <point x="441" y="184"/>
      <point x="579" y="184" type="curve" smooth="yes"/>
      <point x="719" y="184"/>
      <point x="792" y="240"/>
      <point x="822" y="264" type="curve"/>
      <point x="822" y="790" type="line" smooth="yes"/>
      <point x="822" y="882"/>
      <point x="745" y="936"/>
      <point x="578" y="936" type="curve" smooth="yes"/>
      <point x="430" y="936"/>
      <point x="336" y="878"/>
      <point x="336" y="748" type="curve" smooth="yes"/>
      <point x="336" y="350" type="line" smooth="yes"/>
    </contour>
    <contour>
      <point x="593" y="0" type="move" name="top"/>
    </contour>
  </outline>
</glyph>
<glyph name="h" format="1">
  <advance width="1226"/>
  <unicode hex="0068"/>
  <outline>
    <contour>
      <point x="186" y="0" type="line"/>
      <point x="186" y="1505" type="line"/>
      <point x="374" y="1505" type="line"/>
      <point x="374" y="960" type="line"/>
      <point x="436" y="1032"/>
      <point x="536" y="1080"/>
      <point x="690" y="1080" type="curve" smooth="yes"/>
      <point x="951" y="1080"/>
      <point x="1050" y="941"/>
      <point x="1050" y="773" type="curve" smooth="yes"/>
      <point x="1050" y="0" type="line"/>
      <point x="862" y="0" type="line"/>
      <point x="862" y="783" type="line" smooth="yes"/>
      <point x="862" y="888"/>
      <point x="773" y="936"/>
      <point x="642" y="936" type="curve" smooth="yes"/>
      <point x="458" y="936"/>
      <point x="374" y="860"/>
      <point x="374" y="758" type="curve" smooth="yes"/>
      <point x="374" y="0" type="line"/>
    </contour>
    <contour>
      <point x="613" y="0" type="move" name="top"/>
    </contour>
    <contour>
      <point x="613" y="0" type="move" name="center"/>
    </contour>
  </outline>
</glyph>
<glyph name="i" format="1">
  <advance width="596"/>
  <unicode hex="0069"/>
  <outline>
    <contour>
      <point x="206" y="0" type="line"/>
      <point x="206" y="1060" type="line"/>
      <point x="394" y="1060" type="line"/>
      <point x="394" y="0" type="line"/>
    </contour>
    <contour>
      <point x="206" y="1251" type="line"/>
      <point x="206" y="1446" type="line"/>
      <point x="394" y="1446" type="line"/>
      <point x="394" y="1251" type="line"/>
    </contour>
  </outline>
</glyph>
<glyph name="k" format="1">
  <advance width="1152"/>
  <unicode hex="006B"/>
  <outline>
    <contour>
      <point x="186" y="0" type="line"/>
      <point x="186" y="1506" type="line"/>
      <point x="374" y="1506" type="line"/>
      <point x="374" y="524" type="line"/>
      <point x="881" y="1060" type="line"/>
      <point x="1087" y="1060" type="line"/>
      <point x="656" y="594" type="line"/>
      <point x="1130" y="0" type="line"/>
      <point x="913" y="0" type="line"/>
      <point x="533" y="492" type="line"/>
      <point x="374" y="334" type="line"/>
      <point x="374" y="0" type="line"/>
    </contour>
    <contour>
      <point x="576" y="0" type="move" name="bottom"/>
    </contour>
  </outline>
</glyph>
<glyph name="l" format="1">
  <advance width="696"/>
  <unicode hex="006C"/>
  <outline>
    <contour>
      <point x="530" y="-8" type="line" smooth="yes"/>
      <point x="298" y="-8"/>
      <point x="190" y="49"/>
      <point x="190" y="358" type="curve" smooth="yes"/>
      <point x="190" y="1505" type="line"/>
      <point x="378" y="1505" type="line"/>
      <point x="378" y="356" type="line" smooth="yes"/>
      <point x="378" y="183"/>
      <point x="416" y="150"/>
      <point x="573" y="150" type="curve" smooth="yes"/>
      <point x="606" y="150" type="line"/>
      <point x="584" y="-8" type="line"/>
    </contour>
    <contour>
      <point x="348" y="0" type="move" name="top"/>
    </contour>
    <contour>
      <point x="348" y="0" type="move" name="bottom"/>
    </contour>
    <contour>
      <point x="676" y="0" type="move" name="topright"/>
    </contour>
  </outline>
</glyph>
<glyph name="m" format="1">
  <advance width="1860"/>
  <unicode hex="006D"/>
  <outline>
    <contour>
      <point x="186" y="0" type="line"/>
      <point x="186" y="1060" type="line"/>
      <point x="374" y="1060" type="line"/>
      <point x="374" y="957" type="line"/>
      <point x="436" y="1029"/>
      <point x="524" y="1080"/>
      <point x="678" y="1080" type="curve" smooth="yes"/>
      <point x="842" y="1080"/>
      <point x="939" y="1024"/>
      <point x="989" y="941" type="curve"/>
      <point x="1014" y="965" type="line"/>
      <point x="1081" y="1032"/>
      <point x="1182" y="1080"/>
      <point x="1336" y="1080" type="curve" smooth="yes"/>
      <point x="1597" y="1080"/>
      <point x="1684" y="938"/>
      <point x="1684" y="770" type="curve" smooth="yes"/>
      <point x="1684" y="0" type="line"/>
      <point x="1496" y="0" type="line"/>
      <point x="1496" y="781" type="line" smooth="yes"/>
      <point x="1496" y="886"/>
      <point x="1419" y="936"/>
      <point x="1288" y="936" type="curve" smooth="yes"/>
      <point x="1104" y="936"/>
      <point x="1032" y="857"/>
      <point x="1032" y="755" type="curve" smooth="yes"/>
      <point x="1032" y="0" type="line"/>
      <point x="844" y="0" type="line"/>
      <point x="844" y="781" type="line" smooth="yes"/>
      <point x="844" y="886"/>
      <point x="761" y="936"/>
      <point x="630" y="936" type="curve" smooth="yes"/>
      <point x="446" y="936"/>
      <point x="374" y="857"/>
      <point x="374" y="755" type="curve" smooth="yes"/>
      <point x="374" y="0" type="line"/>
    </contour>
  </outline>
</glyph>
<glyph name="n" format="1">
  <advance width="1226"/>
  <unicode hex="006E"/>
  <outline>
    <contour>
      <point x="186" y="0" type="line"/>
      <point x="186" y="1060" type="line"/>
      <point x="374" y="1060" type="line"/>
      <point x="374" y="957" type="line"/>
      <point x="436" y="1029"/>
      <point x="534" y="1080"/>
      <point x="688" y="1080" type="curve" smooth="yes"/>
      <point x="949" y="1080"/>
      <point x="1050" y="938"/>
      <point x="1050" y="770" type="curve" smooth="yes"/>
      <point x="1050" y="0" type="line"/>
      <point x="862" y="0" type="line"/>
      <point x="862" y="781" type="line" smooth="yes"/>
      <point x="862" y="886"/>
      <point x="771" y="936"/>
      <point x="640" y="936" type="curve" smooth="yes"/>
      <point x="456" y="936"/>
      <point x="374" y="857"/>
      <point x="374" y="755" type="curve" smooth="yes"/>
      <point x="374" y="0" type="line"/>
    </contour>
    <contour>
      <point x="613" y="0" type="move" name="top"/>
    </contour>
    <contour>
      <point x="613" y="0" type="move" name="bottom"/>
    </contour>
  </outline>
</glyph>
<glyph name="o" format="1">
  <advance width="1174"/>
  <unicode hex="006F"/>
  <outline>
    <contour>
      <point x="336" y="168"/>
      <point x="437" y="122"/>
      <point x="587" y="122" type="curve" smooth="yes"/>
      <point x="734" y="122"/>
      <point x="838" y="168"/>
      <point x="838" y="299" type="curve" smooth="yes"/>
      <point x="838" y="758" type="line" smooth="yes"/>
      <point x="838" y="889"/>
      <point x="734" y="936"/>
      <point x="587" y="936" type="curve" smooth="yes"/>
      <point x="437" y="936"/>
      <point x="336" y="889"/>
      <point x="336" y="758" type="curve" smooth="yes"/>
      <point x="336" y="299" type="line" smooth="yes"/>
    </contour>
    <contour>
      <point x="1026" y="119"/>
      <point x="903" y="-22"/>
      <point x="587" y="-22" type="curve" smooth="yes"/>
      <point x="268" y="-22"/>
      <point x="148" y="119"/>
      <point x="148" y="315" type="curve" smooth="yes"/>
      <point x="148" y="742" type="line" smooth="yes"/>
      <point x="148" y="938"/>
      <point x="268" y="1080"/>
      <point x="587" y="1080" type="curve" smooth="yes"/>
      <point x="903" y="1080"/>
      <point x="1026" y="938"/>
      <point x="1026" y="742" type="curve" smooth="yes"/>
      <point x="1026" y="315" type="line" smooth="yes"/>
    </contour>
    <contour>
      <point x="587" y="0" type="move" name="top"/>
    </contour>
  </outline>
</glyph>
<glyph name="p" format="1">
  <advance width="1198"/>
  <unicode hex="0070"/>
  <outline>
    <contour>
      <point x="186" y="-408" type="line"/>
      <point x="186" y="1060" type="line"/>
      <point x="334" y="1060" type="line"/>
      <point x="356" y="980" type="line"/>
      <point x="412" y="1030"/>
      <point x="527" y="1080"/>
      <point x="648" y="1080" type="curve" smooth="yes"/>
      <point x="919" y="1080"/>
      <point x="1050" y="933"/>
      <point x="1050" y="729" type="curve" smooth="yes"/>
      <point x="1050" y="344" type="line" smooth="yes"/>
      <point x="1050" y="131"/>
      <point x="900" y="-22"/>
      <point x="624" y="-22" type="curve" smooth="yes"/>
      <point x="505" y="-22"/>
      <point x="425" y="8"/>
      <point x="374" y="34" type="curve"/>
      <point x="374" y="-408" type="line"/>
    </contour>
    <contour>
      <point x="422" y="152"/>
      <point x="503" y="122"/>
      <point x="612" y="122" type="curve" smooth="yes"/>
      <point x="760" y="122"/>
      <point x="862" y="194"/>
      <point x="862" y="324" type="curve" smooth="yes"/>
      <point x="862" y="744" type="line" smooth="yes"/>
      <point x="862" y="871"/>
      <point x="757" y="936"/>
      <point x="619" y="936" type="curve" smooth="yes"/>
      <point x="486" y="936"/>
      <point x="391" y="850"/>
      <point x="374" y="824" type="curve"/>
      <point x="374" y="179" type="line"/>
    </contour>
  </outline>
</glyph>
<glyph name="q" format="1">
  <advance width="1200"/>
  <unicode hex="0071"/>
  <outline>
    <contour>
      <point x="826" y="-408" type="line"/>
      <point x="826" y="47" type="line"/>
      <point x="761" y="-3"/>
      <point x="646" y="-22"/>
      <point x="573" y="-22" type="curve" smooth="yes"/>
      <point x="302" y="-22"/>
      <point x="148" y="110"/>
      <point x="148" y="314" type="curve" smooth="yes"/>
      <point x="148" y="728" type="line" smooth="yes"/>
      <point x="148" y="941"/>
      <point x="284" y="1080"/>
      <point x="560" y="1080" type="curve" smooth="yes"/>
      <point x="668" y="1080"/>
      <point x="796" y="1025"/>
      <point x="826" y="975" type="curve"/>
      <point x="826" y="1060" type="line"/>
      <point x="1014" y="1060" type="line"/>
      <point x="1014" y="-408" type="line"/>
    </contour>
    <contour>
      <point x="336" y="157"/>
      <point x="447" y="122"/>
      <point x="585" y="122" type="curve" smooth="yes"/>
      <point x="725" y="122"/>
      <point x="816" y="180"/>
      <point x="826" y="201" type="curve"/>
      <point x="826" y="810" type="line" smooth="yes"/>
      <point x="826" y="869"/>
      <point x="755" y="936"/>
      <point x="588" y="936" type="curve" smooth="yes"/>
      <point x="440" y="936"/>
      <point x="336" y="878"/>
      <point x="336" y="748" type="curve" smooth="yes"/>
      <point x="336" y="284" type="line" smooth="yes"/>
    </contour>
  </outline>
</glyph>
<glyph name="r" format="1">
  <advance width="794"/>
  <unicode hex="0072"/>
  <outline>
    <contour>
      <point x="186" y="0" type="line"/>
      <point x="186" y="1060" type="line"/>
      <point x="374" y="1060" type="line"/>
      <point x="374" y="910" type="line"/>
      <point x="425" y="1047"/>
      <point x="652" y="1075"/>
      <point x="742" y="1075" type="curve"/>
      <point x="736" y="914" type="line"/>
      <point x="555" y="914"/>
      <point x="374" y="828"/>
      <point x="374" y="742" type="curve" smooth="yes"/>
      <point x="374" y="0" type="line"/>
    </contour>
    <contour>
      <point x="397" y="0" type="move" name="top"/>
    </contour>
    <contour>
      <point x="397" y="0" type="move" name="bottom"/>
    </contour>
  </outline>
</glyph>
<glyph name="s" format="1">
  <advance width="992"/>
  <unicode hex="0073"/>
  <outline>
    <contour>
      <point x="746.0" y="903.0"/>
      <point x="617.0" y="936.0"/>
      <point x="528.0" y="936.0" type="curve" smooth="yes"/>
      <point x="355.955" y="936.0"/>
      <point x="323.84" y="894.997"/>
      <point x="323.84" y="798.778" type="curve" smooth="yes"/>
      <point x="323.84" y="733.278"/>
      <point x="342.026" y="708.588"/>
      <point x="415.0" y="683.0" type="curve"/>
      <point x="664.0" y="585.0" type="line" smooth="yes"/>
      <point x="842.0" y="515.0"/>
      <point x="876.0" y="448.0"/>
      <point x="876.0" y="283.0" type="curve" smooth="yes"/>
      <point x="876.0" y="116.0"/>
      <point x="780.0" y="-22.0"/>
      <point x="528.0" y="-22.0" type="curve" smooth="yes"/>
      <point x="330.0" y="-22.0"/>
      <point x="190.0" y="37.0"/>
      <point x="142.0" y="64.0" type="curve"/>
      <point x="188.0" y="202.0" type="line"/>
      <point x="235.0" y="176.0"/>
      <point x="359.0" y="122.0"/>
      <point x="503.0" y="122.0" type="curve" smooth="yes"/>
      <point x="670.0" y="122.0"/>
      <point x="716.0" y="192.0"/>
      <point x="716.0" y="281.0" type="curve" smooth="yes"/>
      <point x="716.0" y="363.0"/>
      <point x="708.0" y="406.0"/>
      <point x="608.0" y="443.0" type="curve" smooth="yes"/>
      <point x="356.0" y="536.0" type="line"/>
      <point x="200.923" y="590.462"/>
      <point x="148.947" y="657.704"/>
      <point x="148.947" y="790.425" type="curve" smooth="yes"/>
      <point x="148.947" y="969.157"/>
      <point x="230.781" y="1080.0"/>
      <point x="493.0" y="1080.0" type="curve" smooth="yes"/>
      <point x="642.0" y="1080.0"/>
      <point x="772.0" y="1053.0"/>
      <point x="850.0" y="1022.0" type="curve"/>
      <point x="807.0" y="878.0" type="line"/>
    </contour>
    <contour>
      <point x="496.0" y="0.0" type="move" name="top"/>
    </contour>
    <contour>
      <point x="496.0" y="0.0" type="move" name="bottom"/>
    </contour>
  </outline>
</glyph>
<glyph name="t" format="1">
  <advance width="840"/>
  <unicode hex="0074"/>
  <outline>
    <contour>
      <point x="676" y="-8" type="line" smooth="yes"/>
      <point x="386" y="-8"/>
      <point x="257" y="70"/>
      <point x="257" y="303" type="curve" smooth="yes"/>
      <point x="257" y="918" type="line"/>
      <point x="80" y="918" type="line"/>
      <point x="80" y="1060" type="line"/>
      <point x="264" y="1060" type="line"/>
      <point x="287" y="1388" type="line"/>
      <point x="445" y="1388" type="line"/>
      <point x="445" y="1060" type="line"/>
      <point x="711" y="1060" type="line"/>
      <point x="711" y="918" type="line"/>
      <point x="445" y="918" type="line"/>
      <point x="445" y="315" type="line" smooth="yes"/>
      <point x="445" y="175"/>
      <point x="524" y="150"/>
      <point x="703" y="150" type="curve" smooth="yes"/>
      <point x="724" y="150" type="line"/>
      <point x="704" y="-8" type="line"/>
    </contour>
    <contour>
      <point x="420" y="0" type="move" name="center"/>
    </contour>
    <contour>
      <point x="420" y="0" type="move" name="bottom"/>
    </contour>
  </outline>
</glyph>
<glyph name="u" format="1">
  <advance width="1224"/>
  <unicode hex="0075"/>
  <outline>
    <contour>
      <point x="796" y="38"/>
      <point x="695" y="-22"/>
      <point x="541" y="-22" type="curve" smooth="yes"/>
      <point x="280" y="-22"/>
      <point x="176" y="122"/>
      <point x="176" y="290" type="curve" smooth="yes"/>
      <point x="176" y="1060" type="line"/>
      <point x="364" y="1060" type="line"/>
      <point x="364" y="289" type="line" smooth="yes"/>
      <point x="364" y="184"/>
      <point x="447" y="122"/>
      <point x="578" y="122" type="curve" smooth="yes"/>
      <point x="762" y="122"/>
      <point x="850" y="220"/>
      <point x="850" y="309" type="curve" smooth="yes"/>
      <point x="850" y="1060" type="line"/>
      <point x="1038" y="1060" type="line"/>
      <point x="1038" y="0" type="line"/>
      <point x="870" y="0" type="line"/>
      <point x="850" y="133" type="line"/>
    </contour>
    <contour>
      <point x="612" y="0" type="move" name="top"/>
    </contour>
    <contour>
      <point x="1102" y="10" type="move" name="ogonek"/>
    </contour>
  </outline>
</glyph>
<glyph name="v" format="1">
  <advance width="1104"/>
  <unicode hex="0076"/>
  <outline>
    <contour>
      <point x="475" y="0" type="line"/>
      <point x="64" y="1060" type="line"/>
      <point x="253" y="1060" type="line"/>
      <point x="572" y="200" type="line"/>
      <point x="856" y="1060" type="line"/>
      <point x="1040" y="1060" type="line"/>
      <point x="665" y="0" type="line"/>
    </contour>
  </outline>
</glyph>
<glyph name="w" format="1">
  <advance width="1614"/>
  <unicode hex="0077"/>
  <outline>
    <contour>
      <point x="357" y="0" type="line"/>
      <point x="52" y="1060" type="line"/>
      <point x="224" y="1060" type="line"/>
      <point x="459" y="228" type="line"/>
      <point x="714" y="1060" type="line"/>
      <point x="895" y="1060" type="line"/>
      <point x="1161" y="228" type="line"/>
      <point x="1388" y="1060" type="line"/>
      <point x="1562" y="1060" type="line"/>
      <point x="1252" y="0" type="line"/>
      <point x="1077" y="0" type="line"/>
      <point x="806" y="845" type="line"/>
      <point x="535" y="0" type="line"/>
    </contour>
    <contour>
      <point x="807" y="0" type="move" name="top"/>
    </contour>
  </outline>
</glyph>
<glyph name="x" format="1">
  <advance width="1056"/>
  <unicode hex="0078"/>
  <outline>
    <contour>
      <point x="64" y="0" type="line"/>
      <point x="441" y="533" type="line"/>
      <point x="70" y="1060" type="line"/>
      <point x="259" y="1060" type="line"/>
      <point x="535" y="666" type="line"/>
      <point x="814" y="1060" type="line"/>
      <point x="995" y="1060" type="line"/>
      <point x="626" y="535" type="line"/>
      <point x="1000" y="0" type="line"/>
      <point x="817" y="0" type="line"/>
      <point x="534" y="403" type="line"/>
      <point x="251" y="0" type="line"/>
    </contour>
  </outline>
</glyph>
<glyph name="y" format="1">
  <advance width="1118"/>
  <unicode hex="0079"/>
  <outline>
    <contour>
      <point x="600.944" y="-279.809"/>
      <point x="510.396" y="-406"/>
      <point x="198" y="-406" type="curve"/>
      <point x="198" y="-259" type="line"/>
      <point x="357.738" y="-259"/>
      <point x="461.074" y="-189.423"/>
      <point x="513" y="4" type="curve"/>
      <point x="76" y="1060" type="line"/>
      <point x="275" y="1060" type="line"/>
      <point x="599" y="216" type="line"/>
      <point x="870" y="1060" type="line"/>
      <point x="1060" y="1060" type="line"/>
      <point x="712" y="45" type="line" smooth="yes"/>
    </contour>
    <contour>
      <point x="559" y="0" type="move" name="top"/>
    </contour>
  </outline>
</glyph>
<glyph name="z" format="1">
  <advance width="964"/>
  <unicode hex="007A"/>
  <outline>
    <contour>
      <point x="140" y="0" type="line"/>
      <point x="140" y="118" type="line"/>
      <point x="647" y="936" type="line"/>
      <point x="158" y="936" type="line"/>
      <point x="158" y="1060" type="line"/>
      <point x="845" y="1060" type="line"/>
      <point x="845" y="945" type="line"/>
      <point x="335" y="124" type="line"/>
      <point x="854" y="124" type="line"/>
      <point x="854" y="0" type="line"/>
    </contour>
    <contour>
      <point x="482" y="0" type="move" name="top"/>
    </contour>
  </outline>
</glyph>
<glyph name="braceleft" format="1">
  <advance width="952"/>
  <unicode hex="007B"/>
  <outline>
    <contour>
      <point x="866" y="-207" type="line"/>
      <point x="390.798" y="-207"/>
      <point x="385.998" y="-41.8793"/>
      <point x="385.998" y="252.619" type="curve" smooth="yes"/>
      <point x="385.998" y="258.691"/>
      <point x="386" y="264.818"/>
      <point x="386" y="271" type="curve" smooth="yes"/>
      <point x="386" y="294" type="line" smooth="yes"/>
      <point x="386" y="560.492"/>
      <point x="386" y="574.179"/>
      <point x="221.29" y="574.179" type="curve" smooth="yes"/>
      <point x="202.434" y="574.179"/>
      <point x="181.42" y="574"/>
      <point x="158" y="574" type="curve"/>
      <point x="158" y="725" type="line"/>
      <point x="181.42" y="725"/>
      <point x="202.434" y="724.821"/>
      <point x="221.29" y="724.821" type="curve" smooth="yes"/>
      <point x="386" y="724.821"/>
      <point x="386" y="738.508"/>
      <point x="386" y="1005" type="curve" smooth="yes"/>
      <point x="386" y="1028" type="line" smooth="yes"/>
      <point x="386" y="1034.18"/>
      <point x="385.998" y="1040.31"/>
      <point x="385.998" y="1046.38" type="curve" smooth="yes"/>
      <point x="385.998" y="1340.88"/>
      <point x="390.798" y="1506"/>
      <point x="866" y="1506" type="curve"/>
      <point x="866" y="1355" type="line"/>
      <point x="583.529" y="1355"/>
      <point x="577.991" y="1296.84"/>
      <point x="577.991" y="1064.35" type="curve" smooth="yes"/>
      <point x="577.991" y="1054.86"/>
      <point x="578" y="1045.08"/>
      <point x="578" y="1035" type="curve" smooth="yes"/>
      <point x="578" y="1002" type="line" smooth="yes"/>
      <point x="578" y="830"/>
      <point x="548" y="686"/>
      <point x="474" y="650" type="curve"/>
      <point x="548" y="613"/>
      <point x="578" y="469"/>
      <point x="578" y="297" type="curve" smooth="yes"/>
      <point x="578" y="264" type="line" smooth="yes"/>
      <point x="578" y="253.922"/>
      <point x="577.991" y="244.141"/>
      <point x="577.991" y="234.652" type="curve" smooth="yes"/>
      <point x="577.991" y="2.15571"/>
      <point x="583.529" y="-56"/>
      <point x="866" y="-56" type="curve"/>
    </contour>
  </outline>
</glyph>
<glyph name="bar" format="1">
  <advance width="690"/>
  <unicode hex="007C"/>
  <outline>
    <contour>
      <point x="256" y="-167" type="line"/>
      <point x="256" y="1555" type="line"/>
      <point x="434" y="1555" type="line"/>
      <point x="434" y="-167" type="line"/>
    </contour>
  </outline>
</glyph>
<glyph name="braceright" format="1">
  <advance width="952"/>
  <unicode hex="007D"/>
  <outline>
    <contour>
      <point x="608.002" y="-41.8793"/>
      <point x="603.202" y="-207"/>
      <point x="128" y="-207" type="curve"/>
      <point x="128" y="-56" type="line"/>
      <point x="410.471" y="-56"/>
      <point x="416.009" y="2.15571"/>
      <point x="416.009" y="234.652" type="curve" smooth="yes"/>
      <point x="416.009" y="244.141"/>
      <point x="416" y="253.922"/>
      <point x="416" y="264" type="curve" smooth="yes"/>
      <point x="416" y="297" type="line" smooth="yes"/>
      <point x="416" y="469"/>
      <point x="446" y="613"/>
      <point x="520" y="649" type="curve"/>
      <point x="446" y="686"/>
      <point x="416" y="830"/>
      <point x="416" y="1002" type="curve" smooth="yes"/>
      <point x="416" y="1035" type="line" smooth="yes"/>
      <point x="416" y="1045.08"/>
      <point x="416.009" y="1054.86"/>
      <point x="416.009" y="1064.35" type="curve" smooth="yes"/>
      <point x="416.009" y="1296.84"/>
      <point x="410.471" y="1355"/>
      <point x="128" y="1355" type="curve"/>
      <point x="128" y="1506" type="line"/>
      <point x="603.202" y="1506"/>
      <point x="608.002" y="1340.88"/>
      <point x="608.002" y="1046.38" type="curve" smooth="yes"/>
      <point x="608.002" y="1040.31"/>
      <point x="608" y="1034.18"/>
      <point x="608" y="1028" type="curve" smooth="yes"/>
      <point x="608" y="1005" type="line" smooth="yes"/>
      <point x="608" y="738.508"/>
      <point x="608" y="724.821"/>
      <point x="772.71" y="724.821" type="curve" smooth="yes"/>
      <point x="791.566" y="724.821"/>
      <point x="812.58" y="725"/>
      <point x="836" y="725" type="curve"/>
      <point x="836" y="574" type="line"/>
      <point x="812.58" y="574"/>
      <point x="791.566" y="574.179"/>
      <point x="772.71" y="574.179" type="curve" smooth="yes"/>
      <point x="608" y="574.179"/>
      <point x="608" y="560.492"/>
      <point x="608" y="294" type="curve" smooth="yes"/>
      <point x="608" y="271" type="line" smooth="yes"/>
      <point x="608" y="264.818"/>
      <point x="608.002" y="258.691"/>
      <point x="608.002" y="252.619" type="curve" smooth="yes"/>
    </contour>
  </outline>
</glyph>
<glyph name="asciitilde" format="1">
  <advance width="881"/>
  <unicode hex="007E"/>
  <outline>
    <contour>
      <point x="539" y="1320"/>
      <point x="417" y="1173"/>
      <point x="280" y="1173" type="curve" smooth="yes"/>
      <point x="160" y="1173"/>
      <point x="64" y="1287"/>
      <point x="64" y="1452" type="curve"/>
      <point x="161" y="1452" type="line"/>
      <point x="161" y="1390"/>
      <point x="190" y="1319"/>
      <point x="271" y="1319" type="curve" smooth="yes"/>
      <point x="342" y="1319"/>
      <point x="464" y="1466"/>
      <point x="601" y="1466" type="curve" smooth="yes"/>
      <point x="721" y="1466"/>
      <point x="817" y="1352"/>
      <point x="817" y="1187" type="curve"/>
      <point x="720" y="1187" type="line"/>
      <point x="720" y="1249"/>
      <point x="691" y="1320"/>
      <point x="610" y="1320" type="curve" smooth="yes"/>
    </contour>
  </outline>
</glyph>
<glyph name="cent" format="1">
  <advance width="1110"/>
  <unicode hex="00A2"/>
  <outline>
    <contour>
      <point x="540" y="1013" type="line"/>
      <point x="540" y="1277" type="line"/>
      <point x="643" y="1277" type="line"/>
      <point x="643" y="1013" type="line"/>
    </contour>
    <contour>
      <point x="540" y="-205" type="line"/>
      <point x="540" y="59" type="line"/>
      <point x="643" y="59" type="line"/>
      <point x="643" y="-205" type="line"/>
    </contour>
    <component base="c"/>
  </outline>
</glyph>
<glyph name="sterling" format="1">
  <advance width="1273"/>
  <unicode hex="00A3"/>
  <outline>
    <contour>
      <point x="261" y="0" type="line"/>
      <point x="323" y="668" type="line"/>
      <point x="166" y="668" type="line"/>
      <point x="166" y="809" type="line"/>
      <point x="336" y="809" type="line"/>
      <point x="367" y="1125" type="line"/>
      <point x="385" y="1319"/>
      <point x="514" y="1484"/>
      <point x="748" y="1484" type="curve" smooth="yes"/>
      <point x="841" y="1484"/>
      <point x="951" y="1459"/>
      <point x="1077" y="1398" type="curve"/>
      <point x="1023" y="1259" type="line"/>
      <point x="984" y="1278"/>
      <point x="871" y="1327"/>
      <point x="770" y="1327" type="curve" smooth="yes"/>
      <point x="666" y="1327"/>
      <point x="577" y="1275"/>
      <point x="559" y="1104" type="curve" smooth="yes"/>
      <point x="529" y="809" type="line"/>
      <point x="1012" y="809" type="line"/>
      <point x="1012" y="668" type="line"/>
      <point x="514" y="668" type="line"/>
      <point x="462" y="162" type="line"/>
      <point x="1036" y="162" type="line"/>
      <point x="1036" y="0" type="line"/>
    </contour>
  </outline>
</glyph>
<glyph name="currency" format="1">
  <advance width="1149"/>
  <unicode hex="00A4"/>
  <outline>
    <contour>
      <point x="759" y="406"/>
      <point x="666" y="360"/>
      <point x="564" y="360" type="curve" smooth="yes"/>
      <point x="469" y="360"/>
      <point x="384" y="398"/>
      <point x="324" y="468" type="curve"/>
      <point x="177" y="360" type="line"/>
      <point x="126" y="443" type="line"/>
      <point x="274" y="549" type="line"/>
      <point x="255" y="592"/>
      <point x="245" y="640"/>
      <point x="245" y="689" type="curve" smooth="yes"/>
      <point x="245" y="752"/>
      <point x="261" y="811"/>
      <point x="291" y="862" type="curve"/>
      <point x="116" y="979" type="line"/>
      <point x="170" y="1061" type="line"/>
      <point x="350" y="937" type="line"/>
      <point x="407" y="991"/>
      <point x="482" y="1018"/>
      <point x="564" y="1018" type="curve" smooth="yes"/>
      <point x="647" y="1018"/>
      <point x="723" y="990"/>
      <point x="780" y="935" type="curve"/>
      <point x="973" y="1075" type="line"/>
      <point x="1023" y="993" type="line"/>
      <point x="839" y="860" type="line"/>
      <point x="866" y="809"/>
      <point x="883" y="751"/>
      <point x="883" y="689" type="curve" smooth="yes"/>
      <point x="883" y="648"/>
      <point x="876" y="608"/>
      <point x="862" y="571" type="curve"/>
      <point x="1033" y="457" type="line"/>
      <point x="981" y="376" type="line"/>
      <point x="817" y="486" type="line"/>
    </contour>
    <contour>
      <point x="340" y="555"/>
      <point x="436" y="444"/>
      <point x="565" y="444" type="curve" smooth="yes"/>
      <point x="694" y="444"/>
      <point x="790" y="555"/>
      <point x="790" y="690" type="curve" smooth="yes"/>
      <point x="790" y="826"/>
      <point x="694" y="936"/>
      <point x="565" y="936" type="curve" smooth="yes"/>
      <point x="436" y="936"/>
      <point x="340" y="826"/>
      <point x="340" y="690" type="curve" smooth="yes"/>
    </contour>
  </outline>
</glyph>
<glyph name="yen" format="1">
  <advance width="1318"/>
  <unicode hex="00A5"/>
  <outline>
    <contour>
      <point x="260" y="252" type="line"/>
      <point x="260" y="400" type="line"/>
      <point x="1063" y="400" type="line"/>
      <point x="1063" y="252" type="line"/>
    </contour>
    <contour>
      <point x="260" y="560" type="line"/>
      <point x="260" y="708" type="line"/>
      <point x="1063" y="708" type="line"/>
      <point x="1063" y="560" type="line"/>
    </contour>
    <component base="Y"/>
  </outline>
</glyph>
<glyph name="brokenbar" format="1">
  <advance width="674"/>
  <unicode hex="00A6"/>
  <outline>
    <contour>
      <point x="254" y="-167" type="line"/>
      <point x="254" y="513" type="line"/>
      <point x="432" y="513" type="line"/>
      <point x="432" y="-167" type="line"/>
    </contour>
    <contour>
      <point x="254" y="848" type="line"/>
      <point x="254" y="1555" type="line"/>
      <point x="432" y="1555" type="line"/>
      <point x="432" y="848" type="line"/>
    </contour>
  </outline>
</glyph>
<glyph name="section" format="1">
  <advance width="1002"/>
  <unicode hex="00A7"/>
  <outline>
    <contour>
      <point x="766" y="1291"/>
      <point x="633" y="1324"/>
      <point x="542" y="1324" type="curve" smooth="yes"/>
      <point x="362.976" y="1324"/>
      <point x="331.692" y="1282.8"/>
      <point x="331.692" y="1183.75" type="curve" smooth="yes"/>
      <point x="331.692" y="1120.88"/>
      <point x="352.244" y="1098.98"/>
      <point x="425" y="1071" type="curve" smooth="yes"/>
      <point x="682" y="973" type="line" smooth="yes"/>
      <point x="865" y="903"/>
      <point x="900" y="836"/>
      <point x="900" y="671" type="curve" smooth="yes"/>
      <point x="900" y="602"/>
      <point x="883" y="539"/>
      <point x="846" y="487" type="curve"/>
      <point x="889" y="439"/>
      <point x="900" y="376"/>
      <point x="900" y="283" type="curve" smooth="yes"/>
      <point x="900" y="116"/>
      <point x="801" y="-22"/>
      <point x="542" y="-22" type="curve" smooth="yes"/>
      <point x="338" y="-22"/>
      <point x="194" y="37"/>
      <point x="144" y="64" type="curve"/>
      <point x="191" y="202" type="line"/>
      <point x="240" y="176"/>
      <point x="368" y="122"/>
      <point x="516" y="122" type="curve" smooth="yes"/>
      <point x="688" y="122"/>
      <point x="736" y="192"/>
      <point x="736" y="281" type="curve" smooth="yes"/>
      <point x="736" y="363"/>
      <point x="727" y="406"/>
      <point x="624" y="443" type="curve" smooth="yes"/>
      <point x="365" y="536" type="line" smooth="yes"/>
      <point x="204.877" y="593.385"/>
      <point x="150.982" y="658.48"/>
      <point x="150.982" y="791.546" type="curve" smooth="yes"/>
      <point x="150.982" y="880.035"/>
      <point x="169.771" y="946.086"/>
      <point x="223" y="997" type="curve"/>
      <point x="171.075" y="1041"/>
      <point x="150.906" y="1097.4"/>
      <point x="150.906" y="1178.46" type="curve" smooth="yes"/>
      <point x="150.906" y="1357.79"/>
      <point x="236.288" y="1468"/>
      <point x="506" y="1468" type="curve" smooth="yes"/>
      <point x="659" y="1468"/>
      <point x="793" y="1441"/>
      <point x="874" y="1410" type="curve"/>
      <point x="829" y="1266" type="line"/>
    </contour>
    <contour>
      <point x="365" y="924" type="line"/>
      <point x="354.343" y="924"/>
      <point x="331.692" y="849.274"/>
      <point x="331.692" y="805.619" type="curve" smooth="yes"/>
      <point x="331.692" y="741.576"/>
      <point x="352.244" y="710.983"/>
      <point x="425" y="683" type="curve" smooth="yes"/>
      <point x="716" y="571" type="line"/>
      <point x="730" y="602"/>
      <point x="736" y="637"/>
      <point x="736" y="669" type="curve" smooth="yes"/>
      <point x="736" y="751"/>
      <point x="727" y="794"/>
      <point x="624" y="831" type="curve" smooth="yes"/>
    </contour>
  </outline>
</glyph>
<glyph name="dieresis" format="1">
  <advance width="1025"/>
  <unicode hex="00A8"/>
  <outline>
    <contour>
      <point x="158" y="1265" type="line"/>
      <point x="158" y="1446" type="line"/>
      <point x="364" y="1446" type="line"/>
      <point x="364" y="1265" type="line"/>
    </contour>
    <contour>
      <point x="661" y="1265" type="line"/>
      <point x="661" y="1446" type="line"/>
      <point x="867" y="1446" type="line"/>
      <point x="867" y="1265" type="line"/>
    </contour>
    <contour>
      <point x="512.5" y="0" type="move" name="_top"/>
    </contour>
  </outline>
</glyph>
<glyph name="copyright" format="1">
  <advance width="1784"/>
  <unicode hex="00A9"/>
  <outline>
    <contour>
      <point x="1228" y="422"/>
      <point x="1179" y="287"/>
      <point x="903" y="287" type="curve" smooth="yes"/>
      <point x="616" y="287"/>
      <point x="551" y="411"/>
      <point x="551" y="590" type="curve" smooth="yes"/>
      <point x="551" y="868" type="line" smooth="yes"/>
      <point x="551" y="1050"/>
      <point x="614" y="1182"/>
      <point x="902" y="1182" type="curve" smooth="yes"/>
      <point x="1179" y="1182"/>
      <point x="1228" y="1043"/>
      <point x="1228" y="861" type="curve" smooth="yes"/>
      <point x="1228" y="836" type="line"/>
      <point x="1112" y="826" type="line"/>
      <point x="1112" y="890" type="line" smooth="yes"/>
      <point x="1112" y="1042"/>
      <point x="1054" y="1091"/>
      <point x="902" y="1091" type="curve" smooth="yes"/>
      <point x="751" y="1091"/>
      <point x="671" y="1042"/>
      <point x="671" y="890" type="curve" smooth="yes"/>
      <point x="671" y="571" type="line" smooth="yes"/>
      <point x="671" y="419"/>
      <point x="751" y="376"/>
      <point x="903" y="376" type="curve" smooth="yes"/>
      <point x="1056" y="376"/>
      <point x="1112" y="419"/>
      <point x="1112" y="571" type="curve" smooth="yes"/>
      <point x="1112" y="632" type="line"/>
      <point x="1228" y="632" type="line"/>
      <point x="1228" y="598" type="line" smooth="yes"/>
    </contour>
    <contour>
      <point x="265" y="357"/>
      <point x="530" y="82"/>
      <point x="894" y="82" type="curve" smooth="yes"/>
      <point x="1260" y="82"/>
      <point x="1522" y="357"/>
      <point x="1522" y="722" type="curve" smooth="yes"/>
      <point x="1522" y="1086"/>
      <point x="1260" y="1361"/>
      <point x="894" y="1361" type="curve" smooth="yes"/>
      <point x="530" y="1361"/>
      <point x="265" y="1086"/>
      <point x="265" y="722" type="curve" smooth="yes"/>
    </contour>
    <contour>
      <point x="1628" y="303"/>
      <point x="1308" y="-14"/>
      <point x="892" y="-14" type="curve" smooth="yes"/>
      <point x="479" y="-14"/>
      <point x="156" y="303"/>
      <point x="156" y="722" type="curve" smooth="yes"/>
      <point x="156" y="1139"/>
      <point x="479" y="1456"/>
      <point x="892" y="1456" type="curve" smooth="yes"/>
      <point x="1308" y="1456"/>
      <point x="1628" y="1139"/>
      <point x="1628" y="722" type="curve" smooth="yes"/>
    </contour>
  </outline>
</glyph>
<glyph name="guillemotleft" format="1">
  <advance width="1054"/>
  <unicode hex="00AB"/>
  <outline>
    <contour>
      <point x="376" y="80" type="line"/>
      <point x="96" y="530" type="line"/>
      <point x="369" y="980" type="line"/>
      <point x="516" y="910" type="line"/>
      <point x="309" y="530" type="line"/>
      <point x="516" y="150" type="line"/>
    </contour>
    <contour>
      <point x="790" y="80" type="line"/>
      <point x="510" y="530" type="line"/>
      <point x="783" y="980" type="line"/>
      <point x="928" y="910" type="line"/>
      <point x="723" y="530" type="line"/>
      <point x="928" y="150" type="line"/>
    </contour>
  </outline>
</glyph>
<glyph name="logicalnot" format="1">
  <advance width="864"/>
  <unicode hex="00AC"/>
  <outline>
    <contour>
      <point x="589" y="333" type="line"/>
      <point x="589" y="556" type="line"/>
      <point x="98" y="556" type="line"/>
      <point x="98" y="692" type="line"/>
      <point x="721" y="692" type="line"/>
      <point x="721" y="333" type="line"/>
    </contour>
  </outline>
</glyph>
<glyph name="uni00AD" format="1">
  <advance width="1024"/>
  <unicode hex="00AD"/>
  <outline>
    <contour>
      <point x="162" y="494" type="line"/>
      <point x="162" y="642" type="line"/>
      <point x="862" y="642" type="line"/>
      <point x="862" y="494" type="line"/>
    </contour>
  </outline>
</glyph>
<glyph name="registered" format="1">
  <advance width="1784"/>
  <unicode hex="00AE"/>
  <outline>
    <contour>
      <point x="596" y="319" type="line"/>
      <point x="596" y="1153" type="line"/>
      <point x="999" y="1153" type="line" smooth="yes"/>
      <point x="1156" y="1153"/>
      <point x="1258" y="1082"/>
      <point x="1262" y="908" type="curve"/>
      <point x="1262" y="894" type="line" smooth="yes"/>
      <point x="1262" y="760"/>
      <point x="1202" y="691"/>
      <point x="1110" y="666" type="curve"/>
      <point x="1294" y="319" type="line"/>
      <point x="1166" y="319" type="line"/>
      <point x="986" y="652" type="line"/>
      <point x="727" y="652" type="line"/>
      <point x="727" y="319" type="line"/>
    </contour>
    <contour>
      <point x="727" y="742" type="line"/>
      <point x="994" y="742" type="line" smooth="yes"/>
      <point x="1108" y="742"/>
      <point x="1129" y="814"/>
      <point x="1130" y="877" type="curve"/>
      <point x="1130" y="901" type="line" smooth="yes"/>
      <point x="1130" y="960"/>
      <point x="1121" y="1062"/>
      <point x="1003" y="1062" type="curve" smooth="yes"/>
      <point x="727" y="1062" type="line"/>
    </contour>
    <contour>
      <point x="265" y="357"/>
      <point x="530" y="82"/>
      <point x="894" y="82" type="curve" smooth="yes"/>
      <point x="1260" y="82"/>
      <point x="1522" y="357"/>
      <point x="1522" y="722" type="curve" smooth="yes"/>
      <point x="1522" y="1086"/>
      <point x="1260" y="1361"/>
      <point x="894" y="1361" type="curve" smooth="yes"/>
      <point x="530" y="1361"/>
      <point x="265" y="1086"/>
      <point x="265" y="722" type="curve" smooth="yes"/>
    </contour>
    <contour>
      <point x="1628" y="303"/>
      <point x="1308" y="-14"/>
      <point x="892" y="-14" type="curve" smooth="yes"/>
      <point x="479" y="-14"/>
      <point x="156" y="303"/>
      <point x="156" y="722" type="curve" smooth="yes"/>
      <point x="156" y="1139"/>
      <point x="479" y="1456"/>
      <point x="892" y="1456" type="curve" smooth="yes"/>
      <point x="1308" y="1456"/>
      <point x="1628" y="1139"/>
      <point x="1628" y="722" type="curve" smooth="yes"/>
    </contour>
  </outline>
</glyph>
<glyph name="macron" format="1">
  <advance width="513"/>
  <unicode hex="00AF"/>
  <outline>
    <contour>
      <point x="32" y="1359" type="line"/>
      <point x="32" y="1506" type="line"/>
      <point x="481" y="1506" type="line"/>
      <point x="481" y="1359" type="line"/>
    </contour>
    <contour>
      <point x="256.5" y="0" type="move" name="_top"/>
    </contour>
  </outline>
</glyph>
<glyph name="degree" format="1">
  <advance width="1036"/>
  <unicode hex="00B0"/>
  <outline>
    <contour>
      <point x="291" y="992"/>
      <point x="388" y="885"/>
      <point x="519" y="885" type="curve" smooth="yes"/>
      <point x="650" y="885"/>
      <point x="747" y="992"/>
      <point x="747" y="1123" type="curve" smooth="yes"/>
      <point x="747" y="1254"/>
      <point x="650" y="1361"/>
      <point x="519" y="1361" type="curve" smooth="yes"/>
      <point x="388" y="1361"/>
      <point x="291" y="1254"/>
      <point x="291" y="1123" type="curve" smooth="yes"/>
    </contour>
    <contour>
      <point x="842" y="943"/>
      <point x="696" y="798"/>
      <point x="518" y="798" type="curve" smooth="yes"/>
      <point x="340" y="798"/>
      <point x="194" y="943"/>
      <point x="194" y="1122" type="curve" smooth="yes"/>
      <point x="194" y="1300"/>
      <point x="340" y="1446"/>
      <point x="518" y="1446" type="curve" smooth="yes"/>
      <point x="696" y="1446"/>
      <point x="842" y="1300"/>
      <point x="842" y="1122" type="curve" smooth="yes"/>
    </contour>
  </outline>
</glyph>
<glyph name="plusminus" format="1">
  <advance width="1041"/>
  <unicode hex="00B1"/>
  <outline>
    <contour>
      <point x="460" y="334" type="line"/>
      <point x="460" y="611" type="line"/>
      <point x="207" y="611" type="line"/>
      <point x="207" y="726" type="line"/>
      <point x="460" y="726" type="line"/>
      <point x="460" y="992" type="line"/>
      <point x="581" y="992" type="line"/>
      <point x="581" y="726" type="line"/>
      <point x="834" y="726" type="line"/>
      <point x="834" y="611" type="line"/>
      <point x="581" y="611" type="line"/>
      <point x="581" y="334" type="line"/>
    </contour>
    <contour>
      <point x="207" y="0" type="line"/>
      <point x="207" y="120" type="line"/>
      <point x="834" y="120" type="line"/>
      <point x="834" y="0" type="line"/>
    </contour>
  </outline>
</glyph>
<glyph name="uni00B2" format="1">
  <advance width="1052"/>
  <unicode hex="00B2"/>
  <outline>
    <contour>
      <point x="663.204" y="1039.62"/>
      <point x="698.885" y="1093.46"/>
      <point x="698.885" y="1186.44" type="curve" smooth="yes"/>
      <point x="698.885" y="1307.44"/>
      <point x="642.221" y="1387"/>
      <point x="525" y="1387" type="curve" smooth="yes"/>
      <point x="398" y="1387"/>
      <point x="311" y="1338"/>
      <point x="311" y="1174" type="curve"/>
      <point x="190" y="1174" type="line"/>
      <point x="190" y="1396"/>
      <point x="340" y="1484"/>
      <point x="516" y="1484" type="curve" smooth="yes"/>
      <point x="703" y="1484"/>
      <point x="820" y="1359"/>
      <point x="820" y="1199" type="curve" smooth="yes"/>
      <point x="820" y="1042"/>
      <point x="766" y="963"/>
      <point x="670" y="865" type="curve"/>
      <point x="350" y="549" type="line"/>
      <point x="815" y="549" type="line"/>
      <point x="815" y="449" type="line"/>
      <point x="230" y="449" type="line"/>
      <point x="219" y="559" type="line"/>
      <point x="578" y="948" type="line" smooth="yes"/>
    </contour>
  </outline>
</glyph>
<glyph name="uni00B3" format="1">
  <advance width="1173"/>
  <unicode hex="00B3"/>
  <outline>
    <contour>
      <point x="948" y="510"/>
      <point x="790" y="418"/>
      <point x="590" y="418" type="curve" smooth="yes"/>
      <point x="358" y="418"/>
      <point x="211" y="487"/>
      <point x="200" y="761" type="curve"/>
      <point x="338" y="761" type="line"/>
      <point x="344" y="547"/>
      <point x="457" y="525"/>
      <point x="597" y="525" type="curve" smooth="yes"/>
      <point x="719" y="525"/>
      <point x="813" y="584"/>
      <point x="813" y="711" type="curve" smooth="yes"/>
      <point x="813" y="862"/>
      <point x="753" y="921"/>
      <point x="499" y="921" type="curve"/>
      <point x="499" y="1020" type="line"/>
      <point x="788" y="1020"/>
      <point x="794" y="1102"/>
      <point x="794" y="1204" type="curve" smooth="yes"/>
      <point x="794" y="1300"/>
      <point x="740" y="1378"/>
      <point x="590" y="1378" type="curve" smooth="yes"/>
      <point x="443" y="1378"/>
      <point x="348" y="1342"/>
      <point x="349" y="1153" type="curve"/>
      <point x="213" y="1153" type="line"/>
      <point x="218" y="1427"/>
      <point x="388" y="1484"/>
      <point x="591" y="1484" type="curve" smooth="yes"/>
      <point x="767" y="1484"/>
      <point x="927" y="1394"/>
      <point x="927" y="1206" type="curve" smooth="yes"/>
      <point x="927" y="1072"/>
      <point x="868" y="997"/>
      <point x="735" y="972" type="curve"/>
      <point x="865" y="948"/>
      <point x="948" y="892"/>
      <point x="948" y="719" type="curve" smooth="yes"/>
    </contour>
  </outline>
</glyph>
<glyph name="acute" format="1">
  <advance width="616"/>
  <unicode hex="00B4"/>
  <outline>
    <contour>
      <point x="133" y="1165" type="line"/>
      <point x="253" y="1506" type="line"/>
      <point x="478" y="1506" type="line"/>
      <point x="239" y="1165" type="line"/>
    </contour>
    <contour>
      <point x="305.5" y="0" type="move" name="_top"/>
    </contour>
  </outline>
</glyph>
<glyph name="paragraph" format="1">
  <advance width="1250"/>
  <unicode hex="00B6"/>
  <outline>
    <contour>
      <point x="485" y="0" type="line"/>
      <point x="485" y="870" type="line"/>
      <point x="313" y="874"/>
      <point x="168" y="976"/>
      <point x="168" y="1156" type="curve" smooth="yes"/>
      <point x="168" y="1372"/>
      <point x="327" y="1446"/>
      <point x="521" y="1446" type="curve" smooth="yes"/>
      <point x="961" y="1446" type="line"/>
      <point x="961" y="0" type="line"/>
      <point x="825" y="0" type="line"/>
      <point x="825" y="1338" type="line"/>
      <point x="621" y="1338" type="line"/>
      <point x="621" y="0" type="line"/>
    </contour>
  </outline>
</glyph>
<glyph name="periodcentered" format="1">
  <advance width="412"/>
  <unicode hex="00B7"/>
  <outline>
    <contour>
      <point x="108" y="1277" type="line"/>
      <point x="108" y="1483" type="line"/>
      <point x="313" y="1483" type="line"/>
      <point x="313" y="1277" type="line"/>
    </contour>
  </outline>
</glyph>
<glyph name="cedilla" format="1">
  <advance width="512"/>
  <unicode hex="00B8"/>
  <outline>
    <contour>
      <point x="460" y="-397"/>
      <point x="378" y="-486"/>
      <point x="213" y="-486" type="curve" smooth="yes"/>
      <point x="185" y="-486"/>
      <point x="154" y="-484"/>
      <point x="120" y="-478" type="curve"/>
      <point x="120" y="-382" type="line"/>
      <point x="146" y="-387"/>
      <point x="170" y="-389"/>
      <point x="191" y="-389" type="curve" smooth="yes"/>
      <point x="289" y="-389"/>
      <point x="331" y="-342"/>
      <point x="331" y="-290" type="curve" smooth="yes"/>
      <point x="331" y="-229"/>
      <point x="271" y="-161"/>
      <point x="171" y="-158" type="curve"/>
      <point x="171" y="0" type="line"/>
      <point x="233" y="0" type="line"/>
      <point x="239" y="-94" type="line"/>
      <point x="386" y="-120"/>
      <point x="460" y="-214"/>
      <point x="460" y="-303" type="curve" smooth="yes"/>
    </contour>
    <contour>
      <point x="290" y="0" type="move" name="_bottom"/>
    </contour>
  </outline>
</glyph>
<glyph name="uni00B9" format="1">
  <advance width="1050"/>
  <unicode hex="00B9"/>
  <outline>
    <contour>
      <point x="207" y="654" type="line"/>
      <point x="207" y="755" type="line"/>
      <point x="481" y="755" type="line"/>
      <point x="481" y="1394" type="line"/>
      <point x="225" y="1368" type="line"/>
      <point x="213" y="1472" type="line"/>
      <point x="505" y="1505" type="line"/>
      <point x="612" y="1505" type="line"/>
      <point x="612" y="755" type="line"/>
      <point x="843" y="755" type="line"/>
      <point x="843" y="654" type="line"/>
    </contour>
  </outline>
</glyph>
<glyph name="guillemotright" format="1">
  <advance width="1054"/>
  <unicode hex="00BB"/>
  <outline>
    <contour>
      <point x="271" y="80" type="line"/>
      <point x="126" y="150" type="line"/>
      <point x="331" y="530" type="line"/>
      <point x="126" y="910" type="line"/>
      <point x="264" y="980" type="line"/>
      <point x="544" y="530" type="line"/>
    </contour>
    <contour>
      <point x="685" y="80" type="line"/>
      <point x="538" y="150" type="line"/>
      <point x="745" y="530" type="line"/>
      <point x="538" y="910" type="line"/>
      <point x="678" y="980" type="line"/>
      <point x="958" y="530" type="line"/>
    </contour>
  </outline>
</glyph>
<glyph name="onequarter" format="1">
  <advance width="2047"/>
  <unicode hex="00BC"/>
  <outline>
    <contour>
      <point x="164" y="654" type="line"/>
      <point x="164" y="755" type="line"/>
      <point x="438" y="755" type="line"/>
      <point x="438" y="1394" type="line"/>
      <point x="182" y="1368" type="line"/>
      <point x="170" y="1472" type="line"/>
      <point x="462" y="1505" type="line"/>
      <point x="569" y="1505" type="line"/>
      <point x="569" y="755" type="line"/>
      <point x="800" y="755" type="line"/>
      <point x="800" y="654" type="line"/>
    </contour>
    <contour>
      <point x="687" y="0" type="line"/>
      <point x="1371" y="1446" type="line"/>
      <point x="1497" y="1446" type="line"/>
      <point x="819" y="0" type="line"/>
    </contour>
    <contour>
      <point x="1655" y="0" type="line"/>
      <point x="1655" y="207" type="line"/>
      <point x="1221" y="207" type="line"/>
      <point x="1221" y="299" type="line"/>
      <point x="1580" y="892" type="line"/>
      <point x="1721" y="892" type="line"/>
      <point x="1373" y="298" type="line"/>
      <point x="1655" y="298" type="line"/>
      <point x="1655" y="533" type="line"/>
      <point x="1768" y="533" type="line"/>
      <point x="1768" y="298" type="line"/>
      <point x="1912" y="298" type="line"/>
      <point x="1912" y="207" type="line"/>
      <point x="1768" y="207" type="line"/>
      <point x="1768" y="0" type="line"/>
    </contour>
  </outline>
</glyph>
<glyph name="onehalf" format="1">
  <advance width="2047"/>
  <unicode hex="00BD"/>
  <outline>
    <contour>
      <point x="1371" y="2" type="line"/>
      <point x="1360" y="94" type="line"/>
      <point x="1643" y="413" type="line"/>
      <point x="1726.86" y="502.925"/>
      <point x="1762.02" y="542.049"/>
      <point x="1762.02" y="624.28" type="curve" smooth="yes"/>
      <point x="1762.02" y="719.06"/>
      <point x="1718.82" y="765"/>
      <point x="1616" y="765" type="curve" smooth="yes"/>
      <point x="1494" y="765"/>
      <point x="1449" y="741"/>
      <point x="1449" y="605" type="curve"/>
      <point x="1332" y="605" type="line"/>
      <point x="1332" y="789"/>
      <point x="1445" y="867"/>
      <point x="1614" y="867" type="curve" smooth="yes"/>
      <point x="1795" y="867"/>
      <point x="1879" y="758"/>
      <point x="1879" y="625" type="curve" smooth="yes"/>
      <point x="1879" y="495"/>
      <point x="1807" y="431"/>
      <point x="1725" y="339" type="curve" smooth="yes"/>
      <point x="1512" y="101" type="line"/>
      <point x="1883" y="101" type="line"/>
      <point x="1883" y="2" type="line"/>
    </contour>
    <contour>
      <point x="164" y="654" type="line"/>
      <point x="164" y="755" type="line"/>
      <point x="438" y="755" type="line"/>
      <point x="438" y="1394" type="line"/>
      <point x="182" y="1368" type="line"/>
      <point x="170" y="1472" type="line"/>
      <point x="462" y="1505" type="line"/>
      <point x="569" y="1505" type="line"/>
      <point x="569" y="755" type="line"/>
      <point x="800" y="755" type="line"/>
      <point x="800" y="654" type="line"/>
    </contour>
    <contour>
      <point x="687" y="0" type="line"/>
      <point x="1371" y="1446" type="line"/>
      <point x="1497" y="1446" type="line"/>
      <point x="819" y="0" type="line"/>
    </contour>
  </outline>
</glyph>
<glyph name="threequarters" format="1">
  <advance width="2047"/>
  <unicode hex="00BE"/>
  <outline>
    <contour>
      <point x="1655" y="0" type="line"/>
      <point x="1655" y="207" type="line"/>
      <point x="1221" y="207" type="line"/>
      <point x="1221" y="299" type="line"/>
      <point x="1580" y="892" type="line"/>
      <point x="1721" y="892" type="line"/>
      <point x="1373" y="298" type="line"/>
      <point x="1655" y="298" type="line"/>
      <point x="1655" y="533" type="line"/>
      <point x="1768" y="533" type="line"/>
      <point x="1768" y="298" type="line"/>
      <point x="1912" y="298" type="line"/>
      <point x="1912" y="207" type="line"/>
      <point x="1768" y="207" type="line"/>
      <point x="1768" y="0" type="line"/>
    </contour>
    <contour>
      <point x="687" y="0" type="line"/>
      <point x="1371" y="1446" type="line"/>
      <point x="1497" y="1446" type="line"/>
      <point x="819" y="0" type="line"/>
    </contour>
    <contour>
      <point x="847" y="736"/>
      <point x="739" y="653"/>
      <point x="540" y="653" type="curve" smooth="yes"/>
      <point x="314" y="653"/>
      <point x="217" y="719"/>
      <point x="199" y="932" type="curve"/>
      <point x="334" y="932" type="line"/>
      <point x="342" y="774"/>
      <point x="408" y="746"/>
      <point x="547" y="746" type="curve" smooth="yes"/>
      <point x="669" y="746"/>
      <point x="713" y="799"/>
      <point x="713" y="897" type="curve" smooth="yes"/>
      <point x="713" y="1025"/>
      <point x="679" y="1066"/>
      <point x="469" y="1066" type="curve"/>
      <point x="469" y="1151" type="line"/>
      <point x="685" y="1151"/>
      <point x="695" y="1200"/>
      <point x="695" y="1295" type="curve" smooth="yes"/>
      <point x="695" y="1374"/>
      <point x="654" y="1421"/>
      <point x="533" y="1421" type="curve" smooth="yes"/>
      <point x="408" y="1421"/>
      <point x="346" y="1408"/>
      <point x="347" y="1253" type="curve"/>
      <point x="212" y="1253" type="line"/>
      <point x="217" y="1477"/>
      <point x="351" y="1515"/>
      <point x="532" y="1515" type="curve" smooth="yes"/>
      <point x="706" y="1515"/>
      <point x="827" y="1449"/>
      <point x="827" y="1297" type="curve" smooth="yes"/>
      <point x="827" y="1187"/>
      <point x="782" y="1126"/>
      <point x="664" y="1110" type="curve"/>
      <point x="780" y="1090"/>
      <point x="847" y="1037"/>
      <point x="847" y="896" type="curve" smooth="yes"/>
    </contour>
  </outline>
</glyph>
<glyph name="AE" format="1">
  <advance width="1686"/>
  <unicode hex="00C6"/>
  <outline>
    <contour>
      <point x="302" y="0" type="line"/>
      <point x="98" y="3" type="line"/>
      <point x="492" y="1449" type="line"/>
      <point x="1550" y="1446" type="line"/>
      <point x="1550" y="1296" type="line"/>
      <point x="1065" y="1296" type="line"/>
      <point x="1065" y="814" type="line"/>
      <point x="1489" y="814" type="line"/>
      <point x="1489" y="664" type="line"/>
      <point x="1065" y="664" type="line"/>
      <point x="1065" y="150" type="line"/>
      <point x="1559" y="150" type="line"/>
      <point x="1559" y="0" type="line"/>
      <point x="874" y="0" type="line"/>
      <point x="874" y="282" type="line"/>
      <point x="375" y="282" type="line"/>
    </contour>
    <contour>
      <point x="411" y="417" type="line"/>
      <point x="874" y="417" type="line"/>
      <point x="874" y="1296" type="line"/>
      <point x="632" y="1296" type="line"/>
    </contour>
    <contour>
      <point x="843" y="0" type="move" name="top"/>
    </contour>
  </outline>
</glyph>
<glyph name="Eth" format="1">
  <advance width="1215"/>
  <unicode hex="00D0"/>
  <outline>
    <contour>
      <point x="76" y="698" type="line"/>
      <point x="76" y="849" type="line"/>
      <point x="778" y="849" type="line"/>
      <point x="778" y="698" type="line"/>
    </contour>
    <component base="D"/>
  </outline>
</glyph>
<glyph name="multiply" format="1">
  <advance width="973"/>
  <unicode hex="00D7"/>
  <outline>
    <contour>
      <point x="239" y="216" type="line"/>
      <point x="129" y="344" type="line"/>
      <point x="366" y="576" type="line"/>
      <point x="129" y="806" type="line"/>
      <point x="239" y="937" type="line"/>
      <point x="487" y="694" type="line"/>
      <point x="735" y="937" type="line"/>
      <point x="844" y="806" type="line"/>
      <point x="608" y="576" type="line"/>
      <point x="844" y="344" type="line"/>
      <point x="735" y="216" type="line"/>
      <point x="487" y="458" type="line"/>
    </contour>
  </outline>
</glyph>
<glyph name="Oslash" format="1">
  <advance width="1546"/>
  <unicode hex="00D8"/>
  <outline>
    <contour>
      <point x="479" y="-195" type="line"/>
      <point x="376" y="-157" type="line"/>
      <point x="1054" y="1676" type="line"/>
      <point x="1158" y="1638" type="line"/>
    </contour>
    <component base="O"/>
    <contour>
      <point x="773" y="0" type="move" name="top"/>
    </contour>
  </outline>
</glyph>
<glyph name="Thorn" format="1">
  <advance width="1320"/>
  <unicode hex="00DE"/>
  <outline>
    <contour>
      <point x="212" y="0" type="line"/>
      <point x="212" y="1446" type="line"/>
      <point x="414" y="1446" type="line"/>
      <point x="414" y="1208" type="line"/>
      <point x="788" y="1208" type="line" smooth="yes"/>
      <point x="1031" y="1208"/>
      <point x="1192" y="1102"/>
      <point x="1192" y="773" type="curve" smooth="yes"/>
      <point x="1192" y="427"/>
      <point x="1033" y="331"/>
      <point x="787" y="331" type="curve" smooth="yes"/>
      <point x="414" y="331" type="line"/>
      <point x="414" y="0" type="line"/>
    </contour>
    <contour>
      <point x="414" y="484" type="line"/>
      <point x="791" y="484" type="line" smooth="yes"/>
      <point x="966" y="484"/>
      <point x="990" y="610"/>
      <point x="990" y="759" type="curve" smooth="yes"/>
      <point x="990" y="900"/>
      <point x="975" y="1055"/>
      <point x="794" y="1055" type="curve" smooth="yes"/>
      <point x="414" y="1055" type="line"/>
    </contour>
  </outline>
</glyph>
<glyph name="germandbls" format="1">
  <advance width="1281"/>
  <unicode hex="00DF"/>
  <outline>
    <contour>
      <point x="190" y="0" type="line"/>
      <point x="190" y="1103" type="line" smooth="yes"/>
      <point x="190" y="1401"/>
      <point x="396" y="1483"/>
      <point x="652" y="1483" type="curve" smooth="yes"/>
      <point x="933" y="1483"/>
      <point x="1057" y="1347"/>
      <point x="1057" y="1135" type="curve" smooth="yes"/>
      <point x="1057" y="979"/>
      <point x="1010" y="908"/>
      <point x="902" y="878" type="curve"/>
      <point x="1019" y="829"/>
      <point x="1166" y="786"/>
      <point x="1166" y="488" type="curve" smooth="yes"/>
      <point x="1166" y="119"/>
      <point x="942" y="0"/>
      <point x="536" y="0" type="curve"/>
      <point x="518" y="148" type="line"/>
      <point x="786" y="168"/>
      <point x="991" y="182"/>
      <point x="991" y="485" type="curve" smooth="yes"/>
      <point x="991" y="743"/>
      <point x="838" y="770"/>
      <point x="600" y="770" type="curve"/>
      <point x="600" y="912" type="line"/>
      <point x="818" y="912"/>
      <point x="869" y="989"/>
      <point x="869" y="1119" type="curve" smooth="yes"/>
      <point x="869" y="1296"/>
      <point x="781" y="1332"/>
      <point x="643" y="1332" type="curve" smooth="yes"/>
      <point x="497" y="1332"/>
      <point x="378" y="1305"/>
      <point x="378" y="1131" type="curve" smooth="yes"/>
      <point x="378" y="0" type="line"/>
    </contour>
  </outline>
</glyph>
<glyph name="ae" format="1">
  <advance width="1741"/>
  <unicode hex="00E6"/>
  <outline>
    <contour>
      <point x="787" y="48"/>
      <point x="656" y="-20"/>
      <point x="469" y="-20" type="curve" smooth="yes"/>
      <point x="244" y="-20"/>
      <point x="131" y="120"/>
      <point x="131" y="283" type="curve" smooth="yes"/>
      <point x="131" y="423"/>
      <point x="170" y="551"/>
      <point x="517" y="606" type="curve" smooth="yes"/>
      <point x="744" y="642"/>
      <point x="785" y="637"/>
      <point x="785" y="753" type="curve" smooth="yes"/>
      <point x="785" y="830"/>
      <point x="776" y="940"/>
      <point x="584" y="940" type="curve" smooth="yes"/>
      <point x="371" y="940"/>
      <point x="353" y="830"/>
      <point x="353" y="745" type="curve" smooth="yes"/>
      <point x="353" y="718" type="line"/>
      <point x="172" y="718" type="line"/>
      <point x="172" y="746" type="line" smooth="yes"/>
      <point x="172" y="955"/>
      <point x="312" y="1080"/>
      <point x="590" y="1080" type="curve" smooth="yes"/>
      <point x="728" y="1080"/>
      <point x="850" y="1035"/>
      <point x="887" y="939" type="curve"/>
      <point x="949" y="1037"/>
      <point x="1052" y="1080"/>
      <point x="1197" y="1080" type="curve" smooth="yes"/>
      <point x="1473" y="1080"/>
      <point x="1609" y="959"/>
      <point x="1609" y="758" type="curve" smooth="yes"/>
      <point x="1609" y="511" type="line"/>
      <point x="973" y="511" type="line"/>
      <point x="973" y="328" type="line" smooth="yes"/>
      <point x="973" y="186"/>
      <point x="1042" y="121"/>
      <point x="1189" y="121" type="curve" smooth="yes"/>
      <point x="1355" y="121"/>
      <point x="1420" y="135"/>
      <point x="1433" y="318" type="curve"/>
      <point x="1603" y="318" type="line"/>
      <point x="1582" y="60"/>
      <point x="1479" y="-20"/>
      <point x="1189" y="-20" type="curve" smooth="yes"/>
      <point x="996" y="-20"/>
      <point x="920" y="55"/>
      <point x="878" y="158" type="curve"/>
    </contour>
    <contour>
      <point x="360.3" y="452.217"/>
      <point x="312.446" y="377.664"/>
      <point x="312.446" y="284.112" type="curve" smooth="yes"/>
      <point x="312.446" y="165.335"/>
      <point x="388.05" y="113"/>
      <point x="498" y="113" type="curve" smooth="yes"/>
      <point x="611" y="113"/>
      <point x="755" y="175"/>
      <point x="785" y="273" type="curve"/>
      <point x="785" y="547" type="line"/>
      <point x="785" y="547"/>
      <point x="730" y="514"/>
      <point x="569" y="487" type="curve" smooth="yes"/>
    </contour>
    <contour>
      <point x="973" y="633" type="line"/>
      <point x="1437" y="633" type="line"/>
      <point x="1437" y="778" type="line" smooth="yes"/>
      <point x="1437" y="906"/>
      <point x="1341" y="938"/>
      <point x="1196" y="938" type="curve" smooth="yes"/>
      <point x="1046" y="938"/>
      <point x="973" y="891"/>
      <point x="973" y="760" type="curve" smooth="yes"/>
    </contour>
    <contour>
      <point x="871" y="0" type="move" name="top"/>
    </contour>
  </outline>
</glyph>
<glyph name="eth" format="1">
  <advance width="1158"/>
  <unicode hex="00F0"/>
  <outline>
    <contour>
      <point x="1010" y="170"/>
      <point x="970" y="-20"/>
      <point x="587" y="-20" type="curve" smooth="yes"/>
      <point x="271" y="-20"/>
      <point x="150" y="118"/>
      <point x="150" y="314" type="curve" smooth="yes"/>
      <point x="150" y="646" type="line" smooth="yes"/>
      <point x="150" y="846"/>
      <point x="324" y="975"/>
      <point x="587" y="975" type="curve" smooth="yes"/>
      <point x="653" y="975"/>
      <point x="755" y="944"/>
      <point x="782" y="921" type="curve"/>
      <point x="754" y="1052"/>
      <point x="687" y="1148"/>
      <point x="606" y="1220" type="curve"/>
      <point x="391" y="1078" type="line"/>
      <point x="323" y="1162" type="line"/>
      <point x="514" y="1288" type="line"/>
      <point x="413" y="1353"/>
      <point x="307" y="1387"/>
      <point x="243" y="1407" type="curve"/>
      <point x="317" y="1515" type="line"/>
      <point x="378" y="1502"/>
      <point x="512" y="1470"/>
      <point x="646" y="1375" type="curve"/>
      <point x="794" y="1473" type="line"/>
      <point x="863" y="1389" type="line"/>
      <point x="733" y="1303" type="line"/>
      <point x="882" y="1162"/>
      <point x="1010" y="928"/>
      <point x="1010" y="536" type="curve" smooth="yes"/>
      <point x="1010" y="365" type="line" smooth="yes"/>
    </contour>
    <contour>
      <point x="337" y="166"/>
      <point x="440" y="121"/>
      <point x="587" y="121" type="curve" smooth="yes"/>
      <point x="820" y="121"/>
      <point x="828" y="229"/>
      <point x="828" y="359" type="curve" smooth="yes"/>
      <point x="828" y="593" type="line" smooth="yes"/>
      <point x="828" y="624"/>
      <point x="820" y="701"/>
      <point x="805" y="783" type="curve"/>
      <point x="762" y="813"/>
      <point x="647" y="833"/>
      <point x="587" y="833" type="curve" smooth="yes"/>
      <point x="441" y="833"/>
      <point x="337" y="783"/>
      <point x="337" y="652" type="curve" smooth="yes"/>
      <point x="337" y="308" type="line" smooth="yes"/>
    </contour>
  </outline>
</glyph>
<glyph name="divide" format="1">
  <advance width="1025"/>
  <unicode hex="00F7"/>
  <outline>
    <contour>
      <point x="413" y="90" type="line"/>
      <point x="413" y="299" type="line"/>
      <point x="618" y="299" type="line"/>
      <point x="618" y="90" type="line"/>
    </contour>
    <contour>
      <point x="100" y="472" type="line"/>
      <point x="100" y="609" type="line"/>
      <point x="925" y="609" type="line"/>
      <point x="925" y="472" type="line"/>
    </contour>
    <contour>
      <point x="413" y="787" type="line"/>
      <point x="413" y="996" type="line"/>
      <point x="618" y="996" type="line"/>
      <point x="618" y="787" type="line"/>
    </contour>
  </outline>
</glyph>
<glyph name="oslash" format="1">
  <advance width="1174"/>
  <unicode hex="00F8"/>
  <outline>
    <contour>
      <point x="363" y="-226" type="line"/>
      <point x="271" y="-195" type="line"/>
      <point x="811" y="1251" type="line"/>
      <point x="901" y="1220" type="line"/>
    </contour>
    <component base="o"/>
    <contour>
      <point x="587" y="0" type="move" name="top"/>
    </contour>
  </outline>
</glyph>
<glyph name="thorn" format="1">
  <advance width="1194"/>
  <unicode hex="00FE"/>
  <outline>
    <contour>
      <point x="177" y="-408" type="line"/>
      <point x="179" y="1506" type="line"/>
      <point x="365" y="1506" type="line"/>
      <point x="365" y="994" type="line"/>
      <point x="425" y="1039"/>
      <point x="530" y="1076"/>
      <point x="639" y="1076" type="curve" smooth="yes"/>
      <point x="910" y="1076"/>
      <point x="1044" y="933"/>
      <point x="1044" y="729" type="curve" smooth="yes"/>
      <point x="1044" y="344" type="line" smooth="yes"/>
      <point x="1044" y="131"/>
      <point x="891" y="-24"/>
      <point x="615" y="-24" type="curve" smooth="yes"/>
      <point x="496" y="-24"/>
      <point x="416" y="8"/>
      <point x="365" y="34" type="curve"/>
      <point x="365" y="-408" type="line"/>
    </contour>
    <contour>
      <point x="413" y="152"/>
      <point x="494" y="117"/>
      <point x="603" y="117" type="curve" smooth="yes"/>
      <point x="751" y="117"/>
      <point x="856" y="194"/>
      <point x="856" y="324" type="curve" smooth="yes"/>
      <point x="856" y="742" type="line" smooth="yes"/>
      <point x="856" y="869"/>
      <point x="748" y="934"/>
      <point x="610" y="934" type="curve" smooth="yes"/>
      <point x="477" y="934"/>
      <point x="382" y="850"/>
      <point x="365" y="824" type="curve"/>
      <point x="365" y="179" type="line"/>
    </contour>
  </outline>
</glyph>
<glyph name="Dcroat" format="1">
  <advance width="1215"/>
  <unicode hex="0110"/>
  <outline>
    <contour>
      <point x="76" y="698" type="line"/>
      <point x="76" y="849" type="line"/>
      <point x="778" y="849" type="line"/>
      <point x="778" y="698" type="line"/>
    </contour>
    <component base="D"/>
  </outline>
</glyph>
<glyph name="dcroat" format="1">
  <advance width="1200"/>
  <unicode hex="0111"/>
  <outline>
    <contour>
      <point x="462" y="1249" type="line"/>
      <point x="462" y="1373" type="line"/>
      <point x="1177" y="1373" type="line"/>
      <point x="1177" y="1249" type="line"/>
    </contour>
    <component base="d"/>
  </outline>
</glyph>
<glyph name="Hbar" format="1">
  <advance width="1536"/>
  <unicode hex="0126"/>
  <outline>
    <contour>
      <point x="144" y="1060" type="line"/>
      <point x="144" y="1184" type="line"/>
      <point x="1392" y="1184" type="line"/>
      <point x="1392" y="1060" type="line"/>
    </contour>
    <component base="H"/>
  </outline>
</glyph>
<glyph name="hbar" format="1">
  <advance width="1224"/>
  <unicode hex="0127"/>
  <outline>
    <contour>
      <point x="29" y="1249" type="line"/>
      <point x="29" y="1373" type="line"/>
      <point x="844" y="1373" type="line"/>
      <point x="844" y="1249" type="line"/>
    </contour>
    <component base="h"/>
  </outline>
</glyph>
<glyph name="kgreenlandic" format="1">
  <advance width="1148"/>
  <unicode hex="0138"/>
  <outline>
    <contour>
      <point x="186" y="0" type="line"/>
      <point x="186" y="1060" type="line"/>
      <point x="374" y="1060" type="line"/>
      <point x="374" y="510" type="line"/>
      <point x="544" y="692"/>
      <point x="702" y="877"/>
      <point x="871" y="1060" type="curve"/>
      <point x="1079" y="1060" type="line"/>
      <point x="665" y="583" type="line"/>
      <point x="1122" y="0" type="line"/>
      <point x="905" y="0" type="line"/>
      <point x="521" y="498" type="line"/>
      <point x="374" y="354" type="line"/>
      <point x="374" y="0" type="line"/>
    </contour>
  </outline>
</glyph>
<glyph name="Lslash" format="1">
  <advance width="1145"/>
  <unicode hex="0141"/>
  <outline>
    <contour>
      <point x="52" y="616" type="line"/>
      <point x="52" y="740" type="line"/>
      <point x="826" y="1126" type="line"/>
      <point x="826" y="1002" type="line"/>
    </contour>
    <component base="L"/>
  </outline>
</glyph>
<glyph name="lslash" format="1">
  <advance width="708"/>
  <unicode hex="0142"/>
  <outline>
    <contour>
      <point x="52" y="616" type="line"/>
      <point x="52" y="740" type="line"/>
      <point x="604" y="1011" type="line"/>
      <point x="604" y="887" type="line"/>
    </contour>
    <component base="l"/>
  </outline>
</glyph>
<glyph name="Eng" format="1">
  <advance width="1582"/>
  <unicode hex="014A"/>
  <outline>
    <contour>
      <point x="1370" y="-259"/>
      <point x="1152" y="-373"/>
      <point x="821" y="-373" type="curve"/>
      <point x="793" y="-232" type="line"/>
      <point x="1037" y="-210"/>
      <point x="1182" y="-197"/>
      <point x="1182" y="115" type="curve" smooth="yes"/>
      <point x="1182" y="190" type="line"/>
      <point x="389" y="1104" type="line"/>
      <point x="389" y="0" type="line"/>
      <point x="212" y="0" type="line"/>
      <point x="212" y="1446" type="line"/>
      <point x="365" y="1446" type="line"/>
      <point x="1193" y="470" type="line"/>
      <point x="1193" y="1446" type="line"/>
      <point x="1370" y="1446" type="line"/>
      <point x="1370" y="122" type="line" smooth="yes"/>
    </contour>
  </outline>
</glyph>
<glyph name="eng" format="1">
  <advance width="1226"/>
  <unicode hex="014B"/>
  <outline>
    <contour>
      <point x="1050" y="-162"/>
      <point x="987" y="-316"/>
      <point x="641" y="-316" type="curve"/>
      <point x="613" y="-175" type="line"/>
      <point x="861" y="-175"/>
      <point x="862" y="-100"/>
      <point x="862" y="212" type="curve" smooth="yes"/>
      <point x="862" y="781" type="line" smooth="yes"/>
      <point x="862" y="886"/>
      <point x="771" y="936"/>
      <point x="640" y="936" type="curve" smooth="yes"/>
      <point x="456" y="936"/>
      <point x="374" y="857"/>
      <point x="374" y="755" type="curve" smooth="yes"/>
      <point x="374" y="0" type="line"/>
      <point x="186" y="0" type="line"/>
      <point x="186" y="1060" type="line"/>
      <point x="374" y="1060" type="line"/>
      <point x="374" y="957" type="line"/>
      <point x="436" y="1029"/>
      <point x="534" y="1080"/>
      <point x="688" y="1080" type="curve" smooth="yes"/>
      <point x="949" y="1080"/>
      <point x="1050" y="938"/>
      <point x="1050" y="770" type="curve" smooth="yes"/>
      <point x="1050" y="219" type="line" smooth="yes"/>
    </contour>
  </outline>
</glyph>
<glyph name="OE" format="1">
  <advance width="1557"/>
  <unicode hex="0152"/>
  <outline>
    <contour>
      <point x="775" y="0" type="line" smooth="yes"/>
      <point x="292" y="0"/>
      <point x="183" y="209"/>
      <point x="183" y="510" type="curve" smooth="yes"/>
      <point x="183" y="918" type="line" smooth="yes"/>
      <point x="183" y="1224"/>
      <point x="290" y="1446"/>
      <point x="775" y="1446" type="curve" smooth="yes"/>
      <point x="1390" y="1446" type="line"/>
      <point x="1390" y="1296" type="line"/>
      <point x="976" y="1296" type="line"/>
      <point x="976" y="814" type="line"/>
      <point x="1329" y="814" type="line"/>
      <point x="1329" y="664" type="line"/>
      <point x="976" y="664" type="line"/>
      <point x="976" y="150" type="line"/>
      <point x="1399" y="150" type="line"/>
      <point x="1399" y="0" type="line"/>
    </contour>
    <contour>
      <point x="385" y="226"/>
      <point x="516" y="150"/>
      <point x="765" y="150" type="curve" smooth="yes"/>
      <point x="775" y="150" type="line"/>
      <point x="775" y="1295" type="line"/>
      <point x="764" y="1295" type="line" smooth="yes"/>
      <point x="517" y="1295"/>
      <point x="385" y="1208"/>
      <point x="385" y="955" type="curve" smooth="yes"/>
      <point x="385" y="479" type="line" smooth="yes"/>
    </contour>
    <contour>
      <point x="779" y="0" type="move" name="top"/>
    </contour>
  </outline>
</glyph>
<glyph name="oe" format="1">
  <advance width="1734"/>
  <unicode hex="0153"/>
  <outline>
    <contour>
      <point x="822" y="34"/>
      <point x="730" y="-20"/>
      <point x="569" y="-20" type="curve" smooth="yes"/>
      <point x="253" y="-20"/>
      <point x="150" y="121"/>
      <point x="150" y="317" type="curve" smooth="yes"/>
      <point x="150" y="747" type="line" smooth="yes"/>
      <point x="150" y="947"/>
      <point x="306" y="1080"/>
      <point x="569" y="1080" type="curve" smooth="yes"/>
      <point x="707" y="1080"/>
      <point x="813" y="1043"/>
      <point x="883" y="950" type="curve"/>
      <point x="949" y="1043"/>
      <point x="1053" y="1080"/>
      <point x="1198" y="1080" type="curve" smooth="yes"/>
      <point x="1474" y="1080"/>
      <point x="1604" y="959"/>
      <point x="1604" y="758" type="curve" smooth="yes"/>
      <point x="1604" y="506" type="line"/>
      <point x="979" y="506" type="line"/>
      <point x="979" y="328" type="line" smooth="yes"/>
      <point x="979" y="186"/>
      <point x="1051" y="121"/>
      <point x="1198" y="121" type="curve" smooth="yes"/>
      <point x="1364" y="121"/>
      <point x="1420" y="148"/>
      <point x="1433" y="331" type="curve"/>
      <point x="1603" y="331" type="line"/>
      <point x="1582" y="73"/>
      <point x="1488" y="-20"/>
      <point x="1198" y="-20" type="curve" smooth="yes"/>
      <point x="1054" y="-20"/>
      <point x="947" y="35"/>
      <point x="883" y="122" type="curve"/>
    </contour>
    <contour>
      <point x="338" y="170"/>
      <point x="422" y="121"/>
      <point x="569" y="121" type="curve" smooth="yes"/>
      <point x="708" y="121"/>
      <point x="791" y="171"/>
      <point x="791" y="301" type="curve" smooth="yes"/>
      <point x="791" y="763" type="line" smooth="yes"/>
      <point x="791" y="888"/>
      <point x="714" y="938"/>
      <point x="569" y="938" type="curve" smooth="yes"/>
      <point x="430" y="938"/>
      <point x="338" y="894"/>
      <point x="338" y="763" type="curve" smooth="yes"/>
      <point x="338" y="301" type="line" smooth="yes"/>
    </contour>
    <contour>
      <point x="979" y="633" type="line"/>
      <point x="1422" y="633" type="line"/>
      <point x="1422" y="778" type="line" smooth="yes"/>
      <point x="1422" y="906"/>
      <point x="1343" y="938"/>
      <point x="1198" y="938" type="curve" smooth="yes"/>
      <point x="1048" y="938"/>
      <point x="979" y="891"/>
      <point x="979" y="760" type="curve" smooth="yes"/>
    </contour>
    <contour>
      <point x="867" y="0" type="move" name="top"/>
    </contour>
  </outline>
</glyph>
<glyph name="Tbar" format="1">
  <advance width="1204"/>
  <unicode hex="0166"/>
  <outline>
    <contour>
      <point x="232" y="688" type="line"/>
      <point x="232" y="817" type="line"/>
      <point x="948" y="817" type="line"/>
      <point x="948" y="688" type="line"/>
    </contour>
    <component base="T"/>
  </outline>
</glyph>
<glyph name="tbar" format="1">
  <advance width="840"/>
  <unicode hex="0167"/>
  <outline>
    <contour>
      <point x="58" y="560" type="line"/>
      <point x="58" y="689" type="line"/>
      <point x="774" y="689" type="line"/>
      <point x="774" y="560" type="line"/>
    </contour>
    <component base="t"/>
  </outline>
</glyph>
<glyph name="florin" format="1">
  <advance width="890"/>
  <unicode hex="0192"/>
  <outline>
    <contour>
      <point x="521" y="-98"/>
      <point x="452" y="-190"/>
      <point x="251" y="-190" type="curve" smooth="yes"/>
      <point x="218" y="-190"/>
      <point x="181" y="-188"/>
      <point x="141" y="-183" type="curve"/>
      <point x="141" y="-59" type="line"/>
      <point x="158" y="-61"/>
      <point x="174" y="-61"/>
      <point x="189" y="-61" type="curve" smooth="yes"/>
      <point x="300" y="-61"/>
      <point x="333" y="-18"/>
      <point x="333" y="63" type="curve" smooth="yes"/>
      <point x="333" y="727" type="line"/>
      <point x="216" y="727" type="line"/>
      <point x="216" y="858" type="line"/>
      <point x="333" y="858" type="line"/>
      <point x="333" y="1155" type="line" smooth="yes"/>
      <point x="333" y="1372"/>
      <point x="398" y="1464"/>
      <point x="606" y="1464" type="curve" smooth="yes"/>
      <point x="637" y="1464"/>
      <point x="672" y="1462"/>
      <point x="710" y="1458" type="curve"/>
      <point x="710" y="1334" type="line"/>
      <point x="699" y="1335"/>
      <point x="690" y="1335"/>
      <point x="680" y="1335" type="curve" smooth="yes"/>
      <point x="542" y="1335"/>
      <point x="521" y="1263"/>
      <point x="521" y="1177" type="curve" smooth="yes"/>
      <point x="521" y="858" type="line"/>
      <point x="650" y="858" type="line"/>
      <point x="650" y="727" type="line"/>
      <point x="521" y="727" type="line"/>
      <point x="521" y="91" type="line" smooth="yes"/>
    </contour>
  </outline>
</glyph>
<glyph name="uni0237" format="1">
  <advance width="602"/>
  <unicode hex="0237"/>
  <outline>
    <contour>
      <point x="32" y="-353" type="line"/>
      <point x="13" y="-197" type="line"/>
      <point x="42" y="-197" type="line" smooth="yes"/>
      <point x="175" y="-197"/>
      <point x="232" y="-174"/>
      <point x="232" y="-4" type="curve" smooth="yes"/>
      <point x="232" y="1060" type="line"/>
      <point x="420" y="1060" type="line"/>
      <point x="420" y="7" type="line" smooth="yes"/>
      <point x="420" y="-305"/>
      <point x="304" y="-353"/>
      <point x="98" y="-353" type="curve" smooth="yes"/>
    </contour>
    <contour>
      <point x="301" y="0" type="move" name="top"/>
    </contour>
  </outline>
</glyph>
<glyph name="circumflex" format="1">
  <advance width="512"/>
  <unicode hex="02C6"/>
  <outline>
    <contour>
      <point x="-30" y="1240" type="line"/>
      <point x="186" y="1506" type="line"/>
      <point x="336" y="1506" type="line"/>
      <point x="542" y="1240" type="line"/>
      <point x="386" y="1240" type="line"/>
      <point x="262" y="1414" type="line"/>
      <point x="130" y="1240" type="line"/>
    </contour>
    <contour>
      <point x="256" y="0" type="move" name="_top"/>
    </contour>
  </outline>
</glyph>
<glyph name="caron" format="1">
  <advance width="512"/>
  <unicode hex="02C7"/>
  <outline>
    <contour>
      <point x="175" y="1240" type="line"/>
      <point x="-30" y="1506" type="line"/>
      <point x="125" y="1506" type="line"/>
      <point x="249" y="1332" type="line"/>
      <point x="381" y="1506" type="line"/>
      <point x="542" y="1506" type="line"/>
      <point x="325" y="1240" type="line"/>
    </contour>
    <contour>
      <point x="256" y="0" type="move" name="_top"/>
    </contour>
  </outline>
</glyph>
<glyph name="uni02C9" format="1">
  <advance width="513"/>
  <unicode hex="02C9"/>
  <outline>
    <contour>
      <point x="56" y="1354" type="line"/>
      <point x="56" y="1506" type="line"/>
      <point x="457" y="1506" type="line"/>
      <point x="457" y="1354" type="line"/>
    </contour>
  </outline>
</glyph>
<glyph name="breve" format="1">
  <advance width="512"/>
  <unicode hex="02D8"/>
  <outline>
    <contour>
      <point x="482" y="1391"/>
      <point x="395" y="1294"/>
      <point x="256" y="1294" type="curve" smooth="yes"/>
      <point x="117" y="1294"/>
      <point x="30" y="1391"/>
      <point x="30" y="1506" type="curve"/>
      <point x="135" y="1506" type="line"/>
      <point x="135" y="1440"/>
      <point x="187" y="1390"/>
      <point x="256" y="1390" type="curve" smooth="yes"/>
      <point x="329" y="1390"/>
      <point x="377" y="1437"/>
      <point x="377" y="1506" type="curve"/>
      <point x="482" y="1506" type="line"/>
    </contour>
    <contour>
      <point x="256" y="0" type="move" name="_top"/>
    </contour>
  </outline>
</glyph>
<glyph name="dotaccent" format="1">
  <advance width="512"/>
  <unicode hex="02D9"/>
  <outline>
    <contour>
      <point x="136" y="1275" type="line"/>
      <point x="136" y="1506" type="line"/>
      <point x="376" y="1506" type="line"/>
      <point x="376" y="1275" type="line"/>
    </contour>
    <contour>
      <point x="256" y="0" type="move" name="_top"/>
    </contour>
  </outline>
</glyph>
<glyph name="ring" format="1">
  <advance width="512"/>
  <unicode hex="02DA"/>
  <outline>
    <contour>
      <point x="147" y="1241"/>
      <point x="199" y="1215"/>
      <point x="256" y="1215" type="curve" smooth="yes"/>
      <point x="313" y="1215"/>
      <point x="365" y="1240"/>
      <point x="365" y="1327" type="curve" smooth="yes"/>
      <point x="365" y="1414"/>
      <point x="314" y="1441"/>
      <point x="256" y="1441" type="curve" smooth="yes"/>
      <point x="200" y="1441"/>
      <point x="147" y="1416"/>
      <point x="147" y="1329" type="curve" smooth="yes"/>
    </contour>
    <contour>
      <point x="450" y="1205"/>
      <point x="356" y="1150"/>
      <point x="256" y="1150" type="curve" smooth="yes"/>
      <point x="156" y="1150"/>
      <point x="62" y="1205"/>
      <point x="62" y="1328" type="curve" smooth="yes"/>
      <point x="62" y="1451"/>
      <point x="156" y="1506"/>
      <point x="256" y="1506" type="curve" smooth="yes"/>
      <point x="356" y="1506"/>
      <point x="450" y="1451"/>
      <point x="450" y="1328" type="curve" smooth="yes"/>
    </contour>
    <contour>
      <point x="256" y="0" type="move" name="_top"/>
    </contour>
  </outline>
</glyph>
<glyph name="ogonek" format="1">
  <advance width="513"/>
  <unicode hex="02DB"/>
  <outline>
    <contour>
      <point x="403" y="-486" type="line"/>
      <point x="224" y="-486"/>
      <point x="110" y="-410"/>
      <point x="110" y="-291" type="curve" smooth="yes"/>
      <point x="110" y="-211"/>
      <point x="162" y="-110"/>
      <point x="292" y="0" type="curve"/>
      <point x="354" y="0" type="line"/>
      <point x="287" y="-64"/>
      <point x="234" y="-170"/>
      <point x="234" y="-255" type="curve" smooth="yes"/>
      <point x="234" y="-330"/>
      <point x="276" y="-389"/>
      <point x="403" y="-389" type="curve"/>
    </contour>
    <contour>
      <point x="403" y="10" type="move" name="_ogonek"/>
    </contour>
  </outline>
</glyph>
<glyph name="tilde" format="1">
  <advance width="512"/>
  <unicode hex="02DC"/>
  <outline>
    <contour>
      <point x="314" y="1370"/>
      <point x="282" y="1263"/>
      <point x="145" y="1263" type="curve" smooth="yes"/>
      <point x="25" y="1263"/>
      <point x="-41" y="1327"/>
      <point x="-41" y="1492" type="curve"/>
      <point x="56" y="1492" type="line"/>
      <point x="56" y="1430"/>
      <point x="85" y="1399"/>
      <point x="126" y="1399" type="curve" smooth="yes"/>
      <point x="197" y="1399"/>
      <point x="229" y="1506"/>
      <point x="366" y="1506" type="curve" smooth="yes"/>
      <point x="486" y="1506"/>
      <point x="552" y="1442"/>
      <point x="552" y="1277" type="curve"/>
      <point x="455" y="1277" type="line"/>
      <point x="455" y="1339"/>
      <point x="426" y="1370"/>
      <point x="385" y="1370" type="curve" smooth="yes"/>
    </contour>
    <contour>
      <point x="255.5" y="0" type="move" name="_top"/>
    </contour>
  </outline>
</glyph>
<glyph name="hungarumlaut" format="1">
  <advance width="1024"/>
  <unicode hex="02DD"/>
  <outline>
    <contour>
      <point x="154" y="1031" type="line"/>
      <point x="260" y="1506" type="line"/>
      <point x="471" y="1506" type="line"/>
      <point x="252" y="1031" type="line"/>
    </contour>
    <contour>
      <point x="451" y="1031" type="line"/>
      <point x="651" y="1506" type="line"/>
      <point x="870" y="1506" type="line"/>
      <point x="574" y="1031" type="line"/>
    </contour>
    <contour>
      <point x="512" y="0" type="move" name="_top"/>
    </contour>
  </outline>
</glyph>
<glyph name="uni0307" format="1">
  <advance width="412"/>
  <unicode hex="0307"/>
  <outline>
    <contour>
      <point x="108" y="1277" type="line"/>
      <point x="108" y="1483" type="line"/>
      <point x="313" y="1483" type="line"/>
      <point x="313" y="1277" type="line"/>
    </contour>
    <contour>
      <point x="210.5" y="0" type="move" name="_top"/>
    </contour>
  </outline>
</glyph>
<glyph name="dblgravecmb" format="1">
  <advance width="1024"/>
  <unicode hex="030F"/>
  <outline>
    <contour>
      <point x="450" y="1031" type="line"/>
      <point x="154" y="1506" type="line"/>
      <point x="373" y="1506" type="line"/>
      <point x="573" y="1031" type="line"/>
    </contour>
    <contour>
      <point x="772" y="1031" type="line"/>
      <point x="553" y="1506" type="line"/>
      <point x="764" y="1506" type="line"/>
      <point x="870" y="1031" type="line"/>
    </contour>
    <contour>
      <point x="512" y="0" type="move" name="_top"/>
    </contour>
  </outline>
</glyph>
<glyph name="uni0311" format="1">
  <advance width="512"/>
  <unicode hex="0311"/>
  <outline>
    <contour>
      <point x="30" y="1294" type="line"/>
      <point x="30" y="1409"/>
      <point x="117" y="1506"/>
      <point x="256" y="1506" type="curve" smooth="yes"/>
      <point x="395" y="1506"/>
      <point x="482" y="1409"/>
      <point x="482" y="1294" type="curve"/>
      <point x="377" y="1294" type="line"/>
      <point x="377" y="1360"/>
      <point x="325" y="1410"/>
      <point x="256" y="1410" type="curve" smooth="yes"/>
      <point x="183" y="1410"/>
      <point x="135" y="1363"/>
      <point x="135" y="1294" type="curve"/>
    </contour>
  </outline>
</glyph>
<glyph name="commaaccentcomb" format="1">
  <advance width="769"/>
  <unicode hex="0326"/>
  <outline>
    <contour>
      <point x="513" y="-467"/>
      <point x="399" y="-610"/>
      <point x="341" y="-664" type="curve"/>
      <point x="260" y="-620" type="line"/>
      <point x="307" y="-565"/>
      <point x="397" y="-458"/>
      <point x="397" y="-326" type="curve"/>
      <point x="256" y="-326" type="line"/>
      <point x="256" y="-93" type="line"/>
      <point x="513" y="-93" type="line"/>
      <point x="513" y="-276" type="line" smooth="yes"/>
    </contour>
    <contour>
      <point x="384.5" y="0" type="move" name="_bottom"/>
    </contour>
  </outline>
</glyph>
<glyph name="Delta" format="1">
  <advance width="1428"/>
  <unicode hex="0394"/>
  <outline>
    <contour>
      <point x="422" y="143" type="line"/>
      <point x="1013" y="143" type="line"/>
      <point x="719" y="1196" type="line"/>
    </contour>
    <contour>
      <point x="1237" y="0" type="line"/>
      <point x="191" y="0" type="line"/>
      <point x="625" y="1446" type="line"/>
      <point x="802" y="1446" type="line"/>
    </contour>
  </outline>
</glyph>
<glyph name="endash" format="1">
  <advance width="539"/>
  <unicode hex="2013"/>
  <outline>
    <contour>
      <point x="2" y="606" type="line"/>
      <point x="2" y="732" type="line"/>
      <point x="535" y="732" type="line"/>
      <point x="535" y="606" type="line"/>
    </contour>
  </outline>
</glyph>
<glyph name="emdash" format="1">
  <advance width="1101"/>
  <unicode hex="2014"/>
  <outline>
    <contour>
      <point x="2" y="402" type="line"/>
      <point x="2" y="548" type="line"/>
      <point x="1098" y="548" type="line"/>
      <point x="1098" y="402" type="line"/>
    </contour>
  </outline>
</glyph>
<glyph name="dagger" format="1">
  <advance width="890"/>
  <unicode hex="2020"/>
  <outline>
    <contour>
      <point x="348" y="0" type="line"/>
      <point x="348" y="931" type="line"/>
      <point x="88" y="931" type="line"/>
      <point x="88" y="1060" type="line"/>
      <point x="348" y="1060" type="line"/>
      <point x="348" y="1446" type="line"/>
      <point x="536" y="1446" type="line"/>
      <point x="536" y="1060" type="line"/>
      <point x="802" y="1060" type="line"/>
      <point x="802" y="931" type="line"/>
      <point x="536" y="931" type="line"/>
      <point x="536" y="0" type="line"/>
    </contour>
  </outline>
</glyph>
<glyph name="daggerdbl" format="1">
  <advance width="938"/>
  <unicode hex="2021"/>
  <outline>
    <contour>
      <point x="372" y="0" type="line"/>
      <point x="372" y="409" type="line"/>
      <point x="112" y="409" type="line"/>
      <point x="112" y="538" type="line"/>
      <point x="372" y="538" type="line"/>
      <point x="372" y="931" type="line"/>
      <point x="112" y="931" type="line"/>
      <point x="112" y="1060" type="line"/>
      <point x="372" y="1060" type="line"/>
      <point x="372" y="1446" type="line"/>
      <point x="560" y="1446" type="line"/>
      <point x="560" y="1060" type="line"/>
      <point x="826" y="1060" type="line"/>
      <point x="826" y="931" type="line"/>
      <point x="560" y="931" type="line"/>
      <point x="560" y="538" type="line"/>
      <point x="826" y="538" type="line"/>
      <point x="826" y="409" type="line"/>
      <point x="560" y="409" type="line"/>
      <point x="560" y="0" type="line"/>
    </contour>
  </outline>
</glyph>
<glyph name="bullet" format="1">
  <advance width="975"/>
  <unicode hex="2022"/>
  <outline>
    <contour>
      <point x="795" y="405"/>
      <point x="713" y="298"/>
      <point x="486" y="298" type="curve" smooth="yes"/>
      <point x="260" y="298"/>
      <point x="180" y="404"/>
      <point x="180" y="599" type="curve" smooth="yes"/>
      <point x="180" y="795"/>
      <point x="262" y="901"/>
      <point x="487" y="901" type="curve" smooth="yes"/>
      <point x="714" y="901"/>
      <point x="795" y="795"/>
      <point x="795" y="599" type="curve" smooth="yes"/>
    </contour>
  </outline>
</glyph>
<glyph name="perthousand" format="1">
  <advance width="2886"/>
  <unicode hex="2030"/>
  <outline>
    <contour>
      <point x="352" y="879"/>
      <point x="369" y="774"/>
      <point x="507" y="774" type="curve" smooth="yes"/>
      <point x="645" y="774"/>
      <point x="664" y="879"/>
      <point x="664" y="1020" type="curve" smooth="yes"/>
      <point x="664" y="1113" type="line" smooth="yes"/>
      <point x="664" y="1251"/>
      <point x="651" y="1345"/>
      <point x="507" y="1345" type="curve" smooth="yes"/>
      <point x="364" y="1345"/>
      <point x="352" y="1251"/>
      <point x="352" y="1115" type="curve" smooth="yes"/>
      <point x="352" y="1020" type="line" smooth="yes"/>
    </contour>
    <contour>
      <point x="809" y="808"/>
      <point x="737" y="658"/>
      <point x="507" y="658" type="curve" smooth="yes"/>
      <point x="277" y="658"/>
      <point x="209" y="809"/>
      <point x="209" y="1037" type="curve" smooth="yes"/>
      <point x="209" y="1090" type="line" smooth="yes"/>
      <point x="209" y="1323"/>
      <point x="276" y="1461"/>
      <point x="507" y="1461" type="curve" smooth="yes"/>
      <point x="737" y="1461"/>
      <point x="807" y="1324"/>
      <point x="809" y="1091" type="curve"/>
      <point x="809" y="1037" type="line" smooth="yes"/>
    </contour>
    <contour>
      <point x="1456" y="202"/>
      <point x="1473" y="97"/>
      <point x="1611" y="97" type="curve" smooth="yes"/>
      <point x="1749" y="97"/>
      <point x="1768" y="202"/>
      <point x="1768" y="343" type="curve" smooth="yes"/>
      <point x="1768" y="436" type="line" smooth="yes"/>
      <point x="1768" y="574"/>
      <point x="1755" y="668"/>
      <point x="1611" y="668" type="curve" smooth="yes"/>
      <point x="1468" y="668"/>
      <point x="1456" y="574"/>
      <point x="1456" y="438" type="curve" smooth="yes"/>
      <point x="1456" y="343" type="line" smooth="yes"/>
    </contour>
    <contour>
      <point x="1913" y="131"/>
      <point x="1841" y="-19"/>
      <point x="1611" y="-19" type="curve" smooth="yes"/>
      <point x="1381" y="-19"/>
      <point x="1313" y="132"/>
      <point x="1313" y="360" type="curve" smooth="yes"/>
      <point x="1313" y="413" type="line" smooth="yes"/>
      <point x="1313" y="646"/>
      <point x="1380" y="784"/>
      <point x="1611" y="784" type="curve" smooth="yes"/>
      <point x="1841" y="784"/>
      <point x="1911" y="647"/>
      <point x="1913" y="414" type="curve"/>
      <point x="1913" y="360" type="line" smooth="yes"/>
    </contour>
    <contour>
      <point x="2235" y="202"/>
      <point x="2252" y="97"/>
      <point x="2390" y="97" type="curve" smooth="yes"/>
      <point x="2528" y="97"/>
      <point x="2547" y="202"/>
      <point x="2547" y="343" type="curve" smooth="yes"/>
      <point x="2547" y="436" type="line" smooth="yes"/>
      <point x="2547" y="574"/>
      <point x="2534" y="668"/>
      <point x="2390" y="668" type="curve" smooth="yes"/>
      <point x="2247" y="668"/>
      <point x="2235" y="574"/>
      <point x="2235" y="438" type="curve" smooth="yes"/>
      <point x="2235" y="343" type="line" smooth="yes"/>
    </contour>
    <contour>
      <point x="2692" y="131"/>
      <point x="2620" y="-19"/>
      <point x="2390" y="-19" type="curve" smooth="yes"/>
      <point x="2160" y="-19"/>
      <point x="2092" y="132"/>
      <point x="2092" y="360" type="curve" smooth="yes"/>
      <point x="2092" y="413" type="line" smooth="yes"/>
      <point x="2092" y="646"/>
      <point x="2159" y="784"/>
      <point x="2390" y="784" type="curve" smooth="yes"/>
      <point x="2620" y="784"/>
      <point x="2690" y="647"/>
      <point x="2692" y="414" type="curve"/>
      <point x="2692" y="360" type="line" smooth="yes"/>
    </contour>
    <contour>
      <point x="705" y="0" type="line"/>
      <point x="1248" y="1446" type="line"/>
      <point x="1397" y="1446" type="line"/>
      <point x="859" y="0" type="line"/>
    </contour>
  </outline>
</glyph>
<glyph name="guilsinglleft" format="1">
  <advance width="768"/>
  <unicode hex="2039"/>
  <outline>
    <contour>
      <point x="454" y="80" type="line"/>
      <point x="174" y="530" type="line"/>
      <point x="447" y="980" type="line"/>
      <point x="594" y="910" type="line"/>
      <point x="387" y="530" type="line"/>
      <point x="594" y="150" type="line"/>
    </contour>
  </outline>
</glyph>
<glyph name="guilsinglright" format="1">
  <advance width="768"/>
  <unicode hex="203A"/>
  <outline>
    <contour>
      <point x="327" y="80" type="line"/>
      <point x="180" y="150" type="line"/>
      <point x="387" y="530" type="line"/>
      <point x="180" y="910" type="line"/>
      <point x="320" y="980" type="line"/>
      <point x="600" y="530" type="line"/>
    </contour>
  </outline>
</glyph>
<glyph name="fraction" format="1">
  <advance width="768"/>
  <unicode hex="2044"/>
  <outline>
    <contour>
      <point x="16" y="0" type="line"/>
      <point x="569" y="1506" type="line"/>
      <point x="752" y="1506" type="line"/>
      <point x="203" y="0" type="line"/>
    </contour>
  </outline>
</glyph>
<glyph name="uni2074" format="1">
  <advance width="1267"/>
  <unicode hex="2074"/>
  <outline>
    <contour>
      <point x="689" y="614" type="line"/>
      <point x="689" y="821" type="line"/>
      <point x="255" y="821" type="line"/>
      <point x="255" y="913" type="line"/>
      <point x="614" y="1506" type="line"/>
      <point x="755" y="1506" type="line"/>
      <point x="407" y="912" type="line"/>
      <point x="689" y="912" type="line"/>
      <point x="689" y="1147" type="line"/>
      <point x="802" y="1147" type="line"/>
      <point x="802" y="912" type="line"/>
      <point x="946" y="912" type="line"/>
      <point x="946" y="821" type="line"/>
      <point x="802" y="821" type="line"/>
      <point x="802" y="614" type="line"/>
    </contour>
  </outline>
</glyph>
<glyph name="Euro" format="1">
  <advance width="1460"/>
  <unicode hex="20AC"/>
  <outline>
    <contour>
      <point x="1" y="505" type="line"/>
      <point x="1" y="639" type="line"/>
      <point x="743" y="639" type="line"/>
      <point x="743" y="505" type="line"/>
    </contour>
    <contour>
      <point x="1" y="819" type="line"/>
      <point x="1" y="953" type="line"/>
      <point x="743" y="953" type="line"/>
      <point x="743" y="819" type="line"/>
    </contour>
    <component base="C"/>
  </outline>
</glyph>
<glyph name="trademark" format="1">
  <advance width="1843"/>
  <unicode hex="2122"/>
  <outline>
    <contour>
      <point x="845" y="766" type="line"/>
      <point x="845" y="1446" type="line"/>
      <point x="1043" y="1446" type="line"/>
      <point x="1227" y="1033" type="line"/>
      <point x="1413" y="1446" type="line"/>
      <point x="1609" y="1446" type="line"/>
      <point x="1609" y="766" type="line"/>
      <point x="1482" y="766" type="line"/>
      <point x="1482" y="1329" type="line"/>
      <point x="1310" y="931" type="line"/>
      <point x="1149" y="931" type="line"/>
      <point x="970" y="1329" type="line"/>
      <point x="970" y="766" type="line"/>
    </contour>
    <contour>
      <point x="345" y="766" type="line"/>
      <point x="345" y="1332" type="line"/>
      <point x="133" y="1332" type="line"/>
      <point x="133" y="1446" type="line"/>
      <point x="692" y="1446" type="line"/>
      <point x="692" y="1332" type="line"/>
      <point x="480" y="1332" type="line"/>
      <point x="480" y="766" type="line"/>
    </contour>
  </outline>
</glyph>
<glyph name="uni2206" format="1">
  <advance width="1104"/>
  <unicode hex="2206"/>
  <outline>
    <contour>
      <point x="82" y="350" type="line"/>
      <point x="82" y="474" type="line"/>
      <point x="480" y="1505" type="line"/>
      <point x="650" y="1505" type="line"/>
      <point x="1022" y="474" type="line"/>
      <point x="1022" y="350" type="line"/>
    </contour>
    <contour>
      <point x="263" y="494" type="line"/>
      <point x="846" y="494" type="line"/>
      <point x="567" y="1335" type="line"/>
    </contour>
  </outline>
</glyph>
<glyph name="product" format="1">
  <advance width="1792"/>
  <unicode hex="220F"/>
  <outline>
    <contour>
      <point x="660" y="319" type="line"/>
      <point x="660" y="1153" type="line"/>
      <point x="982" y="1153" type="line" smooth="yes"/>
      <point x="1139" y="1153"/>
      <point x="1241" y="1082"/>
      <point x="1245" y="908" type="curve"/>
      <point x="1245" y="894" type="line" smooth="yes"/>
      <point x="1245" y="760"/>
      <point x="1189" y="652"/>
      <point x="969" y="652" type="curve" smooth="yes"/>
      <point x="791" y="652" type="line"/>
      <point x="791" y="319" type="line"/>
    </contour>
    <contour>
      <point x="791" y="742" type="line"/>
      <point x="977" y="742" type="line" smooth="yes"/>
      <point x="1091" y="742"/>
      <point x="1112" y="814"/>
      <point x="1113" y="877" type="curve"/>
      <point x="1113" y="901" type="line" smooth="yes"/>
      <point x="1113" y="960"/>
      <point x="1104" y="1062"/>
      <point x="986" y="1062" type="curve" smooth="yes"/>
      <point x="791" y="1062" type="line"/>
    </contour>
    <contour>
      <point x="269" y="357"/>
      <point x="534" y="82"/>
      <point x="898" y="82" type="curve" smooth="yes"/>
      <point x="1264" y="82"/>
      <point x="1526" y="357"/>
      <point x="1526" y="722" type="curve" smooth="yes"/>
      <point x="1526" y="1086"/>
      <point x="1264" y="1361"/>
      <point x="898" y="1361" type="curve" smooth="yes"/>
      <point x="534" y="1361"/>
      <point x="269" y="1086"/>
      <point x="269" y="722" type="curve" smooth="yes"/>
    </contour>
    <contour>
      <point x="1632" y="303"/>
      <point x="1312" y="-14"/>
      <point x="896" y="-14" type="curve" smooth="yes"/>
      <point x="483" y="-14"/>
      <point x="160" y="303"/>
      <point x="160" y="722" type="curve" smooth="yes"/>
      <point x="160" y="1139"/>
      <point x="483" y="1456"/>
      <point x="896" y="1456" type="curve" smooth="yes"/>
      <point x="1312" y="1456"/>
      <point x="1632" y="1139"/>
      <point x="1632" y="722" type="curve" smooth="yes"/>
    </contour>
  </outline>
</glyph>
<glyph name="minus" format="1">
  <advance width="911"/>
  <unicode hex="2212"/>
  <outline>
    <contour>
      <point x="142" y="439" type="line"/>
      <point x="142" y="609" type="line"/>
      <point x="769" y="609" type="line"/>
      <point x="769" y="439" type="line"/>
    </contour>
  </outline>
</glyph>
<glyph name="uni2219" format="1">
  <advance width="412"/>
  <unicode hex="2219"/>
  <outline>
    <contour>
      <point x="108" y="1277" type="line"/>
      <point x="108" y="1483" type="line"/>
      <point x="313" y="1483" type="line"/>
      <point x="313" y="1277" type="line"/>
    </contour>
  </outline>
</glyph>
<glyph name="infinity" format="1">
  <advance width="1650"/>
  <unicode hex="221E"/>
  <outline>
    <contour>
      <point x="220" y="718"/>
      <point x="272" y="616"/>
      <point x="376" y="616" type="curve" smooth="yes"/>
      <point x="450" y="616"/>
      <point x="717" y="829"/>
      <point x="717" y="829" type="curve"/>
      <point x="717" y="829"/>
      <point x="450" y="1027"/>
      <point x="376" y="1027" type="curve" smooth="yes"/>
      <point x="272" y="1027"/>
      <point x="220" y="924"/>
      <point x="220" y="821" type="curve" smooth="yes"/>
    </contour>
    <contour>
      <point x="64" y="990"/>
      <point x="166" y="1158"/>
      <point x="369" y="1158" type="curve" smooth="yes"/>
      <point x="547" y="1158"/>
      <point x="818" y="933"/>
      <point x="818" y="933" type="curve"/>
      <point x="818" y="933"/>
      <point x="1103" y="1158"/>
      <point x="1281" y="1158" type="curve" smooth="yes"/>
      <point x="1483" y="1158"/>
      <point x="1586" y="989"/>
      <point x="1586" y="820" type="curve" smooth="yes"/>
      <point x="1586" y="652"/>
      <point x="1484" y="485"/>
      <point x="1281" y="485" type="curve" smooth="yes"/>
      <point x="1103" y="485"/>
      <point x="818" y="736"/>
      <point x="818" y="736" type="curve"/>
      <point x="818" y="736"/>
      <point x="547" y="485"/>
      <point x="369" y="485" type="curve" smooth="yes"/>
      <point x="166" y="485"/>
      <point x="64" y="654"/>
      <point x="64" y="822" type="curve" smooth="yes"/>
    </contour>
    <contour>
      <point x="1417" y="924"/>
      <point x="1365" y="1027"/>
      <point x="1261" y="1027" type="curve" smooth="yes"/>
      <point x="1187" y="1027"/>
      <point x="919" y="826"/>
      <point x="919" y="826" type="curve"/>
      <point x="919" y="826"/>
      <point x="1187" y="616"/>
      <point x="1261" y="616" type="curve" smooth="yes"/>
      <point x="1365" y="616"/>
      <point x="1417" y="718"/>
      <point x="1417" y="821" type="curve" smooth="yes"/>
    </contour>
  </outline>
</glyph>
<glyph name="integral" format="1">
  <advance width="890"/>
  <unicode hex="222B"/>
  <outline>
    <contour>
      <point x="521" y="-288"/>
      <point x="452" y="-380"/>
      <point x="251" y="-380" type="curve" smooth="yes"/>
      <point x="218" y="-380"/>
      <point x="181" y="-378"/>
      <point x="141" y="-373" type="curve"/>
      <point x="141" y="-249" type="line"/>
      <point x="158" y="-251"/>
      <point x="174" y="-251"/>
      <point x="189" y="-251" type="curve" smooth="yes"/>
      <point x="300" y="-251"/>
      <point x="333" y="-208"/>
      <point x="333" y="-127" type="curve" smooth="yes"/>
      <point x="333" y="1159" type="line" smooth="yes"/>
      <point x="333" y="1376"/>
      <point x="398" y="1468"/>
      <point x="606" y="1468" type="curve" smooth="yes"/>
      <point x="637" y="1468"/>
      <point x="672" y="1466"/>
      <point x="710" y="1462" type="curve"/>
      <point x="710" y="1338" type="line"/>
      <point x="699" y="1339"/>
      <point x="690" y="1339"/>
      <point x="680" y="1339" type="curve" smooth="yes"/>
      <point x="542" y="1339"/>
      <point x="521" y="1267"/>
      <point x="521" y="1181" type="curve" smooth="yes"/>
      <point x="521" y="-99" type="line" smooth="yes"/>
    </contour>
  </outline>
</glyph>
<glyph name="approxequal" format="1">
  <advance width="881"/>
  <unicode hex="2248"/>
  <outline>
    <contour>
      <point x="64" y="814"/>
      <point x="160" y="898"/>
      <point x="280" y="898" type="curve" smooth="yes"/>
      <point x="417" y="898"/>
      <point x="539" y="781"/>
      <point x="610" y="781" type="curve" smooth="yes"/>
      <point x="691" y="781"/>
      <point x="720" y="822"/>
      <point x="720" y="884" type="curve"/>
      <point x="817" y="884" type="line"/>
      <point x="817" y="719"/>
      <point x="721" y="635"/>
      <point x="601" y="635" type="curve" smooth="yes"/>
      <point x="464" y="635"/>
      <point x="342" y="752"/>
      <point x="271" y="752" type="curve" smooth="yes"/>
      <point x="190" y="752"/>
      <point x="161" y="711"/>
      <point x="161" y="649" type="curve"/>
      <point x="64" y="649" type="line"/>
    </contour>
    <contour>
      <point x="64" y="1120"/>
      <point x="160" y="1204"/>
      <point x="280" y="1204" type="curve" smooth="yes"/>
      <point x="417" y="1204"/>
      <point x="539" y="1087"/>
      <point x="610" y="1087" type="curve" smooth="yes"/>
      <point x="691" y="1087"/>
      <point x="720" y="1128"/>
      <point x="720" y="1190" type="curve"/>
      <point x="817" y="1190" type="line"/>
      <point x="817" y="1025"/>
      <point x="721" y="941"/>
      <point x="601" y="941" type="curve" smooth="yes"/>
      <point x="464" y="941"/>
      <point x="342" y="1058"/>
      <point x="271" y="1058" type="curve" smooth="yes"/>
      <point x="190" y="1058"/>
      <point x="161" y="1017"/>
      <point x="161" y="955" type="curve"/>
      <point x="64" y="955" type="line"/>
    </contour>
  </outline>
</glyph>
<glyph name="lozenge" format="1">
  <advance width="1104"/>
  <unicode hex="25CA"/>
  <outline>
    <contour>
      <point x="480" y="0" type="line"/>
      <point x="116" y="725" type="line"/>
      <point x="480" y="1446" type="line"/>
      <point x="650" y="1446" type="line"/>
      <point x="988" y="725" type="line"/>
      <point x="650" y="0" type="line"/>
    </contour>
    <contour>
      <point x="567" y="160" type="line"/>
      <point x="814" y="725" type="line"/>
      <point x="567" y="1276" type="line"/>
      <point x="295" y="725" type="line"/>
    </contour>
  </outline>
</glyph>
<glyph name="uniFB01" format="1">
  <advance width="1386"/>
  <unicode hex="FB01"/>
  <outline>
    <contour>
      <point x="996" y="1251" type="line"/>
      <point x="996" y="1446" type="line"/>
      <point x="1184" y="1446" type="line"/>
      <point x="1184" y="1251" type="line"/>
    </contour>
    <contour>
      <point x="287" y="0" type="line"/>
      <point x="287" y="918" type="line"/>
      <point x="110" y="918" type="line"/>
      <point x="110" y="1060" type="line"/>
      <point x="287" y="1060" type="line"/>
      <point x="287" y="1222" type="line" smooth="yes"/>
      <point x="287" y="1420"/>
      <point x="395" y="1505"/>
      <point x="613" y="1505" type="curve" smooth="yes"/>
      <point x="732" y="1505" type="line"/>
      <point x="744" y="1372" type="line"/>
      <point x="628" y="1372" type="line" smooth="yes"/>
      <point x="513" y="1372"/>
      <point x="475" y="1316"/>
      <point x="475" y="1240" type="curve" smooth="yes"/>
      <point x="475" y="1060" type="line"/>
      <point x="1184" y="1060" type="line"/>
      <point x="1184" y="0" type="line"/>
      <point x="996" y="0" type="line"/>
      <point x="996" y="918" type="line"/>
      <point x="475" y="918" type="line"/>
      <point x="475" y="0" type="line"/>
    </contour>
  </outline>
</glyph>
<glyph name="uniFB02" format="1">
  <advance width="1486"/>
  <unicode hex="FB02"/>
  <outline>
    <contour>
      <point x="1320" y="-8" type="line" smooth="yes"/>
      <point x="1088" y="-8"/>
      <point x="980" y="49"/>
      <point x="980" y="358" type="curve" smooth="yes"/>
      <point x="980" y="1372" type="line"/>
      <point x="628" y="1372" type="line" smooth="yes"/>
      <point x="513" y="1372"/>
      <point x="475" y="1315"/>
      <point x="475" y="1239" type="curve" smooth="yes"/>
      <point x="475" y="1060" type="line"/>
      <point x="732" y="1060" type="line"/>
      <point x="732" y="918" type="line"/>
      <point x="475" y="918" type="line"/>
      <point x="475" y="0" type="line"/>
      <point x="287" y="0" type="line"/>
      <point x="287" y="918" type="line"/>
      <point x="110" y="918" type="line"/>
      <point x="110" y="1060" type="line"/>
      <point x="287" y="1060" type="line"/>
      <point x="287" y="1221" type="line" smooth="yes"/>
      <point x="287" y="1419"/>
      <point x="395" y="1505"/>
      <point x="613" y="1505" type="curve" smooth="yes"/>
      <point x="1168" y="1505" type="line"/>
      <point x="1168" y="356" type="line" smooth="yes"/>
      <point x="1168" y="183"/>
      <point x="1206" y="150"/>
      <point x="1363" y="150" type="curve" smooth="yes"/>
      <point x="1396" y="150" type="line"/>
      <point x="1374" y="-8" type="line"/>
    </contour>
  </outline>
</glyph>
<glyph name="uniFB00" format="1">
  <advance width="1542"/>
  <outline>
    <contour>
      <point x="1039" y="0" type="line"/>
      <point x="1039" y="918" type="line"/>
      <point x="475" y="918" type="line"/>
      <point x="475" y="0" type="line"/>
      <point x="287" y="0" type="line"/>
      <point x="287" y="918" type="line"/>
      <point x="110" y="918" type="line"/>
      <point x="110" y="1060" type="line"/>
      <point x="287" y="1060" type="line"/>
      <point x="287" y="1221" type="line" smooth="yes"/>
      <point x="287" y="1419"/>
      <point x="395" y="1505"/>
      <point x="613" y="1505" type="curve" smooth="yes"/>
      <point x="732" y="1505" type="line"/>
      <point x="744" y="1372" type="line"/>
      <point x="628" y="1372" type="line" smooth="yes"/>
      <point x="513" y="1372"/>
      <point x="475" y="1315"/>
      <point x="475" y="1239" type="curve" smooth="yes"/>
      <point x="475" y="1060" type="line"/>
      <point x="1039" y="1060" type="line"/>
      <point x="1039" y="1221" type="line" smooth="yes"/>
      <point x="1039" y="1419"/>
      <point x="1147" y="1505"/>
      <point x="1365" y="1505" type="curve" smooth="yes"/>
      <point x="1484" y="1505" type="line"/>
      <point x="1496" y="1372" type="line"/>
      <point x="1380" y="1372" type="line" smooth="yes"/>
      <point x="1265" y="1372"/>
      <point x="1227" y="1315"/>
      <point x="1227" y="1239" type="curve" smooth="yes"/>
      <point x="1227" y="1060" type="line"/>
      <point x="1484" y="1060" type="line"/>
      <point x="1484" y="918" type="line"/>
      <point x="1227" y="918" type="line"/>
      <point x="1227" y="0" type="line"/>
    </contour>
  </outline>
</glyph>
<glyph name="uniFB03" format="1">
  <advance width="2176"/>
  <outline>
    <contour>
      <point x="1786" y="1251" type="line"/>
      <point x="1786" y="1446" type="line"/>
      <point x="1974" y="1446" type="line"/>
      <point x="1974" y="1251" type="line"/>
    </contour>
    <contour>
      <point x="1077" y="0" type="line"/>
      <point x="1077" y="918" type="line"/>
      <point x="475" y="918" type="line"/>
      <point x="475" y="0" type="line"/>
      <point x="287" y="0" type="line"/>
      <point x="287" y="918" type="line"/>
      <point x="110" y="918" type="line"/>
      <point x="110" y="1060" type="line"/>
      <point x="287" y="1060" type="line"/>
      <point x="287" y="1221" type="line" smooth="yes"/>
      <point x="287" y="1419"/>
      <point x="395" y="1505"/>
      <point x="613" y="1505" type="curve" smooth="yes"/>
      <point x="732" y="1505" type="line"/>
      <point x="744" y="1372" type="line"/>
      <point x="628" y="1372" type="line" smooth="yes"/>
      <point x="513" y="1372"/>
      <point x="475" y="1315"/>
      <point x="475" y="1239" type="curve" smooth="yes"/>
      <point x="475" y="1060" type="line"/>
      <point x="1077" y="1060" type="line"/>
      <point x="1077" y="1221" type="line" smooth="yes"/>
      <point x="1077" y="1419"/>
      <point x="1185" y="1505"/>
      <point x="1403" y="1505" type="curve" smooth="yes"/>
      <point x="1522" y="1505" type="line"/>
      <point x="1534" y="1372" type="line"/>
      <point x="1418" y="1372" type="line" smooth="yes"/>
      <point x="1303" y="1372"/>
      <point x="1265" y="1315"/>
      <point x="1265" y="1239" type="curve" smooth="yes"/>
      <point x="1265" y="1060" type="line"/>
      <point x="1974" y="1060" type="line"/>
      <point x="1974" y="0" type="line"/>
      <point x="1786" y="0" type="line"/>
      <point x="1786" y="918" type="line"/>
      <point x="1265" y="918" type="line"/>
      <point x="1265" y="0" type="line"/>
    </contour>
  </outline>
</glyph>
<glyph name="uniFB04" format="1">
  <advance width="2225"/>
  <outline>
    <contour>
      <point x="2059" y="-8" type="line" smooth="yes"/>
      <point x="1827" y="-8"/>
      <point x="1719" y="49"/>
      <point x="1719" y="358" type="curve" smooth="yes"/>
      <point x="1719" y="1372" type="line"/>
      <point x="1367" y="1372" type="line" smooth="yes"/>
      <point x="1252" y="1372"/>
      <point x="1214" y="1315"/>
      <point x="1214" y="1239" type="curve" smooth="yes"/>
      <point x="1214" y="1060" type="line"/>
      <point x="1471" y="1060" type="line"/>
      <point x="1471" y="918" type="line"/>
      <point x="1214" y="918" type="line"/>
      <point x="1214" y="0" type="line"/>
      <point x="1026" y="0" type="line"/>
      <point x="1026" y="918" type="line"/>
      <point x="475" y="918" type="line"/>
      <point x="475" y="0" type="line"/>
      <point x="287" y="0" type="line"/>
      <point x="287" y="918" type="line"/>
      <point x="110" y="918" type="line"/>
      <point x="110" y="1060" type="line"/>
      <point x="287" y="1060" type="line"/>
      <point x="287" y="1221" type="line" smooth="yes"/>
      <point x="287" y="1419"/>
      <point x="395" y="1505"/>
      <point x="613" y="1505" type="curve" smooth="yes"/>
      <point x="732" y="1505" type="line"/>
      <point x="744" y="1372" type="line"/>
      <point x="628" y="1372" type="line" smooth="yes"/>
      <point x="513" y="1372"/>
      <point x="475" y="1315"/>
      <point x="475" y="1239" type="curve" smooth="yes"/>
      <point x="475" y="1060" type="line"/>
      <point x="1026" y="1060" type="line"/>
      <point x="1026" y="1221" type="line" smooth="yes"/>
      <point x="1026" y="1419"/>
      <point x="1134" y="1505"/>
      <point x="1352" y="1505" type="curve" smooth="yes"/>
      <point x="1907" y="1505" type="line"/>
      <point x="1907" y="356" type="line" smooth="yes"/>
      <point x="1907" y="183"/>
      <point x="1945" y="150"/>
      <point x="2102" y="150" type="curve" smooth="yes"/>
      <point x="2135" y="150" type="line"/>
      <point x="2113" y="-8" type="line"/>
    </contour>
  </outline>
</glyph>
